Comic Neue Bold.ufo
<glyph name="exclam" format="1">
  <advance width="222"/>
  <unicode hex="0021"/>
  <outline>
    <contour>
      <point x="55" y="217" type="line" smooth="yes"/>
      <point x="55" y="190"/>
      <point x="77" y="168"/>
      <point x="104" y="168" type="curve" smooth="yes"/>
      <point x="132" y="168"/>
      <point x="153" y="190"/>
      <point x="153" y="217" type="curve" smooth="yes"/>
      <point x="153" y="625" type="line" smooth="yes"/>
      <point x="153" y="651"/>
      <point x="132" y="675"/>
      <point x="104" y="675" type="curve" smooth="yes"/>
      <point x="77" y="675"/>
      <point x="55" y="651"/>
      <point x="55" y="625" type="curve" smooth="yes"/>
    </contour>
    <contour>
      <point x="155" y="94"/>
      <point x="134" y="121"/>
      <point x="103" y="121" type="curve" smooth="yes"/>
      <point x="73" y="121"/>
      <point x="44" y="90"/>
      <point x="44" y="56" type="curve" smooth="yes"/>
      <point x="44" y="25"/>
      <point x="65" y="0"/>
      <point x="96" y="0" type="curve" smooth="yes"/>
      <point x="125" y="0"/>
      <point x="155" y="28"/>
      <point x="155" y="65" type="curve" smooth="yes"/>
    </contour>
  </outline>
</glyph>
<glyph name="quotedbl" format="1">
  <advance width="339"/>
  <unicode hex="0022"/>
  <outline>
    <contour>
      <point x="119" y="454"/>
      <point x="141" y="475"/>
      <point x="141" y="502" type="curve" smooth="yes"/>
      <point x="141" y="624" type="line" smooth="yes"/>
      <point x="141" y="650"/>
      <point x="119" y="672"/>
      <point x="93" y="672" type="curve" smooth="yes"/>
      <point x="66" y="672"/>
      <point x="45" y="650"/>
      <point x="45" y="624" type="curve" smooth="yes"/>
      <point x="45" y="502" type="line" smooth="yes"/>
      <point x="45" y="475"/>
      <point x="66" y="454"/>
      <point x="93" y="454" type="curve" smooth="yes"/>
    </contour>
    <contour>
      <point x="267" y="454"/>
      <point x="290" y="475"/>
      <point x="290" y="502" type="curve" smooth="yes"/>
      <point x="290" y="624" type="line" smooth="yes"/>
      <point x="290" y="650"/>
      <point x="267" y="672"/>
      <point x="241" y="672" type="curve" smooth="yes"/>
      <point x="214" y="672"/>
      <point x="193" y="650"/>
      <point x="193" y="624" type="curve" smooth="yes"/>
      <point x="193" y="502" type="line" smooth="yes"/>
      <point x="193" y="475"/>
      <point x="214" y="454"/>
      <point x="241" y="454" type="curve" smooth="yes"/>
    </contour>
  </outline>
</glyph>
<glyph name="dollar" format="1">
  <advance width="630"/>
  <unicode hex="0024"/>
  <outline>
    <contour>
      <point x="447" y="487"/>
      <point x="466" y="470"/>
      <point x="493" y="470" type="curve" smooth="yes"/>
      <point x="517" y="470"/>
      <point x="539" y="490"/>
      <point x="539" y="515" type="curve" smooth="yes"/>
      <point x="539" y="618"/>
      <point x="442" y="657"/>
      <point x="357" y="662" type="curve"/>
      <point x="357" y="680" type="line" smooth="yes"/>
      <point x="357" y="705"/>
      <point x="334" y="728"/>
      <point x="308" y="728" type="curve" smooth="yes"/>
      <point x="282" y="728"/>
      <point x="261" y="705"/>
      <point x="261" y="680" type="curve" smooth="yes"/>
      <point x="261" y="659" type="line"/>
      <point x="175" y="648"/>
      <point x="95" y="599"/>
      <point x="95" y="486" type="curve" smooth="yes"/>
      <point x="95" y="394"/>
      <point x="177" y="341"/>
      <point x="261" y="312" type="curve"/>
      <point x="261" y="98" type="line"/>
      <point x="216" y="108"/>
      <point x="176" y="134"/>
      <point x="161" y="177" type="curve" smooth="yes"/>
      <point x="154" y="198"/>
      <point x="136" y="213"/>
      <point x="113" y="213" type="curve" smooth="yes"/>
      <point x="82" y="213"/>
      <point x="62" y="184"/>
      <point x="62" y="166" type="curve" smooth="yes"/>
      <point x="62" y="152"/>
      <point x="65" y="148"/>
      <point x="66" y="144" type="curve"/>
      <point x="95" y="68"/>
      <point x="169" y="16"/>
      <point x="261" y="3" type="curve"/>
      <point x="261" y="-19" type="line" smooth="yes"/>
      <point x="261" y="-45"/>
      <point x="282" y="-67"/>
      <point x="308" y="-67" type="curve" smooth="yes"/>
      <point x="334" y="-67"/>
      <point x="357" y="-45"/>
      <point x="357" y="-19" type="curve" smooth="yes"/>
      <point x="357" y="4" type="line"/>
      <point x="467" y="24"/>
      <point x="541" y="92"/>
      <point x="541" y="196" type="curve" smooth="yes"/>
      <point x="541" y="283"/>
      <point x="481" y="346"/>
      <point x="357" y="386" type="curve"/>
      <point x="357" y="570" type="line"/>
      <point x="389" y="565"/>
      <point x="439" y="551"/>
      <point x="444" y="511" type="curve" smooth="yes"/>
    </contour>
    <contour>
      <point x="198" y="513"/>
      <point x="208" y="549"/>
      <point x="261" y="564" type="curve"/>
      <point x="261" y="419" type="line"/>
      <point x="219" y="438"/>
      <point x="198" y="460"/>
      <point x="198" y="483" type="curve" smooth="yes"/>
    </contour>
    <contour>
      <point x="357" y="282" type="line"/>
      <point x="432" y="251"/>
      <point x="439" y="219"/>
      <point x="439" y="202" type="curve" smooth="yes"/>
      <point x="439" y="145"/>
      <point x="404" y="114"/>
      <point x="357" y="101" type="curve"/>
    </contour>
  </outline>
</glyph>
<glyph name="percent" format="1">
  <advance width="754"/>
  <unicode hex="0025"/>
  <outline>
    <contour>
      <point x="289" y="383"/>
      <point x="355" y="449"/>
      <point x="355" y="530" type="curve" smooth="yes"/>
      <point x="355" y="610"/>
      <point x="289" y="676"/>
      <point x="208" y="676" type="curve" smooth="yes"/>
      <point x="128" y="676"/>
      <point x="62" y="610"/>
      <point x="62" y="530" type="curve" smooth="yes"/>
      <point x="62" y="449"/>
      <point x="128" y="383"/>
      <point x="208" y="383" type="curve" smooth="yes"/>
    </contour>
    <contour>
      <point x="237" y="581"/>
      <point x="260" y="558"/>
      <point x="260" y="530" type="curve" smooth="yes"/>
      <point x="260" y="501"/>
      <point x="237" y="478"/>
      <point x="208" y="478" type="curve" smooth="yes"/>
      <point x="180" y="478"/>
      <point x="157" y="501"/>
      <point x="157" y="530" type="curve" smooth="yes"/>
      <point x="157" y="558"/>
      <point x="180" y="581"/>
      <point x="208" y="581" type="curve" smooth="yes"/>
    </contour>
    <contour>
      <point x="585" y="-7"/>
      <point x="651" y="58"/>
      <point x="651" y="139" type="curve" smooth="yes"/>
      <point x="651" y="220"/>
      <point x="585" y="285"/>
      <point x="505" y="285" type="curve" smooth="yes"/>
      <point x="424" y="285"/>
      <point x="358" y="220"/>
      <point x="358" y="139" type="curve" smooth="yes"/>
      <point x="358" y="58"/>
      <point x="424" y="-7"/>
      <point x="505" y="-7" type="curve" smooth="yes"/>
    </contour>
    <contour>
      <point x="533" y="191"/>
      <point x="556" y="167"/>
      <point x="556" y="139" type="curve" smooth="yes"/>
      <point x="556" y="110"/>
      <point x="533" y="87"/>
      <point x="505" y="87" type="curve" smooth="yes"/>
      <point x="476" y="87"/>
      <point x="453" y="110"/>
      <point x="453" y="139" type="curve" smooth="yes"/>
      <point x="453" y="167"/>
      <point x="476" y="191"/>
      <point x="505" y="191" type="curve" smooth="yes"/>
    </contour>
    <contour>
      <point x="213" y="0"/>
      <point x="229" y="7"/>
      <point x="238" y="24" type="curve" smooth="yes"/>
      <point x="560" y="604" type="line" smooth="yes"/>
      <point x="564" y="611"/>
      <point x="565" y="619"/>
      <point x="565" y="626" type="curve" smooth="yes"/>
      <point x="565" y="649"/>
      <point x="545" y="672"/>
      <point x="519" y="672" type="curve" smooth="yes"/>
      <point x="503" y="672"/>
      <point x="487" y="664"/>
      <point x="479" y="649" type="curve" smooth="yes"/>
      <point x="159" y="71" type="line"/>
      <point x="154" y="61"/>
      <point x="152" y="51"/>
      <point x="152" y="45" type="curve" smooth="yes"/>
      <point x="152" y="22"/>
      <point x="170" y="0"/>
      <point x="198" y="0" type="curve" smooth="yes"/>
    </contour>
  </outline>
</glyph>
<glyph name="plus" format="1">
  <advance width="469"/>
  <unicode hex="002B"/>
  <outline>
    <contour>
      <point x="352" y="203" type="line" smooth="yes"/>
      <point x="378" y="203"/>
      <point x="399" y="224"/>
      <point x="399" y="251" type="curve" smooth="yes"/>
      <point x="399" y="277"/>
      <point x="378" y="298"/>
      <point x="352" y="298" type="curve" smooth="yes"/>
      <point x="271" y="298" type="line"/>
      <point x="271" y="368" type="line" smooth="yes"/>
      <point x="271" y="394"/>
      <point x="250" y="415"/>
      <point x="224" y="415" type="curve" smooth="yes"/>
      <point x="198" y="415"/>
      <point x="177" y="394"/>
      <point x="177" y="368" type="curve" smooth="yes"/>
      <point x="177" y="298" type="line"/>
      <point x="97" y="298" type="line" smooth="yes"/>
      <point x="70" y="298"/>
      <point x="49" y="277"/>
      <point x="49" y="251" type="curve" smooth="yes"/>
      <point x="49" y="224"/>
      <point x="70" y="203"/>
      <point x="97" y="203" type="curve" smooth="yes"/>
      <point x="177" y="203" type="line"/>
      <point x="177" y="124" type="line" smooth="yes"/>
      <point x="177" y="98"/>
      <point x="198" y="77"/>
      <point x="224" y="77" type="curve" smooth="yes"/>
      <point x="250" y="77"/>
      <point x="271" y="98"/>
      <point x="271" y="124" type="curve" smooth="yes"/>
      <point x="271" y="203" type="line"/>
    </contour>
  </outline>
</glyph>
<glyph name="comma" format="1">
  <advance width="287"/>
  <unicode hex="002C"/>
  <outline>
    <contour>
      <point x="202" y="92"/>
      <point x="179" y="115"/>
      <point x="150" y="115" type="curve" smooth="yes"/>
      <point x="119" y="115"/>
      <point x="91" y="85"/>
      <point x="91" y="52" type="curve" smooth="yes"/>
      <point x="91" y="40"/>
      <point x="94" y="30"/>
      <point x="99" y="21" type="curve"/>
      <point x="81" y="-26" type="line" smooth="yes"/>
      <point x="79" y="-31"/>
      <point x="78" y="-35"/>
      <point x="78" y="-42" type="curve" smooth="yes"/>
      <point x="78" y="-65"/>
      <point x="97" y="-84"/>
      <point x="122" y="-84" type="curve" smooth="yes"/>
      <point x="148" y="-84"/>
      <point x="159" y="-66"/>
      <point x="168" y="-45" type="curve" smooth="yes"/>
      <point x="184" y="-7"/>
      <point x="202" y="43"/>
      <point x="202" y="64" type="curve" smooth="yes"/>
    </contour>
  </outline>
</glyph>
<glyph name="hyphen" format="1">
  <advance width="467"/>
  <unicode hex="002D"/>
  <outline>
    <contour>
      <point x="337" y="203" type="line" smooth="yes"/>
      <point x="363" y="203"/>
      <point x="384" y="225"/>
      <point x="384" y="250" type="curve" smooth="yes"/>
      <point x="384" y="276"/>
      <point x="363" y="297"/>
      <point x="337" y="297" type="curve" smooth="yes"/>
      <point x="112" y="297" type="line" smooth="yes"/>
      <point x="88" y="297"/>
      <point x="65" y="276"/>
      <point x="65" y="250" type="curve" smooth="yes"/>
      <point x="65" y="225"/>
      <point x="88" y="203"/>
      <point x="112" y="203" type="curve" smooth="yes"/>
    </contour>
  </outline>
</glyph>
<glyph name="period" format="1">
  <advance width="240"/>
  <unicode hex="002E"/>
  <outline>
    <contour>
      <point x="141" y="0"/>
      <point x="170" y="29"/>
      <point x="170" y="65" type="curve" smooth="yes"/>
      <point x="170" y="96"/>
      <point x="147" y="121"/>
      <point x="118" y="121" type="curve" smooth="yes"/>
      <point x="87" y="121"/>
      <point x="59" y="90"/>
      <point x="59" y="57" type="curve" smooth="yes"/>
      <point x="59" y="25"/>
      <point x="80" y="0"/>
      <point x="111" y="0" type="curve" smooth="yes"/>
    </contour>
  </outline>
</glyph>
<glyph name="four" format="1">
  <advance width="534"/>
  <unicode hex="0034"/>
  <outline>
    <contour>
      <point x="379" y="-1"/>
      <point x="402" y="22"/>
      <point x="402" y="47" type="curve" smooth="yes"/>
      <point x="402" y="149" type="line"/>
      <point x="408" y="149" type="line" smooth="yes"/>
      <point x="434" y="149"/>
      <point x="458" y="170"/>
      <point x="458" y="197" type="curve" smooth="yes"/>
      <point x="458" y="223"/>
      <point x="439" y="245"/>
      <point x="412" y="245" type="curve" smooth="yes"/>
      <point x="402" y="245" type="line"/>
      <point x="402" y="619" type="line" smooth="yes"/>
      <point x="402" y="646"/>
      <point x="381" y="667"/>
      <point x="353" y="667" type="curve" smooth="yes"/>
      <point x="335" y="667"/>
      <point x="322" y="659"/>
      <point x="313" y="644" type="curve" smooth="yes"/>
      <point x="60" y="228" type="line"/>
      <point x="55" y="219"/>
      <point x="52" y="211"/>
      <point x="52" y="201" type="curve" smooth="yes"/>
      <point x="52" y="175"/>
      <point x="68" y="154"/>
      <point x="100" y="154" type="curve" smooth="yes"/>
      <point x="305" y="151" type="line"/>
      <point x="305" y="47" type="line" smooth="yes"/>
      <point x="305" y="22"/>
      <point x="326" y="-1"/>
      <point x="353" y="-1" type="curve" smooth="yes"/>
    </contour>
    <contour>
      <point x="305" y="447" type="line"/>
      <point x="305" y="247" type="line"/>
      <point x="185" y="250" type="line"/>
    </contour>
  </outline>
</glyph>
<glyph name="five" format="1">
  <advance width="585"/>
  <unicode hex="0035"/>
  <outline>
    <contour>
      <point x="84" y="77"/>
      <point x="154" y="-3"/>
      <point x="268" y="-3" type="curve" smooth="yes"/>
      <point x="388" y="-3"/>
      <point x="498" y="112"/>
      <point x="498" y="253" type="curve" smooth="yes"/>
      <point x="498" y="392"/>
      <point x="407" y="484"/>
      <point x="287" y="484" type="curve" smooth="yes"/>
      <point x="252" y="484"/>
      <point x="220" y="477"/>
      <point x="194" y="466" type="curve"/>
      <point x="204" y="560" type="line"/>
      <point x="425" y="560" type="line" smooth="yes"/>
      <point x="450" y="560"/>
      <point x="473" y="581"/>
      <point x="473" y="609" type="curve" smooth="yes"/>
      <point x="473" y="634"/>
      <point x="450" y="657"/>
      <point x="425" y="657" type="curve" smooth="yes"/>
      <point x="160" y="657" type="line" smooth="yes"/>
      <point x="136" y="657"/>
      <point x="114" y="638"/>
      <point x="112" y="614" type="curve" smooth="yes"/>
      <point x="88" y="375" type="line" smooth="yes"/>
      <point x="85" y="345"/>
      <point x="102" y="320"/>
      <point x="136" y="320" type="curve" smooth="yes"/>
      <point x="150" y="320"/>
      <point x="161" y="324"/>
      <point x="172" y="335" type="curve" smooth="yes"/>
      <point x="181" y="344"/>
      <point x="222" y="388"/>
      <point x="287" y="388" type="curve" smooth="yes"/>
      <point x="367" y="388"/>
      <point x="402" y="320"/>
      <point x="402" y="253" type="curve" smooth="yes"/>
      <point x="402" y="166"/>
      <point x="339" y="94"/>
      <point x="268" y="94" type="curve" smooth="yes"/>
      <point x="217" y="94"/>
      <point x="181" y="116"/>
      <point x="153" y="156" type="curve" smooth="yes"/>
      <point x="143" y="170"/>
      <point x="135" y="180"/>
      <point x="112" y="180" type="curve" smooth="yes"/>
      <point x="87" y="180"/>
      <point x="64" y="157"/>
      <point x="64" y="132" type="curve" smooth="yes"/>
      <point x="64" y="124"/>
      <point x="66" y="116"/>
      <point x="69" y="109" type="curve" smooth="yes"/>
    </contour>
  </outline>
</glyph>
<glyph name="six" format="1">
  <advance width="572"/>
  <unicode hex="0036"/>
  <outline>
    <contour>
      <point x="173" y="320"/>
      <point x="219" y="355"/>
      <point x="288" y="355" type="curve" smooth="yes"/>
      <point x="312" y="355"/>
      <point x="391" y="347"/>
      <point x="391" y="243" type="curve" smooth="yes"/>
      <point x="391" y="118"/>
      <point x="311" y="91"/>
      <point x="279" y="91" type="curve" smooth="yes"/>
      <point x="220" y="91"/>
      <point x="151" y="118"/>
      <point x="151" y="247" type="curve" smooth="yes"/>
      <point x="151" y="265"/>
      <point x="151" y="283"/>
      <point x="153" y="302" type="curve"/>
    </contour>
    <contour>
      <point x="375" y="582"/>
      <point x="386" y="598"/>
      <point x="386" y="618" type="curve" smooth="yes"/>
      <point x="386" y="644"/>
      <point x="366" y="664"/>
      <point x="340" y="664" type="curve" smooth="yes"/>
      <point x="330" y="664"/>
      <point x="322" y="661"/>
      <point x="313" y="657" type="curve"/>
      <point x="270" y="635"/>
      <point x="58" y="526"/>
      <point x="58" y="247" type="curve" smooth="yes"/>
      <point x="58" y="57"/>
      <point x="172" y="-3"/>
      <point x="279" y="-3" type="curve" smooth="yes"/>
      <point x="334" y="-3"/>
      <point x="484" y="40"/>
      <point x="484" y="243" type="curve" smooth="yes"/>
      <point x="484" y="378"/>
      <point x="396" y="449"/>
      <point x="288" y="449" type="curve" smooth="yes"/>
      <point x="254" y="449"/>
      <point x="224" y="443"/>
      <point x="199" y="434" type="curve"/>
      <point x="235" y="495"/>
      <point x="291" y="543"/>
      <point x="359" y="575" type="curve" smooth="yes"/>
    </contour>
  </outline>
</glyph>
<glyph name="seven" format="1">
  <advance width="527"/>
  <unicode hex="0037"/>
  <outline>
    <contour>
      <point x="171" y="1"/>
      <point x="189" y="8"/>
      <point x="198" y="27" type="curve" smooth="yes"/>
      <point x="479" y="584" type="line"/>
      <point x="482" y="591"/>
      <point x="484" y="599"/>
      <point x="484" y="605" type="curve" smooth="yes"/>
      <point x="484" y="632"/>
      <point x="463" y="654"/>
      <point x="436" y="654" type="curve" smooth="yes"/>
      <point x="109" y="654" type="line" smooth="yes"/>
      <point x="82" y="654"/>
      <point x="61" y="631"/>
      <point x="61" y="606" type="curve" smooth="yes"/>
      <point x="61" y="579"/>
      <point x="82" y="558"/>
      <point x="109" y="558" type="curve" smooth="yes"/>
      <point x="359" y="558" type="line"/>
      <point x="113" y="70" type="line"/>
      <point x="109" y="63"/>
      <point x="107" y="55"/>
      <point x="107" y="49" type="curve" smooth="yes"/>
      <point x="107" y="24"/>
      <point x="128" y="1"/>
      <point x="155" y="1" type="curve" smooth="yes"/>
    </contour>
  </outline>
</glyph>
<glyph name="eight" format="1">
  <advance width="573"/>
  <unicode hex="0038"/>
  <outline>
    <contour>
      <point x="393" y="-3"/>
      <point x="482" y="82"/>
      <point x="482" y="194" type="curve" smooth="yes"/>
      <point x="482" y="263"/>
      <point x="448" y="322"/>
      <point x="390" y="363" type="curve"/>
      <point x="432" y="392"/>
      <point x="467" y="435"/>
      <point x="467" y="501" type="curve" smooth="yes"/>
      <point x="467" y="600"/>
      <point x="391" y="669"/>
      <point x="283" y="669" type="curve" smooth="yes"/>
      <point x="181" y="669"/>
      <point x="93" y="600"/>
      <point x="93" y="486" type="curve" smooth="yes"/>
      <point x="93" y="422"/>
      <point x="122" y="384"/>
      <point x="164" y="357" type="curve"/>
      <point x="114" y="324"/>
      <point x="65" y="272"/>
      <point x="63" y="185" type="curve" smooth="yes"/>
      <point x="63" y="77"/>
      <point x="150" y="-3"/>
      <point x="273" y="-3" type="curve" smooth="yes"/>
    </contour>
    <contour>
      <point x="336" y="292"/>
      <point x="388" y="253"/>
      <point x="388" y="192" type="curve" smooth="yes"/>
      <point x="388" y="124"/>
      <point x="326" y="93"/>
      <point x="273" y="93" type="curve" smooth="yes"/>
      <point x="209" y="93"/>
      <point x="158" y="129"/>
      <point x="158" y="180" type="curve" smooth="yes"/>
      <point x="158" y="255"/>
      <point x="225" y="284"/>
      <point x="283" y="310" type="curve"/>
    </contour>
    <contour>
      <point x="332" y="572"/>
      <point x="372" y="547"/>
      <point x="372" y="506" type="curve" smooth="yes"/>
      <point x="372" y="472"/>
      <point x="353" y="442"/>
      <point x="277" y="411" type="curve"/>
      <point x="213" y="430"/>
      <point x="187" y="452"/>
      <point x="187" y="490" type="curve" smooth="yes"/>
      <point x="187" y="571"/>
      <point x="281" y="572"/>
      <point x="283" y="572" type="curve" smooth="yes"/>
    </contour>
  </outline>
</glyph>
<glyph name="colon" format="1">
  <advance width="261"/>
  <unicode hex="003A"/>
  <outline>
    <contour>
      <point x="139" y="0"/>
      <point x="167" y="29"/>
      <point x="167" y="65" type="curve" smooth="yes"/>
      <point x="167" y="96"/>
      <point x="145" y="121"/>
      <point x="116" y="121" type="curve" smooth="yes"/>
      <point x="85" y="121"/>
      <point x="57" y="90"/>
      <point x="57" y="57" type="curve" smooth="yes"/>
      <point x="57" y="25"/>
      <point x="77" y="0"/>
      <point x="108" y="0" type="curve" smooth="yes"/>
    </contour>
    <contour>
      <point x="166" y="325"/>
      <point x="194" y="354"/>
      <point x="194" y="391" type="curve" smooth="yes"/>
      <point x="194" y="422"/>
      <point x="171" y="446"/>
      <point x="142" y="446" type="curve" smooth="yes"/>
      <point x="111" y="446"/>
      <point x="83" y="415"/>
      <point x="83" y="382" type="curve" smooth="yes"/>
      <point x="83" y="351"/>
      <point x="104" y="325"/>
      <point x="135" y="325" type="curve" smooth="yes"/>
    </contour>
  </outline>
</glyph>
<glyph name="equal" format="1">
  <advance width="519"/>
  <unicode hex="003D"/>
  <outline>
    <contour>
      <point x="379" y="292" type="line" smooth="yes"/>
      <point x="404" y="292"/>
      <point x="427" y="313"/>
      <point x="427" y="339" type="curve" smooth="yes"/>
      <point x="427" y="364"/>
      <point x="404" y="387"/>
      <point x="379" y="387" type="curve" smooth="yes"/>
      <point x="119" y="387" type="line" smooth="yes"/>
      <point x="92" y="387"/>
      <point x="72" y="364"/>
      <point x="72" y="339" type="curve" smooth="yes"/>
      <point x="72" y="313"/>
      <point x="92" y="292"/>
      <point x="119" y="292" type="curve" smooth="yes"/>
    </contour>
    <contour>
      <point x="379" y="112" type="line" smooth="yes"/>
      <point x="404" y="112"/>
      <point x="427" y="133"/>
      <point x="427" y="159" type="curve" smooth="yes"/>
      <point x="427" y="184"/>
      <point x="404" y="207"/>
      <point x="379" y="207" type="curve" smooth="yes"/>
      <point x="119" y="207" type="line" smooth="yes"/>
      <point x="92" y="207"/>
      <point x="72" y="184"/>
      <point x="72" y="159" type="curve" smooth="yes"/>
      <point x="72" y="133"/>
      <point x="92" y="112"/>
      <point x="119" y="112" type="curve" smooth="yes"/>
    </contour>
  </outline>
</glyph>
<glyph name="C" format="1">
  <advance width="658"/>
  <unicode hex="0043"/>
  <outline>
    <contour>
      <point x="586" y="127"/>
      <point x="588" y="137"/>
      <point x="588" y="147" type="curve" smooth="yes"/>
      <point x="588" y="179"/>
      <point x="564" y="197"/>
      <point x="538" y="197" type="curve" smooth="yes"/>
      <point x="523" y="197"/>
      <point x="511" y="193"/>
      <point x="499" y="177" type="curve" smooth="yes"/>
      <point x="455" y="119"/>
      <point x="399" y="98"/>
      <point x="339" y="98" type="curve" smooth="yes"/>
      <point x="264" y="98"/>
      <point x="147" y="156"/>
      <point x="147" y="299" type="curve" smooth="yes"/>
      <point x="147" y="441"/>
      <point x="253" y="584"/>
      <point x="346" y="584" type="curve" smooth="yes"/>
      <point x="408" y="584"/>
      <point x="437" y="564"/>
      <point x="455" y="547" type="curve"/>
      <point x="457" y="521"/>
      <point x="478" y="501"/>
      <point x="505" y="501" type="curve" smooth="yes"/>
      <point x="533" y="501"/>
      <point x="555" y="524"/>
      <point x="555" y="551" type="curve" smooth="yes"/>
      <point x="555" y="611" type="line" smooth="yes"/>
      <point x="555" y="639"/>
      <point x="533" y="660"/>
      <point x="505" y="660" type="curve" smooth="yes"/>
      <point x="495" y="660"/>
      <point x="488" y="659"/>
      <point x="479" y="653" type="curve"/>
      <point x="449" y="669"/>
      <point x="404" y="684"/>
      <point x="346" y="684" type="curve" smooth="yes"/>
      <point x="206" y="684"/>
      <point x="47" y="501"/>
      <point x="47" y="299" type="curve" smooth="yes"/>
      <point x="47" y="128"/>
      <point x="179" y="-2"/>
      <point x="339" y="-2" type="curve" smooth="yes"/>
      <point x="436" y="-2"/>
      <point x="521" y="41"/>
      <point x="579" y="117" type="curve"/>
    </contour>
  </outline>
</glyph>
<glyph name="D" format="1">
  <advance width="646"/>
  <unicode hex="0044"/>
  <outline>
    <contour>
      <point x="412" y="-19"/>
      <point x="569" y="79"/>
      <point x="569" y="303" type="curve" smooth="yes"/>
      <point x="569" y="626"/>
      <point x="271" y="681"/>
      <point x="111" y="681" type="curve" smooth="yes"/>
      <point x="83" y="681"/>
      <point x="61" y="660"/>
      <point x="61" y="632" type="curve" smooth="yes"/>
      <point x="61" y="47" type="line" smooth="yes"/>
      <point x="61" y="25"/>
      <point x="78" y="4"/>
      <point x="99" y="-2" type="curve"/>
      <point x="108" y="-5"/>
      <point x="164" y="-19"/>
      <point x="219" y="-19" type="curve" smooth="yes"/>
    </contour>
    <contour>
      <point x="161" y="579" type="line"/>
      <point x="328" y="566"/>
      <point x="469" y="494"/>
      <point x="469" y="303" type="curve" smooth="yes"/>
      <point x="469" y="154"/>
      <point x="371" y="81"/>
      <point x="219" y="81" type="curve" smooth="yes"/>
      <point x="199" y="81"/>
      <point x="178" y="84"/>
      <point x="161" y="87" type="curve"/>
    </contour>
  </outline>
</glyph>
<glyph name="E" format="1">
  <advance width="636"/>
  <unicode hex="0045"/>
  <outline>
    <contour>
      <point x="160" y="100" type="line"/>
      <point x="160" y="302" type="line"/>
      <point x="464" y="302" type="line" smooth="yes"/>
      <point x="492" y="302"/>
      <point x="513" y="324"/>
      <point x="513" y="352" type="curve" smooth="yes"/>
      <point x="513" y="380"/>
      <point x="492" y="401"/>
      <point x="464" y="401" type="curve" smooth="yes"/>
      <point x="160" y="401" type="line"/>
      <point x="160" y="582" type="line"/>
      <point x="510" y="582" type="line" smooth="yes"/>
      <point x="538" y="582"/>
      <point x="559" y="605"/>
      <point x="559" y="632" type="curve" smooth="yes"/>
      <point x="559" y="660"/>
      <point x="538" y="682"/>
      <point x="510" y="682" type="curve" smooth="yes"/>
      <point x="111" y="682" type="line" smooth="yes"/>
      <point x="83" y="682"/>
      <point x="61" y="660"/>
      <point x="61" y="632" type="curve" smooth="yes"/>
      <point x="61" y="50" type="line" smooth="yes"/>
      <point x="61" y="22"/>
      <point x="83" y="0"/>
      <point x="111" y="0" type="curve" smooth="yes"/>
      <point x="508" y="0" type="line" smooth="yes"/>
      <point x="536" y="0"/>
      <point x="557" y="22"/>
      <point x="557" y="50" type="curve" smooth="yes"/>
      <point x="557" y="78"/>
      <point x="536" y="100"/>
      <point x="508" y="100" type="curve" smooth="yes"/>
    </contour>
  </outline>
</glyph>
<glyph name="I" format="1">
  <advance width="459"/>
  <unicode hex="0049"/>
  <outline>
    <contour>
      <point x="273" y="99" type="line"/>
      <point x="273" y="581" type="line"/>
      <point x="342" y="581" type="line" smooth="yes"/>
      <point x="370" y="581"/>
      <point x="391" y="604"/>
      <point x="391" y="632" type="curve" smooth="yes"/>
      <point x="391" y="660"/>
      <point x="370" y="681"/>
      <point x="342" y="681" type="curve" smooth="yes"/>
      <point x="103" y="681" type="line" smooth="yes"/>
      <point x="75" y="681"/>
      <point x="53" y="660"/>
      <point x="53" y="632" type="curve" smooth="yes"/>
      <point x="53" y="604"/>
      <point x="75" y="581"/>
      <point x="103" y="581" type="curve" smooth="yes"/>
      <point x="173" y="581" type="line"/>
      <point x="173" y="99" type="line"/>
      <point x="103" y="99" type="line" smooth="yes"/>
      <point x="75" y="99"/>
      <point x="53" y="77"/>
      <point x="53" y="49" type="curve" smooth="yes"/>
      <point x="53" y="21"/>
      <point x="75" y="-1"/>
      <point x="103" y="-1" type="curve" smooth="yes"/>
      <point x="342" y="-1" type="line" smooth="yes"/>
      <point x="370" y="-1"/>
      <point x="391" y="21"/>
      <point x="391" y="49" type="curve" smooth="yes"/>
      <point x="391" y="77"/>
      <point x="372" y="99"/>
      <point x="342" y="99" type="curve" smooth="yes"/>
    </contour>
  </outline>
</glyph>
<glyph name="J" format="1">
  <advance width="498"/>
  <unicode hex="004A"/>
  <outline>
    <contour>
      <point x="226" y="677" type="line" smooth="yes"/>
      <point x="198" y="677"/>
      <point x="175" y="654"/>
      <point x="175" y="628" type="curve" smooth="yes"/>
      <point x="175" y="600"/>
      <point x="198" y="578"/>
      <point x="226" y="578" type="curve" smooth="yes"/>
      <point x="317" y="578" type="line"/>
      <point x="317" y="171" type="line" smooth="yes"/>
      <point x="317" y="150"/>
      <point x="308" y="100"/>
      <point x="234" y="100" type="curve" smooth="yes"/>
      <point x="181" y="100"/>
      <point x="145" y="124"/>
      <point x="145" y="183" type="curve" smooth="yes"/>
      <point x="145" y="211"/>
      <point x="123" y="233"/>
      <point x="95" y="233" type="curve" smooth="yes"/>
      <point x="64" y="233"/>
      <point x="45" y="210"/>
      <point x="45" y="181" type="curve" smooth="yes"/>
      <point x="45" y="137"/>
      <point x="67" y="0"/>
      <point x="234" y="0" type="curve" smooth="yes"/>
      <point x="368" y="0"/>
      <point x="417" y="93"/>
      <point x="417" y="171" type="curve" smooth="yes"/>
      <point x="417" y="578" type="line"/>
      <point x="443" y="578"/>
      <point x="466" y="600"/>
      <point x="466" y="628" type="curve" smooth="yes"/>
      <point x="466" y="654"/>
      <point x="443" y="677"/>
      <point x="417" y="677" type="curve" smooth="yes"/>
    </contour>
  </outline>
</glyph>
<glyph name="M" format="1">
  <advance width="883"/>
  <unicode hex="004D"/>
  <outline>
    <contour>
      <point x="670" y="642" type="line" smooth="yes"/>
      <point x="665" y="665"/>
      <point x="650" y="681"/>
      <point x="626" y="681" type="curve" smooth="yes"/>
      <point x="601" y="681"/>
      <point x="584" y="671"/>
      <point x="576" y="649" type="curve" smooth="yes"/>
      <point x="416" y="204" type="line"/>
      <point x="275" y="647" type="line" smooth="yes"/>
      <point x="268" y="668"/>
      <point x="253" y="681"/>
      <point x="229" y="681" type="curve" smooth="yes"/>
      <point x="205" y="681"/>
      <point x="185" y="667"/>
      <point x="180" y="642" type="curve" smooth="yes"/>
      <point x="56" y="75" type="line" smooth="yes"/>
      <point x="52" y="58"/>
      <point x="52" y="47"/>
      <point x="52" y="42" type="curve" smooth="yes"/>
      <point x="52" y="23"/>
      <point x="67" y="0"/>
      <point x="99" y="0" type="curve" smooth="yes"/>
      <point x="126" y="0"/>
      <point x="143" y="15"/>
      <point x="148" y="39" type="curve" smooth="yes"/>
      <point x="236" y="441" type="line"/>
      <point x="366" y="34" type="line" smooth="yes"/>
      <point x="374" y="10"/>
      <point x="392" y="0"/>
      <point x="412" y="0" type="curve" smooth="yes"/>
      <point x="434" y="0"/>
      <point x="452" y="12"/>
      <point x="459" y="32" type="curve" smooth="yes"/>
      <point x="613" y="456" type="line"/>
      <point x="705" y="38" type="line" smooth="yes"/>
      <point x="710" y="16"/>
      <point x="727" y="0"/>
      <point x="753" y="0" type="curve" smooth="yes"/>
      <point x="782" y="0"/>
      <point x="802" y="22"/>
      <point x="802" y="46" type="curve" smooth="yes"/>
      <point x="802" y="53"/>
      <point x="800" y="62"/>
      <point x="797" y="76" type="curve" smooth="yes"/>
    </contour>
  </outline>
</glyph>
<glyph name="P" format="1">
  <advance width="573"/>
  <unicode hex="0050"/>
  <outline>
    <contour>
      <point x="138" y="0"/>
      <point x="159" y="21"/>
      <point x="159" y="49" type="curve" smooth="yes"/>
      <point x="159" y="223" type="line"/>
      <point x="301" y="228"/>
      <point x="528" y="286"/>
      <point x="528" y="468" type="curve" smooth="yes"/>
      <point x="528" y="605"/>
      <point x="408" y="682"/>
      <point x="157" y="682" type="curve" smooth="yes"/>
      <point x="63" y="682"/>
      <point x="60" y="665"/>
      <point x="60" y="620" type="curve" smooth="yes"/>
      <point x="60" y="49" type="line" smooth="yes"/>
      <point x="60" y="21"/>
      <point x="84" y="0"/>
      <point x="110" y="0" type="curve" smooth="yes"/>
    </contour>
    <contour>
      <point x="159" y="583" type="line"/>
      <point x="173" y="583" type="line" smooth="yes"/>
      <point x="337" y="583"/>
      <point x="429" y="542"/>
      <point x="429" y="468" type="curve" smooth="yes"/>
      <point x="429" y="355"/>
      <point x="248" y="326"/>
      <point x="159" y="321" type="curve"/>
    </contour>
  </outline>
</glyph>
<glyph name="Q" format="1">
  <advance width="740"/>
  <unicode hex="0051"/>
  <outline>
    <contour>
      <point x="573" y="114" type="line"/>
      <point x="632" y="180"/>
      <point x="665" y="266"/>
      <point x="665" y="364" type="curve" smooth="yes"/>
      <point x="665" y="536"/>
      <point x="544" y="680"/>
      <point x="379" y="680" type="curve" smooth="yes"/>
      <point x="203" y="680"/>
      <point x="49" y="513"/>
      <point x="49" y="313" type="curve" smooth="yes"/>
      <point x="49" y="143"/>
      <point x="169" y="-2"/>
      <point x="335" y="-2" type="curve" smooth="yes"/>
      <point x="393" y="-2"/>
      <point x="448" y="16"/>
      <point x="497" y="48" type="curve"/>
      <point x="590" y="-15" type="line"/>
      <point x="598" y="-20"/>
      <point x="607" y="-22"/>
      <point x="617" y="-22" type="curve" smooth="yes"/>
      <point x="641" y="-22"/>
      <point x="666" y="-5"/>
      <point x="666" y="26" type="curve" smooth="yes"/>
      <point x="666" y="42"/>
      <point x="661" y="58"/>
      <point x="645" y="68" type="curve" smooth="yes"/>
    </contour>
    <contour>
      <point x="403" y="108" type="line"/>
      <point x="382" y="100"/>
      <point x="359" y="95"/>
      <point x="335" y="95" type="curve" smooth="yes"/>
      <point x="229" y="95"/>
      <point x="152" y="193"/>
      <point x="152" y="317" type="curve" smooth="yes"/>
      <point x="152" y="464"/>
      <point x="256" y="583"/>
      <point x="372" y="583" type="curve" smooth="yes"/>
      <point x="482" y="583"/>
      <point x="562" y="474"/>
      <point x="562" y="361" type="curve" smooth="yes"/>
      <point x="562" y="288"/>
      <point x="532" y="219"/>
      <point x="489" y="170" type="curve"/>
      <point x="421" y="215" type="line" smooth="yes"/>
      <point x="411" y="222"/>
      <point x="400" y="225"/>
      <point x="389" y="225" type="curve" smooth="yes"/>
      <point x="364" y="225"/>
      <point x="341" y="204"/>
      <point x="341" y="176" type="curve" smooth="yes"/>
      <point x="341" y="160"/>
      <point x="344" y="148"/>
      <point x="363" y="135" type="curve" smooth="yes"/>
    </contour>
  </outline>
</glyph>
<glyph name="W" format="1">
  <advance width="893"/>
  <unicode hex="0057"/>
  <outline>
    <contour>
      <point x="595" y="214" type="line"/>
      <point x="476" y="646" type="line" smooth="yes"/>
      <point x="469" y="670"/>
      <point x="452" y="681"/>
      <point x="430" y="681" type="curve" smooth="yes"/>
      <point x="407" y="681"/>
      <point x="390" y="671"/>
      <point x="382" y="647" type="curve" smooth="yes"/>
      <point x="242" y="215" type="line"/>
      <point x="111" y="646" type="line" smooth="yes"/>
      <point x="104" y="668"/>
      <point x="87" y="681"/>
      <point x="63" y="681" type="curve" smooth="yes"/>
      <point x="36" y="681"/>
      <point x="15" y="662"/>
      <point x="15" y="637" type="curve" smooth="yes"/>
      <point x="15" y="629"/>
      <point x="15" y="623"/>
      <point x="20" y="605" type="curve" smooth="yes"/>
      <point x="194" y="34" type="line" smooth="yes"/>
      <point x="201" y="12"/>
      <point x="215" y="0"/>
      <point x="240" y="0" type="curve" smooth="yes"/>
      <point x="263" y="0"/>
      <point x="279" y="7"/>
      <point x="288" y="34" type="curve" smooth="yes"/>
      <point x="425" y="458" type="line"/>
      <point x="542" y="36" type="line" smooth="yes"/>
      <point x="548" y="13"/>
      <point x="564" y="0"/>
      <point x="590" y="0" type="curve" smooth="yes"/>
      <point x="611" y="0"/>
      <point x="628" y="12"/>
      <point x="635" y="32" type="curve" smooth="yes"/>
      <point x="846" y="616" type="line" smooth="yes"/>
      <point x="851" y="631"/>
      <point x="851" y="640"/>
      <point x="851" y="648" type="curve" smooth="yes"/>
      <point x="851" y="673"/>
      <point x="830" y="692"/>
      <point x="803" y="692" type="curve" smooth="yes"/>
      <point x="779" y="692"/>
      <point x="763" y="679"/>
      <point x="755" y="657" type="curve" smooth="yes"/>
    </contour>
  </outline>
</glyph>
<glyph name="X" format="1">
  <advance width="707"/>
  <unicode hex="0058"/>
  <outline>
    <contour>
      <point x="410" y="345" type="line"/>
      <point x="624" y="600" type="line"/>
      <point x="630" y="608"/>
      <point x="636" y="620"/>
      <point x="636" y="632" type="curve" smooth="yes"/>
      <point x="636" y="658"/>
      <point x="612" y="681"/>
      <point x="586" y="681" type="curve" smooth="yes"/>
      <point x="572" y="681"/>
      <point x="558" y="675"/>
      <point x="548" y="663" type="curve" smooth="yes"/>
      <point x="347" y="424" type="line"/>
      <point x="156" y="663" type="line" smooth="yes"/>
      <point x="146" y="675"/>
      <point x="132" y="681"/>
      <point x="118" y="681" type="curve" smooth="yes"/>
      <point x="92" y="681"/>
      <point x="67" y="660"/>
      <point x="67" y="632" type="curve" smooth="yes"/>
      <point x="67" y="619"/>
      <point x="73" y="609"/>
      <point x="79" y="601" type="curve" smooth="yes"/>
      <point x="282" y="346" type="line"/>
      <point x="59" y="81" type="line" smooth="yes"/>
      <point x="53" y="74"/>
      <point x="48" y="61"/>
      <point x="48" y="49" type="curve" smooth="yes"/>
      <point x="48" y="24"/>
      <point x="68" y="0"/>
      <point x="98" y="0" type="curve" smooth="yes"/>
      <point x="112" y="0"/>
      <point x="123" y="4"/>
      <point x="135" y="18" type="curve" smooth="yes"/>
      <point x="344" y="266" type="line"/>
      <point x="543" y="18" type="line" smooth="yes"/>
      <point x="553" y="6"/>
      <point x="567" y="0"/>
      <point x="582" y="0" type="curve" smooth="yes"/>
      <point x="609" y="0"/>
      <point x="630" y="23"/>
      <point x="630" y="49" type="curve" smooth="yes"/>
      <point x="630" y="60"/>
      <point x="629" y="69"/>
      <point x="621" y="79" type="curve" smooth="yes"/>
    </contour>
  </outline>
</glyph>
<glyph name="asciicircum" format="1">
  <advance width="526"/>
  <unicode hex="005E"/>
  <outline>
    <contour>
      <point x="100" y="431" type="line" smooth="yes"/>
      <point x="95" y="422"/>
      <point x="93" y="414"/>
      <point x="93" y="406" type="curve" smooth="yes"/>
      <point x="93" y="380"/>
      <point x="113" y="359"/>
      <point x="140" y="359" type="curve" smooth="yes"/>
      <point x="158" y="359"/>
      <point x="173" y="366"/>
      <point x="182" y="384" type="curve" smooth="yes"/>
      <point x="259" y="541" type="line"/>
      <point x="321" y="384" type="line" smooth="yes"/>
      <point x="329" y="364"/>
      <point x="345" y="359"/>
      <point x="362" y="359" type="curve" smooth="yes"/>
      <point x="389" y="359"/>
      <point x="410" y="380"/>
      <point x="410" y="406" type="curve" smooth="yes"/>
      <point x="410" y="412"/>
      <point x="408" y="421"/>
      <point x="403" y="431" type="curve" smooth="yes"/>
      <point x="310" y="615" type="line" smooth="yes"/>
      <point x="297" y="640"/>
      <point x="282" y="648"/>
      <point x="261" y="648" type="curve" smooth="yes"/>
      <point x="239" y="648"/>
      <point x="222" y="636"/>
      <point x="212" y="619" type="curve" smooth="yes"/>
    </contour>
  </outline>
</glyph>
<glyph name="b" format="1">
  <advance width="550"/>
  <unicode hex="0062"/>
  <outline>
    <contour>
      <point x="245" y="491"/>
      <point x="198" y="476"/>
      <point x="157" y="446" type="curve"/>
      <point x="157" y="627" type="line" smooth="yes"/>
      <point x="157" y="654"/>
      <point x="134" y="672"/>
      <point x="110" y="672" type="curve" smooth="yes"/>
      <point x="84" y="672"/>
      <point x="62" y="654"/>
      <point x="62" y="627" type="curve" smooth="yes"/>
      <point x="62" y="46" type="line" smooth="yes"/>
      <point x="62" y="22"/>
      <point x="82" y="1"/>
      <point x="108" y="1" type="curve" smooth="yes"/>
      <point x="125" y="1"/>
      <point x="143" y="11"/>
      <point x="151" y="24" type="curve"/>
      <point x="181" y="15"/>
      <point x="221" y="6"/>
      <point x="259" y="6" type="curve" smooth="yes"/>
      <point x="415" y="6"/>
      <point x="479" y="124"/>
      <point x="479" y="269" type="curve" smooth="yes"/>
      <point x="479" y="373"/>
      <point x="430" y="491"/>
      <point x="298" y="491" type="curve" smooth="yes"/>
    </contour>
    <contour>
      <point x="215" y="100"/>
      <point x="178" y="110"/>
      <point x="157" y="117" type="curve"/>
      <point x="157" y="290" type="line" smooth="yes"/>
      <point x="157" y="348"/>
      <point x="219" y="395"/>
      <point x="301" y="395" type="curve" smooth="yes"/>
      <point x="367" y="395"/>
      <point x="385" y="322"/>
      <point x="385" y="269" type="curve" smooth="yes"/>
      <point x="385" y="167"/>
      <point x="350" y="100"/>
      <point x="252" y="100" type="curve" smooth="yes"/>
    </contour>
  </outline>
</glyph>
<glyph name="c" format="1">
  <advance width="535"/>
  <unicode hex="0063"/>
  <outline>
    <contour>
      <point x="352" y="117"/>
      <point x="320" y="93"/>
      <point x="263" y="93" type="curve" smooth="yes"/>
      <point x="229" y="93"/>
      <point x="141" y="122"/>
      <point x="141" y="221" type="curve" smooth="yes"/>
      <point x="141" y="243"/>
      <point x="146" y="272"/>
      <point x="157" y="302" type="curve"/>
      <point x="176" y="346"/>
      <point x="224" y="407"/>
      <point x="274" y="407" type="curve" smooth="yes"/>
      <point x="312" y="407"/>
      <point x="334" y="389"/>
      <point x="358" y="361" type="curve" smooth="yes"/>
      <point x="364" y="354"/>
      <point x="372" y="349"/>
      <point x="389" y="349" type="curve" smooth="yes"/>
      <point x="415" y="349"/>
      <point x="437" y="370"/>
      <point x="437" y="396" type="curve" smooth="yes"/>
      <point x="437" y="408"/>
      <point x="433" y="419"/>
      <point x="424" y="430" type="curve" smooth="yes"/>
      <point x="384" y="476"/>
      <point x="347" y="500"/>
      <point x="272" y="500" type="curve" smooth="yes"/>
      <point x="173" y="500"/>
      <point x="96" y="401"/>
      <point x="71" y="335" type="curve" smooth="yes"/>
      <point x="61" y="310"/>
      <point x="47" y="266"/>
      <point x="47" y="219" type="curve" smooth="yes"/>
      <point x="47" y="91"/>
      <point x="155" y="0"/>
      <point x="275" y="0" type="curve" smooth="yes"/>
      <point x="349" y="0"/>
      <point x="418" y="47"/>
      <point x="453" y="94" type="curve" smooth="yes"/>
      <point x="459" y="102"/>
      <point x="464" y="112"/>
      <point x="464" y="124" type="curve" smooth="yes"/>
      <point x="464" y="151"/>
      <point x="443" y="172"/>
      <point x="417" y="172" type="curve" smooth="yes"/>
      <point x="394" y="172"/>
      <point x="381" y="156"/>
      <point x="374" y="147" type="curve" smooth="yes"/>
    </contour>
  </outline>
</glyph>
<glyph name="d" format="1">
  <advance width="556"/>
  <unicode hex="0064"/>
  <outline>
    <contour>
      <point x="470" y="628" type="line" smooth="yes"/>
      <point x="471" y="655"/>
      <point x="447" y="679"/>
      <point x="422" y="679" type="curve" smooth="yes"/>
      <point x="395" y="679"/>
      <point x="374" y="657"/>
      <point x="373" y="630" type="curve" smooth="yes"/>
      <point x="368" y="481" type="line"/>
      <point x="340" y="490"/>
      <point x="304" y="498"/>
      <point x="266" y="498" type="curve" smooth="yes"/>
      <point x="108" y="498"/>
      <point x="48" y="369"/>
      <point x="48" y="228" type="curve" smooth="yes"/>
      <point x="48" y="117"/>
      <point x="105" y="4"/>
      <point x="227" y="4" type="curve" smooth="yes"/>
      <point x="282" y="4"/>
      <point x="326" y="23"/>
      <point x="359" y="45" type="curve"/>
      <point x="361" y="22"/>
      <point x="378" y="0"/>
      <point x="407" y="0" type="curve" smooth="yes"/>
      <point x="434" y="0"/>
      <point x="455" y="20"/>
      <point x="456" y="46" type="curve" smooth="yes"/>
    </contour>
    <contour>
      <point x="144" y="301"/>
      <point x="163" y="403"/>
      <point x="267" y="403" type="curve" smooth="yes"/>
      <point x="304" y="403"/>
      <point x="345" y="387"/>
      <point x="367" y="377" type="curve"/>
      <point x="363" y="170" type="line" smooth="yes"/>
      <point x="363" y="148"/>
      <point x="308" y="94"/>
      <point x="227" y="94" type="curve" smooth="yes"/>
      <point x="162" y="94"/>
      <point x="144" y="174"/>
      <point x="144" y="231" type="curve" smooth="yes"/>
    </contour>
  </outline>
</glyph>
<glyph name="h" format="1">
  <advance width="529"/>
  <unicode hex="0068"/>
  <outline>
    <contour>
      <point x="459" y="73"/>
      <point x="459" y="109"/>
      <point x="459" y="170" type="curve" smooth="yes"/>
      <point x="459" y="391"/>
      <point x="424" y="501"/>
      <point x="316" y="501" type="curve" smooth="yes"/>
      <point x="257" y="501"/>
      <point x="199" y="461"/>
      <point x="157" y="408" type="curve"/>
      <point x="157" y="623" type="line" smooth="yes"/>
      <point x="157" y="649"/>
      <point x="138" y="672"/>
      <point x="109" y="672" type="curve" smooth="yes"/>
      <point x="82" y="672"/>
      <point x="61" y="649"/>
      <point x="61" y="623" type="curve" smooth="yes"/>
      <point x="61" y="47" type="line" smooth="yes"/>
      <point x="61" y="22"/>
      <point x="84" y="-1"/>
      <point x="109" y="-1" type="curve" smooth="yes"/>
      <point x="135" y="-1"/>
      <point x="157" y="17"/>
      <point x="157" y="49" type="curve" smooth="yes"/>
      <point x="157" y="198" type="line" smooth="yes"/>
      <point x="157" y="225"/>
      <point x="160" y="249"/>
      <point x="169" y="269" type="curve"/>
      <point x="183" y="297"/>
      <point x="245" y="406"/>
      <point x="310" y="406" type="curve" smooth="yes"/>
      <point x="333" y="406"/>
      <point x="364" y="380"/>
      <point x="364" y="163" type="curve" smooth="yes"/>
      <point x="364" y="100"/>
      <point x="362" y="73"/>
      <point x="362" y="47" type="curve" smooth="yes"/>
      <point x="362" y="21"/>
      <point x="380" y="0"/>
      <point x="409" y="0" type="curve" smooth="yes"/>
      <point x="435" y="0"/>
      <point x="455" y="20"/>
      <point x="456" y="45" type="curve"/>
    </contour>
  </outline>
</glyph>
<glyph name="l" format="1">
  <advance width="252"/>
  <unicode hex="006C"/>
  <outline>
    <contour>
      <point x="170" y="625" type="line" smooth="yes"/>
      <point x="170" y="651"/>
      <point x="147" y="672"/>
      <point x="122" y="672" type="curve" smooth="yes"/>
      <point x="94" y="672"/>
      <point x="74" y="651"/>
      <point x="74" y="625" type="curve" smooth="yes"/>
      <point x="74" y="45" type="line" smooth="yes"/>
      <point x="74" y="20"/>
      <point x="97" y="0"/>
      <point x="122" y="0" type="curve" smooth="yes"/>
      <point x="145" y="0"/>
      <point x="170" y="20"/>
      <point x="170" y="45" type="curve" smooth="yes"/>
    </contour>
  </outline>
</glyph>
<glyph name="m" format="1">
  <advance width="839"/>
  <unicode hex="006D"/>
  <outline>
    <contour>
      <point x="541" y="510"/>
      <point x="485" y="481"/>
      <point x="439" y="432" type="curve"/>
      <point x="411" y="492"/>
      <point x="360" y="510"/>
      <point x="315" y="510" type="curve" smooth="yes"/>
      <point x="261" y="510"/>
      <point x="209" y="469"/>
      <point x="164" y="417" type="curve"/>
      <point x="164" y="451" type="line" smooth="yes"/>
      <point x="164" y="476"/>
      <point x="143" y="499"/>
      <point x="116" y="499" type="curve" smooth="yes"/>
      <point x="91" y="499"/>
      <point x="68" y="476"/>
      <point x="68" y="451" type="curve" smooth="yes"/>
      <point x="68" y="47" type="line" smooth="yes"/>
      <point x="68" y="21"/>
      <point x="91" y="0"/>
      <point x="116" y="0" type="curve" smooth="yes"/>
      <point x="142" y="0"/>
      <point x="164" y="21"/>
      <point x="164" y="47" type="curve" smooth="yes"/>
      <point x="164" y="253" type="line" smooth="yes"/>
      <point x="164" y="275"/>
      <point x="166" y="282"/>
      <point x="171" y="290" type="curve" smooth="yes"/>
      <point x="226" y="378"/>
      <point x="283" y="420"/>
      <point x="315" y="420" type="curve" smooth="yes"/>
      <point x="336" y="420"/>
      <point x="364" y="411"/>
      <point x="364" y="326" type="curve" smooth="yes"/>
      <point x="364" y="47" type="line" smooth="yes"/>
      <point x="364" y="21"/>
      <point x="387" y="0"/>
      <point x="412" y="0" type="curve" smooth="yes"/>
      <point x="439" y="0"/>
      <point x="460" y="21"/>
      <point x="460" y="47" type="curve" smooth="yes"/>
      <point x="460" y="270" type="line" smooth="yes"/>
      <point x="460" y="358"/>
      <point x="545" y="420"/>
      <point x="588" y="420" type="curve" smooth="yes"/>
      <point x="608" y="420"/>
      <point x="638" y="411"/>
      <point x="638" y="326" type="curve" smooth="yes"/>
      <point x="638" y="47" type="line" smooth="yes"/>
      <point x="638" y="21"/>
      <point x="660" y="0"/>
      <point x="686" y="0" type="curve" smooth="yes"/>
      <point x="711" y="0"/>
      <point x="734" y="21"/>
      <point x="734" y="47" type="curve" smooth="yes"/>
      <point x="734" y="320" type="line" smooth="yes"/>
      <point x="734" y="477"/>
      <point x="654" y="510"/>
      <point x="588" y="510" type="curve" smooth="yes"/>
    </contour>
  </outline>
</glyph>
<glyph name="n" format="1">
  <advance width="561"/>
  <unicode hex="006E"/>
  <outline>
    <contour>
      <point x="158" y="452" type="line" smooth="yes"/>
      <point x="158" y="479"/>
      <point x="137" y="500"/>
      <point x="112" y="500" type="curve" smooth="yes"/>
      <point x="86" y="500"/>
      <point x="62" y="479"/>
      <point x="62" y="452" type="curve" smooth="yes"/>
      <point x="62" y="46" type="line" smooth="yes"/>
      <point x="62" y="22"/>
      <point x="84" y="0"/>
      <point x="110" y="0" type="curve" smooth="yes"/>
      <point x="140" y="0"/>
      <point x="157" y="22"/>
      <point x="157" y="50" type="curve" smooth="yes"/>
      <point x="157" y="134" type="line" smooth="yes"/>
      <point x="157" y="194"/>
      <point x="175" y="254"/>
      <point x="204" y="308" type="curve" smooth="yes"/>
      <point x="247" y="387"/>
      <point x="287" y="404"/>
      <point x="319" y="404" type="curve" smooth="yes"/>
      <point x="351" y="404"/>
      <point x="380" y="398"/>
      <point x="380" y="178" type="curve" smooth="yes"/>
      <point x="380" y="47" type="line" smooth="yes"/>
      <point x="380" y="23"/>
      <point x="402" y="0"/>
      <point x="428" y="0" type="curve" smooth="yes"/>
      <point x="455" y="0"/>
      <point x="474" y="23"/>
      <point x="474" y="48" type="curve" smooth="yes"/>
      <point x="475" y="161" type="line" smooth="yes"/>
      <point x="477" y="392"/>
      <point x="456" y="499"/>
      <point x="323" y="499" type="curve" smooth="yes"/>
      <point x="255" y="499"/>
      <point x="196" y="451"/>
      <point x="158" y="395" type="curve"/>
    </contour>
  </outline>
</glyph>
<glyph name="o" format="1">
  <advance width="561"/>
  <unicode hex="006F"/>
  <outline>
    <contour>
      <point x="381" y="0"/>
      <point x="489" y="122"/>
      <point x="489" y="268" type="curve" smooth="yes"/>
      <point x="489" y="392"/>
      <point x="399" y="500"/>
      <point x="282" y="500" type="curve" smooth="yes"/>
      <point x="155" y="500"/>
      <point x="48" y="377"/>
      <point x="48" y="232" type="curve" smooth="yes"/>
      <point x="48" y="104"/>
      <point x="137" y="0"/>
      <point x="254" y="0" type="curve" smooth="yes"/>
    </contour>
    <contour>
      <point x="340" y="411"/>
      <point x="390" y="342"/>
      <point x="390" y="263" type="curve" smooth="yes"/>
      <point x="390" y="170"/>
      <point x="325" y="89"/>
      <point x="254" y="89" type="curve" smooth="yes"/>
      <point x="189" y="89"/>
      <point x="145" y="155"/>
      <point x="145" y="233" type="curve" smooth="yes"/>
      <point x="145" y="328"/>
      <point x="206" y="411"/>
      <point x="278" y="411" type="curve" smooth="yes"/>
    </contour>
  </outline>
</glyph>
<glyph name="t" format="1">
  <advance width="413"/>
  <unicode hex="0074"/>
  <outline>
    <contour>
      <point x="245" y="500" type="line"/>
      <point x="245" y="607" type="line" smooth="yes"/>
      <point x="245" y="632"/>
      <point x="226" y="656"/>
      <point x="197" y="656" type="curve" smooth="yes"/>
      <point x="170" y="656"/>
      <point x="149" y="632"/>
      <point x="149" y="607" type="curve" smooth="yes"/>
      <point x="149" y="500" type="line"/>
      <point x="67" y="500" type="line" smooth="yes"/>
      <point x="41" y="500"/>
      <point x="17" y="481"/>
      <point x="17" y="451" type="curve" smooth="yes"/>
      <point x="17" y="426"/>
      <point x="38" y="403"/>
      <point x="65" y="403" type="curve" smooth="yes"/>
      <point x="149" y="403" type="line"/>
      <point x="149" y="46" type="line" smooth="yes"/>
      <point x="149" y="20"/>
      <point x="172" y="-1"/>
      <point x="197" y="-1" type="curve" smooth="yes"/>
      <point x="223" y="-1"/>
      <point x="245" y="20"/>
      <point x="245" y="46" type="curve" smooth="yes"/>
      <point x="245" y="403" type="line"/>
      <point x="330" y="403" type="line" smooth="yes"/>
      <point x="357" y="403"/>
      <point x="378" y="426"/>
      <point x="378" y="451" type="curve" smooth="yes"/>
      <point x="378" y="479"/>
      <point x="357" y="500"/>
      <point x="330" y="500" type="curve" smooth="yes"/>
    </contour>
  </outline>
</glyph>
<glyph name="w" format="1">
  <advance width="620"/>
  <unicode hex="0077"/>
  <outline>
    <contour>
      <point x="406" y="202" type="line"/>
      <point x="344" y="465" type="line" smooth="yes"/>
      <point x="338" y="489"/>
      <point x="320" y="500"/>
      <point x="296" y="500" type="curve" smooth="yes"/>
      <point x="274" y="500"/>
      <point x="255" y="486"/>
      <point x="248" y="465" type="curve" smooth="yes"/>
      <point x="158" y="207" type="line"/>
      <point x="107" y="460" type="line" smooth="yes"/>
      <point x="103" y="483"/>
      <point x="86" y="500"/>
      <point x="60" y="500" type="curve" smooth="yes"/>
      <point x="34" y="500"/>
      <point x="13" y="479"/>
      <point x="13" y="458" type="curve" smooth="yes"/>
      <point x="13" y="450"/>
      <point x="14" y="444"/>
      <point x="16" y="434" type="curve" smooth="yes"/>
      <point x="99" y="39" type="line" smooth="yes"/>
      <point x="104" y="15"/>
      <point x="119" y="0"/>
      <point x="147" y="0" type="curve" smooth="yes"/>
      <point x="168" y="0"/>
      <point x="185" y="12"/>
      <point x="193" y="35" type="curve" smooth="yes"/>
      <point x="289" y="299" type="line"/>
      <point x="356" y="37" type="line" smooth="yes"/>
      <point x="363" y="11"/>
      <point x="380" y="0"/>
      <point x="403" y="0" type="curve" smooth="yes"/>
      <point x="427" y="0"/>
      <point x="442" y="15"/>
      <point x="449" y="36" type="curve" smooth="yes"/>
      <point x="577" y="435" type="line" smooth="yes"/>
      <point x="579" y="441"/>
      <point x="580" y="446"/>
      <point x="580" y="454" type="curve" smooth="yes"/>
      <point x="580" y="480"/>
      <point x="557" y="499"/>
      <point x="532" y="499" type="curve" smooth="yes"/>
      <point x="510" y="499"/>
      <point x="491" y="482"/>
      <point x="485" y="462" type="curve" smooth="yes"/>
    </contour>
  </outline>
</glyph>
<glyph name="x" format="1">
  <advance width="536"/>
  <unicode hex="0078"/>
  <outline>
    <contour>
      <point x="487" y="417" type="line" smooth="yes"/>
      <point x="495" y="425"/>
      <point x="501" y="437"/>
      <point x="501" y="450" type="curve" smooth="yes"/>
      <point x="501" y="475"/>
      <point x="478" y="498"/>
      <point x="453" y="498" type="curve" smooth="yes"/>
      <point x="441" y="498"/>
      <point x="429" y="494"/>
      <point x="418" y="483" type="curve" smooth="yes"/>
      <point x="264" y="322" type="line"/>
      <point x="132" y="484" type="line" smooth="yes"/>
      <point x="121" y="497"/>
      <point x="108" y="500"/>
      <point x="96" y="500" type="curve" smooth="yes"/>
      <point x="70" y="500"/>
      <point x="49" y="477"/>
      <point x="49" y="451" type="curve" smooth="yes"/>
      <point x="49" y="440"/>
      <point x="54" y="428"/>
      <point x="62" y="419" type="curve" smooth="yes"/>
      <point x="196" y="259" type="line"/>
      <point x="26" y="84" type="line" smooth="yes"/>
      <point x="14" y="72"/>
      <point x="12" y="61"/>
      <point x="12" y="49" type="curve" smooth="yes"/>
      <point x="12" y="24"/>
      <point x="33" y="1"/>
      <point x="59" y="1" type="curve" smooth="yes"/>
      <point x="71" y="1"/>
      <point x="83" y="3"/>
      <point x="94" y="15" type="curve" smooth="yes"/>
      <point x="258" y="189" type="line"/>
      <point x="400" y="15" type="line"/>
      <point x="409" y="5"/>
      <point x="423" y="0"/>
      <point x="435" y="0" type="curve" smooth="yes"/>
      <point x="461" y="0"/>
      <point x="483" y="21"/>
      <point x="483" y="48" type="curve" smooth="yes"/>
      <point x="483" y="59"/>
      <point x="480" y="69"/>
      <point x="473" y="78" type="curve" smooth="yes"/>
      <point x="327" y="253" type="line"/>
    </contour>
  </outline>
</glyph>
<glyph name="bar" format="1">
  <advance width="219"/>
  <unicode hex="007C"/>
  <outline>
    <contour>
      <point x="132" y="-153"/>
      <point x="153" y="-132"/>
      <point x="153" y="-104" type="curve" smooth="yes"/>
      <point x="153" y="760" type="line" smooth="yes"/>
      <point x="153" y="786"/>
      <point x="132" y="808"/>
      <point x="105" y="808" type="curve" smooth="yes"/>
      <point x="79" y="808"/>
      <point x="56" y="786"/>
      <point x="56" y="760" type="curve" smooth="yes"/>
      <point x="56" y="-104" type="line" smooth="yes"/>
      <point x="56" y="-132"/>
      <point x="79" y="-153"/>
      <point x="105" y="-153" type="curve" smooth="yes"/>
    </contour>
  </outline>
</glyph>
<glyph name="braceright" format="1">
  <advance width="402"/>
  <unicode hex="007D"/>
  <outline>
    <contour>
      <point x="323" y="294"/>
      <point x="330" y="303"/>
      <point x="330" y="328" type="curve" smooth="yes"/>
      <point x="330" y="347"/>
      <point x="322" y="362"/>
      <point x="299" y="370" type="curve"/>
      <point x="274" y="380"/>
      <point x="253" y="403"/>
      <point x="253" y="438" type="curve" smooth="yes"/>
      <point x="253" y="624" type="line" smooth="yes"/>
      <point x="253" y="726"/>
      <point x="172" y="766"/>
      <point x="109" y="779" type="curve" smooth="yes"/>
      <point x="74" y="785"/>
      <point x="48" y="766"/>
      <point x="48" y="732" type="curve" smooth="yes"/>
      <point x="48" y="709"/>
      <point x="65" y="690"/>
      <point x="89" y="685" type="curve"/>
      <point x="115" y="681"/>
      <point x="159" y="665"/>
      <point x="159" y="624" type="curve" smooth="yes"/>
      <point x="159" y="439" type="line" smooth="yes"/>
      <point x="159" y="394"/>
      <point x="178" y="355"/>
      <point x="201" y="327" type="curve"/>
      <point x="175" y="299"/>
      <point x="159" y="261"/>
      <point x="159" y="214" type="curve" smooth="yes"/>
      <point x="159" y="43" type="line" smooth="yes"/>
      <point x="159" y="2"/>
      <point x="115" y="-13"/>
      <point x="90" y="-18" type="curve" smooth="yes"/>
      <point x="62" y="-24"/>
      <point x="48" y="-40"/>
      <point x="48" y="-65" type="curve" smooth="yes"/>
      <point x="48" y="-93"/>
      <point x="70" y="-118"/>
      <point x="103" y="-112" type="curve" smooth="yes"/>
      <point x="168" y="-102"/>
      <point x="253" y="-59"/>
      <point x="253" y="43" type="curve" smooth="yes"/>
      <point x="253" y="215" type="line" smooth="yes"/>
      <point x="253" y="244"/>
      <point x="262" y="264"/>
      <point x="301" y="284" type="curve"/>
    </contour>
  </outline>
</glyph>
<glyph name="exclamdown" format="1">
  <advance width="222"/>
  <unicode hex="00A1"/>
  <outline>
    <contour>
      <point x="144" y="279" type="line" smooth="yes"/>
      <point x="144" y="306"/>
      <point x="122" y="328"/>
      <point x="95" y="328" type="curve" smooth="yes"/>
      <point x="67" y="328"/>
      <point x="46" y="306"/>
      <point x="46" y="279" type="curve" smooth="yes"/>
      <point x="46" y="-129" type="line" smooth="yes"/>
      <point x="46" y="-155"/>
      <point x="67" y="-179"/>
      <point x="95" y="-179" type="curve" smooth="yes"/>
      <point x="122" y="-179"/>
      <point x="144" y="-155"/>
      <point x="144" y="-129" type="curve" smooth="yes"/>
    </contour>
    <contour>
      <point x="44" y="402"/>
      <point x="65" y="375"/>
      <point x="96" y="375" type="curve" smooth="yes"/>
      <point x="126" y="375"/>
      <point x="155" y="406"/>
      <point x="155" y="440" type="curve" smooth="yes"/>
      <point x="155" y="471"/>
      <point x="134" y="496"/>
      <point x="103" y="496" type="curve" smooth="yes"/>
      <point x="74" y="496"/>
      <point x="44" y="468"/>
      <point x="44" y="431" type="curve" smooth="yes"/>
    </contour>
  </outline>
</glyph>
<glyph name="currency" format="1">
  <advance width="543"/>
  <unicode hex="00A4"/>
  <outline>
    <contour>
      <point x="408" y="171" type="line"/>
      <point x="421" y="194"/>
      <point x="428" y="222"/>
      <point x="428" y="251" type="curve" smooth="yes"/>
      <point x="428" y="280"/>
      <point x="420" y="308"/>
      <point x="406" y="332" type="curve"/>
      <point x="459" y="386" type="line" smooth="yes"/>
      <point x="468" y="395"/>
      <point x="472" y="406"/>
      <point x="472" y="419" type="curve" smooth="yes"/>
      <point x="472" y="442"/>
      <point x="452" y="464"/>
      <point x="426" y="464" type="curve" smooth="yes"/>
      <point x="414" y="464"/>
      <point x="404" y="461"/>
      <point x="394" y="451" type="curve" smooth="yes"/>
      <point x="341" y="398" type="line"/>
      <point x="316" y="412"/>
      <point x="289" y="418"/>
      <point x="260" y="418" type="curve" smooth="yes"/>
      <point x="231" y="418"/>
      <point x="205" y="412"/>
      <point x="180" y="398" type="curve"/>
      <point x="127" y="451" type="line" smooth="yes"/>
      <point x="117" y="461"/>
      <point x="107" y="464"/>
      <point x="94" y="464" type="curve" smooth="yes"/>
      <point x="69" y="464"/>
      <point x="48" y="444"/>
      <point x="48" y="419" type="curve" smooth="yes"/>
      <point x="48" y="405"/>
      <point x="53" y="394"/>
      <point x="61" y="386" type="curve" smooth="yes"/>
      <point x="115" y="333" type="line"/>
      <point x="100" y="309"/>
      <point x="93" y="281"/>
      <point x="93" y="251" type="curve" smooth="yes"/>
      <point x="93" y="222"/>
      <point x="100" y="195"/>
      <point x="113" y="171" type="curve"/>
      <point x="61" y="119" type="line" smooth="yes"/>
      <point x="53" y="111"/>
      <point x="48" y="98"/>
      <point x="48" y="86" type="curve" smooth="yes"/>
      <point x="48" y="62"/>
      <point x="70" y="40"/>
      <point x="94" y="40" type="curve" smooth="yes"/>
      <point x="107" y="40"/>
      <point x="119" y="47"/>
      <point x="128" y="55" type="curve"/>
      <point x="178" y="104" type="line"/>
      <point x="203" y="91"/>
      <point x="230" y="83"/>
      <point x="260" y="83" type="curve" smooth="yes"/>
      <point x="290" y="83"/>
      <point x="318" y="91"/>
      <point x="343" y="104" type="curve"/>
      <point x="394" y="54" type="line"/>
      <point x="403" y="46"/>
      <point x="415" y="40"/>
      <point x="426" y="40" type="curve" smooth="yes"/>
      <point x="454" y="40"/>
      <point x="472" y="63"/>
      <point x="472" y="86" type="curve" smooth="yes"/>
      <point x="472" y="97"/>
      <point x="468" y="110"/>
      <point x="459" y="119" type="curve" smooth="yes"/>
    </contour>
    <contour>
      <point x="185" y="293"/>
      <point x="219" y="326"/>
      <point x="260" y="326" type="curve" smooth="yes"/>
      <point x="302" y="326"/>
      <point x="336" y="293"/>
      <point x="336" y="251" type="curve" smooth="yes"/>
      <point x="336" y="209"/>
      <point x="302" y="174"/>
      <point x="260" y="174" type="curve" smooth="yes"/>
      <point x="219" y="174"/>
      <point x="185" y="209"/>
      <point x="185" y="251" type="curve" smooth="yes"/>
    </contour>
  </outline>
</glyph>
<glyph name="section" format="1">
  <advance width="483"/>
  <unicode hex="00A7"/>
  <outline>
    <contour>
      <point x="143" y="173"/>
      <point x="127" y="188"/>
      <point x="104" y="188" type="curve" smooth="yes"/>
      <point x="78" y="188"/>
      <point x="57" y="167"/>
      <point x="57" y="141" type="curve" smooth="yes"/>
      <point x="57" y="103"/>
      <point x="118" y="0"/>
      <point x="245" y="0" type="curve" smooth="yes"/>
      <point x="354" y="0"/>
      <point x="423" y="79"/>
      <point x="423" y="151" type="curve" smooth="yes"/>
      <point x="423" y="178"/>
      <point x="417" y="201"/>
      <point x="407" y="220" type="curve"/>
      <point x="417" y="239"/>
      <point x="422" y="260"/>
      <point x="422" y="280" type="curve" smooth="yes"/>
      <point x="422" y="388"/>
      <point x="350" y="410"/>
      <point x="256" y="440" type="curve" smooth="yes"/>
      <point x="226" y="449"/>
      <point x="175" y="464"/>
      <point x="175" y="499" type="curve" smooth="yes"/>
      <point x="175" y="525"/>
      <point x="211" y="541"/>
      <point x="262" y="541" type="curve" smooth="yes"/>
      <point x="310" y="541"/>
      <point x="330" y="527"/>
      <point x="330" y="507" type="curve" smooth="yes"/>
      <point x="330" y="499"/>
      <point x="328" y="493"/>
      <point x="328" y="483" type="curve" smooth="yes"/>
      <point x="328" y="461"/>
      <point x="343" y="441"/>
      <point x="375" y="441" type="curve" smooth="yes"/>
      <point x="409" y="441"/>
      <point x="423" y="464"/>
      <point x="423" y="506" type="curve" smooth="yes"/>
      <point x="423" y="581"/>
      <point x="366" y="630"/>
      <point x="260" y="630" type="curve" smooth="yes"/>
      <point x="186" y="630"/>
      <point x="82" y="604"/>
      <point x="82" y="499" type="curve" smooth="yes"/>
      <point x="82" y="474"/>
      <point x="89" y="452"/>
      <point x="101" y="433" type="curve"/>
      <point x="90" y="416"/>
      <point x="83" y="396"/>
      <point x="83" y="370" type="curve" smooth="yes"/>
      <point x="83" y="295"/>
      <point x="136" y="252"/>
      <point x="239" y="220" type="curve" smooth="yes"/>
      <point x="307" y="198"/>
      <point x="330" y="180"/>
      <point x="330" y="156" type="curve" smooth="yes"/>
      <point x="330" y="131"/>
      <point x="309" y="90"/>
      <point x="245" y="90" type="curve" smooth="yes"/>
      <point x="197" y="90"/>
      <point x="161" y="116"/>
      <point x="149" y="154" type="curve" smooth="yes"/>
    </contour>
    <contour>
      <point x="310" y="284"/>
      <point x="282" y="291"/>
      <point x="250" y="301" type="curve" smooth="yes"/>
      <point x="218" y="310"/>
      <point x="165" y="318"/>
      <point x="165" y="364" type="curve" smooth="yes"/>
      <point x="165" y="372"/>
      <point x="167" y="379"/>
      <point x="175" y="387" type="curve"/>
      <point x="198" y="381"/>
      <point x="230" y="371"/>
      <point x="245" y="366" type="curve" smooth="yes"/>
      <point x="324" y="342"/>
      <point x="339" y="327"/>
      <point x="339" y="296" type="curve" smooth="yes"/>
      <point x="339" y="290"/>
      <point x="338" y="281"/>
      <point x="333" y="272" type="curve"/>
    </contour>
  </outline>
</glyph>
<glyph name="dieresis" format="1">
  <advance width="526"/>
  <unicode hex="00A8"/>
  <outline>
    <contour>
      <point x="225" y="619"/>
      <point x="194" y="644"/>
      <point x="162" y="644" type="curve" smooth="yes"/>
      <point x="123" y="644"/>
      <point x="93" y="614"/>
      <point x="93" y="581" type="curve" smooth="yes"/>
      <point x="93" y="547"/>
      <point x="121" y="523"/>
      <point x="156" y="523" type="curve" smooth="yes"/>
      <point x="195" y="523"/>
      <point x="225" y="551"/>
      <point x="225" y="586" type="curve" smooth="yes"/>
    </contour>
    <contour>
      <point x="410" y="619"/>
      <point x="379" y="644"/>
      <point x="346" y="644" type="curve" smooth="yes"/>
      <point x="308" y="644"/>
      <point x="277" y="614"/>
      <point x="277" y="581" type="curve" smooth="yes"/>
      <point x="277" y="547"/>
      <point x="305" y="523"/>
      <point x="341" y="523" type="curve" smooth="yes"/>
      <point x="380" y="523"/>
      <point x="410" y="551"/>
      <point x="410" y="586" type="curve" smooth="yes"/>
    </contour>
  </outline>
</glyph>
<glyph name="ordfeminine" format="1">
  <advance width="276"/>
  <unicode hex="00AA"/>
  <outline>
    <contour>
      <point x="249" y="311"/>
      <point x="269" y="332"/>
      <point x="269" y="356" type="curve"/>
      <point x="268" y="615" type="line"/>
      <point x="249" y="630"/>
      <point x="199" y="652"/>
      <point x="152" y="652" type="curve" smooth="yes"/>
      <point x="51" y="652"/>
      <point x="-4" y="551"/>
      <point x="-4" y="461" type="curve" smooth="yes"/>
      <point x="-4" y="378"/>
      <point x="51" y="315"/>
      <point x="126" y="315" type="curve" smooth="yes"/>
      <point x="154" y="315"/>
      <point x="172" y="321"/>
      <point x="189" y="327" type="curve"/>
      <point x="197" y="317"/>
      <point x="211" y="311"/>
      <point x="225" y="311" type="curve" smooth="yes"/>
    </contour>
    <contour>
      <point x="162" y="561"/>
      <point x="173" y="560"/>
      <point x="179" y="558" type="curve"/>
      <point x="177" y="423" type="line"/>
      <point x="164" y="416"/>
      <point x="143" y="405"/>
      <point x="127" y="405" type="curve" smooth="yes"/>
      <point x="99" y="405"/>
      <point x="87" y="437"/>
      <point x="87" y="463" type="curve" smooth="yes"/>
      <point x="87" y="504"/>
      <point x="107" y="561"/>
      <point x="156" y="561" type="curve" smooth="yes"/>
    </contour>
  </outline>
</glyph>
<glyph name="guillemotleft" format="1">
  <advance width="617"/>
  <unicode hex="00AB"/>
  <outline>
    <contour>
      <point x="207" y="81" type="line"/>
      <point x="218" y="72"/>
      <point x="228" y="69"/>
      <point x="240" y="69" type="curve" smooth="yes"/>
      <point x="265" y="69"/>
      <point x="288" y="90"/>
      <point x="288" y="116" type="curve" smooth="yes"/>
      <point x="288" y="129"/>
      <point x="283" y="143"/>
      <point x="272" y="153" type="curve" smooth="yes"/>
      <point x="164" y="249" type="line"/>
      <point x="286" y="354" type="line" smooth="yes"/>
      <point x="300" y="366"/>
      <point x="302" y="376"/>
      <point x="302" y="391" type="curve" smooth="yes"/>
      <point x="302" y="418"/>
      <point x="278" y="439"/>
      <point x="254" y="439" type="curve" smooth="yes"/>
      <point x="243" y="439"/>
      <point x="234" y="436"/>
      <point x="223" y="427" type="curve" smooth="yes"/>
      <point x="60" y="286" type="line" smooth="yes"/>
      <point x="49" y="277"/>
      <point x="43" y="262"/>
      <point x="43" y="250" type="curve" smooth="yes"/>
      <point x="43" y="237"/>
      <point x="48" y="223"/>
      <point x="59" y="213" type="curve" smooth="yes"/>
    </contour>
    <contour>
      <point x="437" y="81" type="line"/>
      <point x="448" y="72"/>
      <point x="458" y="69"/>
      <point x="470" y="69" type="curve" smooth="yes"/>
      <point x="495" y="69"/>
      <point x="518" y="90"/>
      <point x="518" y="116" type="curve" smooth="yes"/>
      <point x="518" y="129"/>
      <point x="513" y="143"/>
      <point x="502" y="153" type="curve" smooth="yes"/>
      <point x="394" y="249" type="line"/>
      <point x="516" y="354" type="line" smooth="yes"/>
      <point x="530" y="366"/>
      <point x="532" y="376"/>
      <point x="532" y="391" type="curve" smooth="yes"/>
      <point x="532" y="418"/>
      <point x="508" y="439"/>
      <point x="484" y="439" type="curve" smooth="yes"/>
      <point x="473" y="439"/>
      <point x="464" y="436"/>
      <point x="453" y="427" type="curve" smooth="yes"/>
      <point x="290" y="286" type="line" smooth="yes"/>
      <point x="279" y="277"/>
      <point x="273" y="262"/>
      <point x="273" y="250" type="curve" smooth="yes"/>
      <point x="273" y="237"/>
      <point x="278" y="223"/>
      <point x="289" y="213" type="curve" smooth="yes"/>
    </contour>
  </outline>
</glyph>
<glyph name="logicalnot" format="1">
  <advance width="506"/>
  <unicode hex="00AC"/>
  <outline>
    <contour>
      <point x="407" y="114"/>
      <point x="427" y="134"/>
      <point x="427" y="159" type="curve" smooth="yes"/>
      <point x="428" y="298" type="line" smooth="yes"/>
      <point x="428" y="326"/>
      <point x="404" y="344"/>
      <point x="381" y="344" type="curve" smooth="yes"/>
      <point x="83" y="344" type="line" smooth="yes"/>
      <point x="57" y="344"/>
      <point x="37" y="322"/>
      <point x="37" y="298" type="curve" smooth="yes"/>
      <point x="37" y="273"/>
      <point x="57" y="253"/>
      <point x="83" y="253" type="curve" smooth="yes"/>
      <point x="336" y="253" type="line"/>
      <point x="335" y="159" type="line" smooth="yes"/>
      <point x="335" y="134"/>
      <point x="357" y="114"/>
      <point x="381" y="114" type="curve" smooth="yes"/>
    </contour>
  </outline>
</glyph>
<glyph name="registered" format="1">
  <advance width="570"/>
  <unicode hex="00AE"/>
  <outline>
    <contour>
      <point x="401" y="548"/>
      <point x="355" y="581"/>
      <point x="273" y="581" type="curve" smooth="yes"/>
      <point x="186" y="581"/>
      <point x="186" y="572"/>
      <point x="181" y="541" type="curve" smooth="yes"/>
      <point x="154" y="381" type="line" smooth="yes"/>
      <point x="149" y="354"/>
      <point x="172" y="330"/>
      <point x="198" y="330" type="curve" smooth="yes"/>
      <point x="222" y="330"/>
      <point x="238" y="345"/>
      <point x="242" y="368" type="curve" smooth="yes"/>
      <point x="244" y="381" type="line"/>
      <point x="308" y="336" type="line" smooth="yes"/>
      <point x="315" y="331"/>
      <point x="323" y="329"/>
      <point x="333" y="329" type="curve" smooth="yes"/>
      <point x="357" y="329"/>
      <point x="376" y="348"/>
      <point x="376" y="372" type="curve" smooth="yes"/>
      <point x="376" y="387"/>
      <point x="370" y="399"/>
      <point x="356" y="409" type="curve" smooth="yes"/>
      <point x="339" y="421" type="line"/>
      <point x="372" y="435"/>
      <point x="401" y="458"/>
      <point x="401" y="495" type="curve" smooth="yes"/>
    </contour>
    <contour>
      <point x="423" y="177"/>
      <point x="542" y="298"/>
      <point x="542" y="447" type="curve" smooth="yes"/>
      <point x="542" y="596"/>
      <point x="423" y="718"/>
      <point x="277" y="718" type="curve" smooth="yes"/>
      <point x="132" y="718"/>
      <point x="12" y="596"/>
      <point x="12" y="447" type="curve" smooth="yes"/>
      <point x="12" y="298"/>
      <point x="132" y="177"/>
      <point x="277" y="177" type="curve" smooth="yes"/>
    </contour>
    <contour>
      <point x="385" y="648"/>
      <point x="472" y="558"/>
      <point x="472" y="447" type="curve" smooth="yes"/>
      <point x="472" y="336"/>
      <point x="385" y="247"/>
      <point x="277" y="247" type="curve" smooth="yes"/>
      <point x="170" y="247"/>
      <point x="82" y="336"/>
      <point x="82" y="447" type="curve" smooth="yes"/>
      <point x="82" y="558"/>
      <point x="170" y="648"/>
      <point x="277" y="648" type="curve" smooth="yes"/>
    </contour>
  </outline>
</glyph>
<glyph name="plusminus" format="1">
  <advance width="467"/>
  <unicode hex="00B1"/>
  <outline>
    <contour>
      <point x="53" y="266"/>
      <point x="73" y="245"/>
      <point x="99" y="245" type="curve" smooth="yes"/>
      <point x="176" y="245" type="line"/>
      <point x="176" y="170" type="line" smooth="yes"/>
      <point x="176" y="146"/>
      <point x="197" y="124"/>
      <point x="223" y="124" type="curve" smooth="yes"/>
      <point x="246" y="124"/>
      <point x="269" y="145"/>
      <point x="269" y="170" type="curve" smooth="yes"/>
      <point x="269" y="245" type="line"/>
      <point x="346" y="245" type="line" smooth="yes"/>
      <point x="369" y="245"/>
      <point x="393" y="267"/>
      <point x="393" y="292" type="curve" smooth="yes"/>
      <point x="393" y="318"/>
      <point x="369" y="339"/>
      <point x="346" y="339" type="curve" smooth="yes"/>
      <point x="269" y="339" type="line"/>
      <point x="269" y="405" type="line" smooth="yes"/>
      <point x="269" y="428"/>
      <point x="249" y="451"/>
      <point x="223" y="451" type="curve" smooth="yes"/>
      <point x="193" y="451"/>
      <point x="176" y="428"/>
      <point x="176" y="405" type="curve" smooth="yes"/>
      <point x="176" y="339" type="line"/>
      <point x="99" y="339" type="line" smooth="yes"/>
      <point x="75" y="339"/>
      <point x="53" y="316"/>
      <point x="53" y="292" type="curve" smooth="yes"/>
    </contour>
    <contour>
      <point x="68" y="16"/>
      <point x="90" y="-1"/>
      <point x="114" y="-1" type="curve" smooth="yes"/>
      <point x="331" y="-1" type="line" smooth="yes"/>
      <point x="356" y="-1"/>
      <point x="377" y="18"/>
      <point x="377" y="46" type="curve" smooth="yes"/>
      <point x="377" y="71"/>
      <point x="356" y="93"/>
      <point x="331" y="93" type="curve" smooth="yes"/>
      <point x="114" y="93" type="line" smooth="yes"/>
      <point x="90" y="93"/>
      <point x="68" y="73"/>
      <point x="68" y="46" type="curve" smooth="yes"/>
    </contour>
  </outline>
</glyph>
<glyph name="twosuperior" format="1">
  <advance width="266"/>
  <unicode hex="00B2"/>
  <outline>
    <contour>
      <point x="211" y="402" type="line" smooth="yes"/>
      <point x="232" y="402"/>
      <point x="255" y="423"/>
      <point x="255" y="446" type="curve" smooth="yes"/>
      <point x="255" y="474"/>
      <point x="230" y="491"/>
      <point x="211" y="491" type="curve" smooth="yes"/>
      <point x="93" y="491" type="line"/>
      <point x="101" y="519"/>
      <point x="133" y="543"/>
      <point x="159" y="559" type="curve" smooth="yes"/>
      <point x="204" y="585"/>
      <point x="250" y="614"/>
      <point x="250" y="683" type="curve" smooth="yes"/>
      <point x="250" y="755"/>
      <point x="190" y="796"/>
      <point x="126" y="796" type="curve" smooth="yes"/>
      <point x="69" y="796"/>
      <point x="25" y="757"/>
      <point x="6" y="735" type="curve" smooth="yes"/>
      <point x="-3" y="725"/>
      <point x="-4" y="715"/>
      <point x="-4" y="706" type="curve" smooth="yes"/>
      <point x="-4" y="679"/>
      <point x="12" y="663"/>
      <point x="39" y="663" type="curve" smooth="yes"/>
      <point x="57" y="663"/>
      <point x="64" y="670"/>
      <point x="78" y="685" type="curve" smooth="yes"/>
      <point x="87" y="694"/>
      <point x="106" y="709"/>
      <point x="127" y="709" type="curve" smooth="yes"/>
      <point x="149" y="709"/>
      <point x="163" y="697"/>
      <point x="163" y="683" type="curve" smooth="yes"/>
      <point x="163" y="666"/>
      <point x="153" y="653"/>
      <point x="137" y="644" type="curve" smooth="yes"/>
      <point x="41" y="588"/>
      <point x="-2" y="547"/>
      <point x="-2" y="446" type="curve" smooth="yes"/>
      <point x="-2" y="402" type="line"/>
    </contour>
  </outline>
</glyph>
<glyph name="periodcentered" format="1">
  <advance width="198"/>
  <unicode hex="00B7"/>
  <outline>
    <contour>
      <point x="122" y="191"/>
      <point x="150" y="220"/>
      <point x="150" y="256" type="curve" smooth="yes"/>
      <point x="150" y="287"/>
      <point x="128" y="312"/>
      <point x="99" y="312" type="curve" smooth="yes"/>
      <point x="68" y="312"/>
      <point x="40" y="281"/>
      <point x="40" y="248" type="curve" smooth="yes"/>
      <point x="40" y="216"/>
      <point x="61" y="191"/>
      <point x="91" y="191" type="curve" smooth="yes"/>
    </contour>
  </outline>
</glyph>
<glyph name="cedilla" format="1">
  <advance width="526"/>
  <unicode hex="00B8"/>
  <outline>
    <contour>
      <point x="227" y="-118"/>
      <point x="220" y="-109"/>
      <point x="203" y="-109" type="curve" smooth="yes"/>
      <point x="180" y="-109"/>
      <point x="167" y="-131"/>
      <point x="167" y="-148" type="curve" smooth="yes"/>
      <point x="167" y="-180"/>
      <point x="208" y="-196"/>
      <point x="246" y="-196" type="curve" smooth="yes"/>
      <point x="304" y="-196"/>
      <point x="351" y="-168"/>
      <point x="351" y="-110" type="curve" smooth="yes"/>
      <point x="351" y="-61"/>
      <point x="320" y="-37"/>
      <point x="260" y="-27" type="curve"/>
      <point x="260" y="37"/>
      <point x="249" y="41"/>
      <point x="236" y="41" type="curve" smooth="yes"/>
      <point x="213" y="41"/>
      <point x="204" y="13"/>
      <point x="191" y="-35" type="curve" smooth="yes"/>
      <point x="186" y="-53"/>
      <point x="188" y="-69"/>
      <point x="207" y="-73" type="curve" smooth="yes"/>
      <point x="256" y="-83" type="line" smooth="yes"/>
      <point x="272" y="-86"/>
      <point x="280" y="-94"/>
      <point x="280" y="-106" type="curve" smooth="yes"/>
      <point x="280" y="-118"/>
      <point x="273" y="-132"/>
      <point x="257" y="-132" type="curve" smooth="yes"/>
      <point x="248" y="-132"/>
      <point x="242" y="-130"/>
      <point x="237" y="-126" type="curve" smooth="yes"/>
    </contour>
  </outline>
</glyph>
<glyph name="Aring" format="1">
  <advance width="650"/>
  <unicode hex="00C5"/>
  <outline>
    <contour>
      <point x="397" y="712"/>
      <point x="473" y="755"/>
      <point x="473" y="833" type="curve" smooth="yes"/>
      <point x="473" y="900"/>
      <point x="412" y="942"/>
      <point x="344" y="942" type="curve" smooth="yes"/>
      <point x="269" y="942"/>
      <point x="194" y="897"/>
      <point x="194" y="820" type="curve" smooth="yes"/>
      <point x="194" y="754"/>
      <point x="253" y="712"/>
      <point x="324" y="712" type="curve" smooth="yes"/>
    </contour>
    <contour>
      <point x="367" y="862"/>
      <point x="387" y="846"/>
      <point x="387" y="831" type="curve" smooth="yes"/>
      <point x="387" y="806"/>
      <point x="355" y="791"/>
      <point x="332" y="791" type="curve" smooth="yes"/>
      <point x="302" y="791"/>
      <point x="280" y="802"/>
      <point x="280" y="820" type="curve" smooth="yes"/>
      <point x="280" y="838"/>
      <point x="304" y="862"/>
      <point x="340" y="862" type="curve" smooth="yes"/>
    </contour>
    <contour>
      <point x="375" y="655" type="line" smooth="yes"/>
      <point x="367" y="679"/>
      <point x="349" y="688"/>
      <point x="329" y="688" type="curve" smooth="yes"/>
      <point x="309" y="688"/>
      <point x="290" y="677"/>
      <point x="282" y="657" type="curve" smooth="yes"/>
      <point x="134" y="281" type="line"/>
      <point x="97" y="273" type="line" smooth="yes"/>
      <point x="75" y="268"/>
      <point x="59" y="249"/>
      <point x="59" y="225" type="curve" smooth="yes"/>
      <point x="59" y="201"/>
      <point x="73" y="184"/>
      <point x="94" y="177" type="curve"/>
      <point x="50" y="67" type="line" smooth="yes"/>
      <point x="48" y="62"/>
      <point x="47" y="56"/>
      <point x="47" y="49" type="curve" smooth="yes"/>
      <point x="47" y="25"/>
      <point x="67" y="0"/>
      <point x="97" y="0" type="curve" smooth="yes"/>
      <point x="121" y="0"/>
      <point x="136" y="15"/>
      <point x="143" y="32" type="curve" smooth="yes"/>
      <point x="208" y="196" type="line"/>
      <point x="412" y="241" type="line"/>
      <point x="484" y="33" type="line" smooth="yes"/>
      <point x="493" y="8"/>
      <point x="507" y="-1"/>
      <point x="531" y="-1" type="curve" smooth="yes"/>
      <point x="561" y="-1"/>
      <point x="581" y="22"/>
      <point x="581" y="48" type="curve" smooth="yes"/>
      <point x="581" y="53"/>
      <point x="580" y="61"/>
      <point x="578" y="67" type="curve" smooth="yes"/>
    </contour>
    <contour>
      <point x="250" y="306" type="line"/>
      <point x="325" y="495" type="line"/>
      <point x="379" y="334" type="line"/>
    </contour>
  </outline>
</glyph>
<glyph name="Ccedilla" format="1">
  <advance width="658"/>
  <unicode hex="00C7"/>
  <outline>
    <contour>
      <point x="436" y="-2"/>
      <point x="521" y="41"/>
      <point x="579" y="117" type="curve"/>
      <point x="586" y="127"/>
      <point x="588" y="137"/>
      <point x="588" y="147" type="curve" smooth="yes"/>
      <point x="588" y="179"/>
      <point x="564" y="197"/>
      <point x="538" y="197" type="curve" smooth="yes"/>
      <point x="523" y="197"/>
      <point x="511" y="193"/>
      <point x="499" y="177" type="curve" smooth="yes"/>
      <point x="455" y="119"/>
      <point x="399" y="98"/>
      <point x="339" y="98" type="curve" smooth="yes"/>
      <point x="264" y="98"/>
      <point x="147" y="156"/>
      <point x="147" y="299" type="curve" smooth="yes"/>
      <point x="147" y="441"/>
      <point x="253" y="584"/>
      <point x="346" y="584" type="curve" smooth="yes"/>
      <point x="408" y="584"/>
      <point x="437" y="564"/>
      <point x="455" y="547" type="curve"/>
      <point x="457" y="521"/>
      <point x="478" y="501"/>
      <point x="505" y="501" type="curve" smooth="yes"/>
      <point x="533" y="501"/>
      <point x="555" y="524"/>
      <point x="555" y="551" type="curve" smooth="yes"/>
      <point x="555" y="611" type="line" smooth="yes"/>
      <point x="555" y="639"/>
      <point x="533" y="660"/>
      <point x="505" y="660" type="curve" smooth="yes"/>
      <point x="495" y="660"/>
      <point x="488" y="659"/>
      <point x="479" y="653" type="curve"/>
      <point x="449" y="669"/>
      <point x="404" y="684"/>
      <point x="346" y="684" type="curve" smooth="yes"/>
      <point x="206" y="684"/>
      <point x="47" y="501"/>
      <point x="47" y="299" type="curve" smooth="yes"/>
      <point x="47" y="148"/>
      <point x="149" y="30"/>
      <point x="282" y="3" type="curve"/>
      <point x="278" y="-7"/>
      <point x="275" y="-20"/>
      <point x="271" y="-35" type="curve" smooth="yes"/>
      <point x="266" y="-53"/>
      <point x="268" y="-69"/>
      <point x="287" y="-73" type="curve" smooth="yes"/>
      <point x="336" y="-83" type="line" smooth="yes"/>
      <point x="352" y="-86"/>
      <point x="360" y="-94"/>
      <point x="360" y="-106" type="curve" smooth="yes"/>
      <point x="360" y="-118"/>
      <point x="353" y="-132"/>
      <point x="337" y="-132" type="curve" smooth="yes"/>
      <point x="328" y="-132"/>
      <point x="322" y="-130"/>
      <point x="317" y="-126" type="curve" smooth="yes"/>
      <point x="307" y="-118"/>
      <point x="300" y="-109"/>
      <point x="283" y="-109" type="curve" smooth="yes"/>
      <point x="260" y="-109"/>
      <point x="247" y="-131"/>
      <point x="247" y="-148" type="curve" smooth="yes"/>
      <point x="247" y="-180"/>
      <point x="288" y="-196"/>
      <point x="326" y="-196" type="curve" smooth="yes"/>
      <point x="384" y="-196"/>
      <point x="431" y="-168"/>
      <point x="431" y="-110" type="curve" smooth="yes"/>
      <point x="431" y="-61"/>
      <point x="400" y="-37"/>
      <point x="340" y="-27" type="curve"/>
      <point x="340" y="-18"/>
      <point x="340" y="-11"/>
      <point x="339" y="-2" type="curve"/>
    </contour>
  </outline>
</glyph>
<glyph name="Egrave" format="1">
  <advance width="636"/>
  <unicode hex="00C8"/>
  <outline>
    <contour>
      <point x="160" y="100" type="line"/>
      <point x="160" y="302" type="line"/>
      <point x="464" y="302" type="line" smooth="yes"/>
      <point x="492" y="302"/>
      <point x="513" y="324"/>
      <point x="513" y="352" type="curve" smooth="yes"/>
      <point x="513" y="380"/>
      <point x="492" y="401"/>
      <point x="464" y="401" type="curve" smooth="yes"/>
      <point x="160" y="401" type="line"/>
      <point x="160" y="582" type="line"/>
      <point x="510" y="582" type="line" smooth="yes"/>
      <point x="538" y="582"/>
      <point x="559" y="605"/>
      <point x="559" y="632" type="curve" smooth="yes"/>
      <point x="559" y="660"/>
      <point x="538" y="682"/>
      <point x="510" y="682" type="curve" smooth="yes"/>
      <point x="111" y="682" type="line" smooth="yes"/>
      <point x="83" y="682"/>
      <point x="61" y="660"/>
      <point x="61" y="632" type="curve" smooth="yes"/>
      <point x="61" y="50" type="line" smooth="yes"/>
      <point x="61" y="22"/>
      <point x="83" y="0"/>
      <point x="111" y="0" type="curve" smooth="yes"/>
      <point x="508" y="0" type="line" smooth="yes"/>
      <point x="536" y="0"/>
      <point x="557" y="22"/>
      <point x="557" y="50" type="curve" smooth="yes"/>
      <point x="557" y="78"/>
      <point x="536" y="100"/>
      <point x="508" y="100" type="curve" smooth="yes"/>
    </contour>
    <contour>
      <point x="305" y="713" type="line"/>
      <point x="313" y="704"/>
      <point x="324" y="698"/>
      <point x="339" y="698" type="curve" smooth="yes"/>
      <point x="363" y="698"/>
      <point x="387" y="718"/>
      <point x="387" y="745" type="curve" smooth="yes"/>
      <point x="387" y="755"/>
      <point x="384" y="763"/>
      <point x="375" y="775" type="curve" smooth="yes"/>
      <point x="280" y="894" type="line" smooth="yes"/>
      <point x="270" y="906"/>
      <point x="254" y="916"/>
      <point x="236" y="916" type="curve" smooth="yes"/>
      <point x="208" y="916"/>
      <point x="182" y="890"/>
      <point x="182" y="862" type="curve" smooth="yes"/>
      <point x="182" y="846"/>
      <point x="188" y="834"/>
      <point x="198" y="824" type="curve" smooth="yes"/>
    </contour>
  </outline>
</glyph>
<glyph name="Edieresis" format="1">
  <advance width="636"/>
  <unicode hex="00CB"/>
  <outline>
    <contour>
      <point x="289" y="801"/>
      <point x="257" y="827"/>
      <point x="223" y="827" type="curve" smooth="yes"/>
      <point x="184" y="827"/>
      <point x="153" y="796"/>
      <point x="153" y="762" type="curve" smooth="yes"/>
      <point x="153" y="727"/>
      <point x="181" y="703"/>
      <point x="218" y="703" type="curve" smooth="yes"/>
      <point x="258" y="703"/>
      <point x="289" y="732"/>
      <point x="289" y="767" type="curve" smooth="yes"/>
    </contour>
    <contour>
      <point x="477" y="801"/>
      <point x="445" y="827"/>
      <point x="411" y="827" type="curve" smooth="yes"/>
      <point x="372" y="827"/>
      <point x="341" y="796"/>
      <point x="341" y="762" type="curve" smooth="yes"/>
      <point x="341" y="727"/>
      <point x="370" y="703"/>
      <point x="406" y="703" type="curve" smooth="yes"/>
      <point x="446" y="703"/>
      <point x="477" y="732"/>
      <point x="477" y="767" type="curve" smooth="yes"/>
    </contour>
    <contour>
      <point x="160" y="100" type="line"/>
      <point x="160" y="302" type="line"/>
      <point x="464" y="302" type="line" smooth="yes"/>
      <point x="492" y="302"/>
      <point x="513" y="324"/>
      <point x="513" y="352" type="curve" smooth="yes"/>
      <point x="513" y="380"/>
      <point x="492" y="401"/>
      <point x="464" y="401" type="curve" smooth="yes"/>
      <point x="160" y="401" type="line"/>
      <point x="160" y="582" type="line"/>
      <point x="510" y="582" type="line" smooth="yes"/>
      <point x="538" y="582"/>
      <point x="559" y="605"/>
      <point x="559" y="632" type="curve" smooth="yes"/>
      <point x="559" y="660"/>
      <point x="538" y="682"/>
      <point x="510" y="682" type="curve" smooth="yes"/>
      <point x="111" y="682" type="line" smooth="yes"/>
      <point x="83" y="682"/>
      <point x="61" y="660"/>
      <point x="61" y="632" type="curve" smooth="yes"/>
      <point x="61" y="50" type="line" smooth="yes"/>
      <point x="61" y="22"/>
      <point x="83" y="0"/>
      <point x="111" y="0" type="curve" smooth="yes"/>
      <point x="508" y="0" type="line" smooth="yes"/>
      <point x="536" y="0"/>
      <point x="557" y="22"/>
      <point x="557" y="50" type="curve" smooth="yes"/>
      <point x="557" y="78"/>
      <point x="536" y="100"/>
      <point x="508" y="100" type="curve" smooth="yes"/>
    </contour>
  </outline>
</glyph>
<glyph name="Iacute" format="1">
  <advance width="459"/>
  <unicode hex="00CD"/>
  <outline>
    <contour>
      <point x="273" y="99" type="line"/>
      <point x="273" y="581" type="line"/>
      <point x="342" y="581" type="line" smooth="yes"/>
      <point x="370" y="581"/>
      <point x="391" y="604"/>
      <point x="391" y="632" type="curve" smooth="yes"/>
      <point x="391" y="660"/>
      <point x="370" y="681"/>
      <point x="342" y="681" type="curve" smooth="yes"/>
      <point x="103" y="681" type="line" smooth="yes"/>
      <point x="75" y="681"/>
      <point x="53" y="660"/>
      <point x="53" y="632" type="curve" smooth="yes"/>
      <point x="53" y="604"/>
      <point x="75" y="581"/>
      <point x="103" y="581" type="curve" smooth="yes"/>
      <point x="173" y="581" type="line"/>
      <point x="173" y="99" type="line"/>
      <point x="103" y="99" type="line" smooth="yes"/>
      <point x="75" y="99"/>
      <point x="53" y="77"/>
      <point x="53" y="49" type="curve" smooth="yes"/>
      <point x="53" y="21"/>
      <point x="75" y="-1"/>
      <point x="103" y="-1" type="curve" smooth="yes"/>
      <point x="342" y="-1" type="line" smooth="yes"/>
      <point x="370" y="-1"/>
      <point x="391" y="21"/>
      <point x="391" y="49" type="curve" smooth="yes"/>
      <point x="391" y="77"/>
      <point x="372" y="99"/>
      <point x="342" y="99" type="curve" smooth="yes"/>
    </contour>
    <contour>
      <point x="143" y="790" type="line" smooth="yes"/>
      <point x="132" y="781"/>
      <point x="130" y="768"/>
      <point x="130" y="757" type="curve" smooth="yes"/>
      <point x="130" y="730"/>
      <point x="152" y="709"/>
      <point x="176" y="709" type="curve" smooth="yes"/>
      <point x="187" y="709"/>
      <point x="199" y="715"/>
      <point x="209" y="722" type="curve" smooth="yes"/>
      <point x="333" y="807" type="line" smooth="yes"/>
      <point x="347" y="817"/>
      <point x="352" y="832"/>
      <point x="352" y="847" type="curve" smooth="yes"/>
      <point x="352" y="878"/>
      <point x="329" y="902"/>
      <point x="299" y="902" type="curve" smooth="yes"/>
      <point x="282" y="902"/>
      <point x="268" y="891"/>
      <point x="258" y="883" type="curve" smooth="yes"/>
    </contour>
  </outline>
</glyph>
<glyph name="Ntilde" format="1">
  <advance width="645"/>
  <unicode hex="00D1"/>
  <outline>
    <contour>
      <point x="473" y="22" type="line" smooth="yes"/>
      <point x="483" y="8"/>
      <point x="499" y="0"/>
      <point x="514" y="0" type="curve" smooth="yes"/>
      <point x="541" y="0"/>
      <point x="563" y="20"/>
      <point x="563" y="49" type="curve" smooth="yes"/>
      <point x="563" y="632" type="line" smooth="yes"/>
      <point x="563" y="659"/>
      <point x="540" y="682"/>
      <point x="514" y="682" type="curve" smooth="yes"/>
      <point x="486" y="682"/>
      <point x="464" y="659"/>
      <point x="464" y="632" type="curve" smooth="yes"/>
      <point x="464" y="207" type="line"/>
      <point x="151" y="660" type="line" smooth="yes"/>
      <point x="142" y="673"/>
      <point x="125" y="681"/>
      <point x="110" y="681" type="curve" smooth="yes"/>
      <point x="81" y="681"/>
      <point x="62" y="658"/>
      <point x="62" y="632" type="curve" smooth="yes"/>
      <point x="61" y="49" type="line" smooth="yes"/>
      <point x="61" y="23"/>
      <point x="84" y="0"/>
      <point x="110" y="0" type="curve" smooth="yes"/>
      <point x="138" y="0"/>
      <point x="160" y="21"/>
      <point x="160" y="49" type="curve" smooth="yes"/>
      <point x="161" y="473" type="line"/>
    </contour>
    <contour>
      <point x="435" y="817"/>
      <point x="409" y="793"/>
      <point x="388" y="793" type="curve" smooth="yes"/>
      <point x="373" y="793"/>
      <point x="362" y="807"/>
      <point x="346" y="829" type="curve" smooth="yes"/>
      <point x="324" y="860"/>
      <point x="298" y="877"/>
      <point x="259" y="877" type="curve" smooth="yes"/>
      <point x="181" y="877"/>
      <point x="142" y="810"/>
      <point x="125" y="753" type="curve" smooth="yes"/>
      <point x="122" y="742"/>
      <point x="122" y="735"/>
      <point x="122" y="731" type="curve" smooth="yes"/>
      <point x="122" y="708"/>
      <point x="142" y="698"/>
      <point x="161" y="698" type="curve" smooth="yes"/>
      <point x="176" y="698"/>
      <point x="185" y="705"/>
      <point x="190" y="720" type="curve" smooth="yes"/>
      <point x="195" y="736"/>
      <point x="212" y="788"/>
      <point x="247" y="788" type="curve" smooth="yes"/>
      <point x="262" y="788"/>
      <point x="273" y="776"/>
      <point x="289" y="753" type="curve" smooth="yes"/>
      <point x="311" y="722"/>
      <point x="338" y="705"/>
      <point x="370" y="705" type="curve" smooth="yes"/>
      <point x="471" y="705"/>
      <point x="506" y="807"/>
      <point x="516" y="838" type="curve"/>
      <point x="519" y="849"/>
      <point x="519" y="856"/>
      <point x="519" y="860" type="curve" smooth="yes"/>
      <point x="519" y="883"/>
      <point x="499" y="893"/>
      <point x="480" y="893" type="curve" smooth="yes"/>
      <point x="465" y="893"/>
      <point x="453" y="886"/>
      <point x="449" y="871" type="curve" smooth="yes"/>
    </contour>
  </outline>
</glyph>
<glyph name="Ograve" format="1">
  <advance width="686"/>
  <unicode hex="00D2"/>
  <outline>
    <contour>
      <point x="470" y="-2"/>
      <point x="606" y="166"/>
      <point x="606" y="365" type="curve" smooth="yes"/>
      <point x="606" y="538"/>
      <point x="498" y="682"/>
      <point x="351" y="682" type="curve" smooth="yes"/>
      <point x="194" y="682"/>
      <point x="57" y="514"/>
      <point x="57" y="315" type="curve" smooth="yes"/>
      <point x="57" y="144"/>
      <point x="163" y="-2"/>
      <point x="312" y="-2" type="curve" smooth="yes"/>
    </contour>
    <contour>
      <point x="442" y="587"/>
      <point x="511" y="475"/>
      <point x="511" y="361" type="curve" smooth="yes"/>
      <point x="511" y="216"/>
      <point x="415" y="93"/>
      <point x="312" y="93" type="curve" smooth="yes"/>
      <point x="220" y="93"/>
      <point x="153" y="194"/>
      <point x="153" y="315" type="curve" smooth="yes"/>
      <point x="153" y="466"/>
      <point x="242" y="587"/>
      <point x="345" y="587" type="curve" smooth="yes"/>
    </contour>
    <contour>
      <point x="365" y="713" type="line"/>
      <point x="373" y="704"/>
      <point x="384" y="698"/>
      <point x="399" y="698" type="curve" smooth="yes"/>
      <point x="423" y="698"/>
      <point x="447" y="718"/>
      <point x="447" y="745" type="curve" smooth="yes"/>
      <point x="447" y="755"/>
      <point x="444" y="763"/>
      <point x="435" y="775" type="curve" smooth="yes"/>
      <point x="340" y="894" type="line" smooth="yes"/>
      <point x="330" y="906"/>
      <point x="314" y="916"/>
      <point x="296" y="916" type="curve" smooth="yes"/>
      <point x="268" y="916"/>
      <point x="242" y="890"/>
      <point x="242" y="862" type="curve" smooth="yes"/>
      <point x="242" y="846"/>
      <point x="248" y="834"/>
      <point x="258" y="824" type="curve" smooth="yes"/>
    </contour>
  </outline>
</glyph>
<glyph name="Oacute" format="1">
  <advance width="686"/>
  <unicode hex="00D3"/>
  <outline>
    <contour>
      <point x="470" y="-2"/>
      <point x="606" y="166"/>
      <point x="606" y="365" type="curve" smooth="yes"/>
      <point x="606" y="538"/>
      <point x="498" y="682"/>
      <point x="351" y="682" type="curve" smooth="yes"/>
      <point x="194" y="682"/>
      <point x="57" y="514"/>
      <point x="57" y="315" type="curve" smooth="yes"/>
      <point x="57" y="144"/>
      <point x="163" y="-2"/>
      <point x="312" y="-2" type="curve" smooth="yes"/>
    </contour>
    <contour>
      <point x="442" y="587"/>
      <point x="511" y="475"/>
      <point x="511" y="361" type="curve" smooth="yes"/>
      <point x="511" y="216"/>
      <point x="415" y="93"/>
      <point x="312" y="93" type="curve" smooth="yes"/>
      <point x="220" y="93"/>
      <point x="153" y="194"/>
      <point x="153" y="315" type="curve" smooth="yes"/>
      <point x="153" y="466"/>
      <point x="242" y="587"/>
      <point x="345" y="587" type="curve" smooth="yes"/>
    </contour>
    <contour>
      <point x="268" y="790" type="line" smooth="yes"/>
      <point x="257" y="781"/>
      <point x="255" y="768"/>
      <point x="255" y="757" type="curve" smooth="yes"/>
      <point x="255" y="730"/>
      <point x="277" y="709"/>
      <point x="301" y="709" type="curve" smooth="yes"/>
      <point x="312" y="709"/>
      <point x="324" y="715"/>
      <point x="334" y="722" type="curve" smooth="yes"/>
      <point x="458" y="807" type="line" smooth="yes"/>
      <point x="472" y="817"/>
      <point x="477" y="832"/>
      <point x="477" y="847" type="curve" smooth="yes"/>
      <point x="477" y="878"/>
      <point x="454" y="902"/>
      <point x="424" y="902" type="curve" smooth="yes"/>
      <point x="407" y="902"/>
      <point x="393" y="891"/>
      <point x="383" y="883" type="curve" smooth="yes"/>
    </contour>
  </outline>
</glyph>
<glyph name="Ocircumflex" format="1">
  <advance width="686"/>
  <unicode hex="00D4"/>
  <outline>
    <contour>
      <point x="470" y="-2"/>
      <point x="606" y="166"/>
      <point x="606" y="365" type="curve" smooth="yes"/>
      <point x="606" y="538"/>
      <point x="498" y="682"/>
      <point x="351" y="682" type="curve" smooth="yes"/>
      <point x="194" y="682"/>
      <point x="57" y="514"/>
      <point x="57" y="315" type="curve" smooth="yes"/>
      <point x="57" y="144"/>
      <point x="163" y="-2"/>
      <point x="312" y="-2" type="curve" smooth="yes"/>
    </contour>
    <contour>
      <point x="442" y="587"/>
      <point x="511" y="475"/>
      <point x="511" y="361" type="curve" smooth="yes"/>
      <point x="511" y="216"/>
      <point x="415" y="93"/>
      <point x="312" y="93" type="curve" smooth="yes"/>
      <point x="220" y="93"/>
      <point x="153" y="194"/>
      <point x="153" y="315" type="curve" smooth="yes"/>
      <point x="153" y="466"/>
      <point x="242" y="587"/>
      <point x="345" y="587" type="curve" smooth="yes"/>
    </contour>
    <contour>
      <point x="216" y="786" type="line" smooth="yes"/>
      <point x="204" y="776"/>
      <point x="198" y="763"/>
      <point x="198" y="750" type="curve" smooth="yes"/>
      <point x="198" y="723"/>
      <point x="220" y="703"/>
      <point x="245" y="703" type="curve" smooth="yes"/>
      <point x="255" y="703"/>
      <point x="263" y="704"/>
      <point x="274" y="712" type="curve" smooth="yes"/>
      <point x="363" y="781" type="line"/>
      <point x="436" y="715" type="line" smooth="yes"/>
      <point x="447" y="705"/>
      <point x="457" y="703"/>
      <point x="469" y="703" type="curve" smooth="yes"/>
      <point x="494" y="703"/>
      <point x="515" y="725"/>
      <point x="515" y="750" type="curve" smooth="yes"/>
      <point x="515" y="763"/>
      <point x="511" y="774"/>
      <point x="501" y="784" type="curve" smooth="yes"/>
      <point x="405" y="880" type="line" smooth="yes"/>
      <point x="393" y="892"/>
      <point x="379" y="898"/>
      <point x="367" y="898" type="curve" smooth="yes"/>
      <point x="358" y="898"/>
      <point x="346" y="895"/>
      <point x="335" y="886" type="curve" smooth="yes"/>
    </contour>
  </outline>
</glyph>
<glyph name="Uacute" format="1">
  <advance width="709"/>
  <unicode hex="00DA"/>
  <outline>
    <contour>
      <point x="622" y="648"/>
      <point x="616" y="681"/>
      <point x="573" y="681" type="curve" smooth="yes"/>
      <point x="530" y="681"/>
      <point x="523" y="647"/>
      <point x="523" y="631" type="curve" smooth="yes"/>
      <point x="523" y="498"/>
      <point x="528" y="397"/>
      <point x="515" y="277" type="curve" smooth="yes"/>
      <point x="499" y="139"/>
      <point x="419" y="92"/>
      <point x="336" y="92" type="curve" smooth="yes"/>
      <point x="205" y="92"/>
      <point x="168" y="236"/>
      <point x="163" y="381" type="curve" smooth="yes"/>
      <point x="160" y="474"/>
      <point x="161" y="544"/>
      <point x="163" y="633" type="curve" smooth="yes"/>
      <point x="163" y="649"/>
      <point x="155" y="681"/>
      <point x="115" y="681" type="curve" smooth="yes"/>
      <point x="74" y="681"/>
      <point x="63" y="650"/>
      <point x="63" y="634" type="curve" smooth="yes"/>
      <point x="62" y="549"/>
      <point x="60" y="474"/>
      <point x="63" y="367" type="curve" smooth="yes"/>
      <point x="70" y="151"/>
      <point x="165" y="0"/>
      <point x="334" y="0" type="curve" smooth="yes"/>
      <point x="511" y="0"/>
      <point x="593" y="110"/>
      <point x="614" y="270" type="curve" smooth="yes"/>
      <point x="631" y="400"/>
      <point x="626" y="507"/>
      <point x="622" y="633" type="curve"/>
    </contour>
    <contour>
      <point x="268" y="790" type="line" smooth="yes"/>
      <point x="257" y="781"/>
      <point x="255" y="768"/>
      <point x="255" y="757" type="curve" smooth="yes"/>
      <point x="255" y="730"/>
      <point x="277" y="709"/>
      <point x="301" y="709" type="curve" smooth="yes"/>
      <point x="312" y="709"/>
      <point x="324" y="715"/>
      <point x="334" y="722" type="curve" smooth="yes"/>
      <point x="458" y="807" type="line" smooth="yes"/>
      <point x="472" y="817"/>
      <point x="477" y="832"/>
      <point x="477" y="847" type="curve" smooth="yes"/>
      <point x="477" y="878"/>
      <point x="454" y="902"/>
      <point x="424" y="902" type="curve" smooth="yes"/>
      <point x="407" y="902"/>
      <point x="393" y="891"/>
      <point x="383" y="883" type="curve" smooth="yes"/>
    </contour>
  </outline>
</glyph>
<glyph name="Thorn" format="1">
  <advance width="573"/>
  <unicode hex="00DE"/>
  <outline>
    <contour>
      <point x="155" y="632" type="line" smooth="yes"/>
      <point x="155" y="660"/>
      <point x="133" y="680"/>
      <point x="108" y="680" type="curve" smooth="yes"/>
      <point x="82" y="680"/>
      <point x="61" y="660"/>
      <point x="61" y="633" type="curve" smooth="yes"/>
      <point x="59" y="48" type="line" smooth="yes"/>
      <point x="59" y="20"/>
      <point x="80" y="0"/>
      <point x="106" y="0" type="curve" smooth="yes"/>
      <point x="133" y="0"/>
      <point x="154" y="20"/>
      <point x="154" y="47" type="curve" smooth="yes"/>
      <point x="154" y="134" type="line"/>
      <point x="294" y="142"/>
      <point x="487" y="198"/>
      <point x="487" y="373" type="curve" smooth="yes"/>
      <point x="487" y="550"/>
      <point x="300" y="577"/>
      <point x="155" y="579" type="curve"/>
    </contour>
    <contour>
      <point x="154" y="316"/>
      <point x="155" y="483"/>
      <point x="155" y="483" type="curve"/>
      <point x="166" y="483" type="line" smooth="yes"/>
      <point x="309" y="483"/>
      <point x="393" y="442"/>
      <point x="393" y="373" type="curve" smooth="yes"/>
      <point x="393" y="270"/>
      <point x="246" y="238"/>
      <point x="154" y="232" type="curve"/>
    </contour>
  </outline>
</glyph>
<glyph name="germandbls" format="1">
  <advance width="551"/>
  <unicode hex="00DF"/>
  <outline>
    <contour>
      <point x="214" y="375"/>
      <point x="196" y="355"/>
      <point x="196" y="331" type="curve" smooth="yes"/>
      <point x="196" y="302"/>
      <point x="219" y="285"/>
      <point x="242" y="285" type="curve" smooth="yes"/>
      <point x="254" y="285"/>
      <point x="263" y="287"/>
      <point x="272" y="288" type="curve"/>
      <point x="346" y="299"/>
      <point x="387" y="240"/>
      <point x="387" y="180" type="curve" smooth="yes"/>
      <point x="387" y="120"/>
      <point x="337" y="70"/>
      <point x="278" y="70" type="curve" smooth="yes"/>
      <point x="250" y="70"/>
      <point x="228" y="52"/>
      <point x="228" y="24" type="curve" smooth="yes"/>
      <point x="228" y="-4"/>
      <point x="250" y="-23"/>
      <point x="278" y="-23" type="curve" smooth="yes"/>
      <point x="388" y="-23"/>
      <point x="480" y="69"/>
      <point x="480" y="179" type="curve" smooth="yes"/>
      <point x="480" y="271"/>
      <point x="432" y="337"/>
      <point x="372" y="360" type="curve"/>
      <point x="393" y="386"/>
      <point x="402" y="421"/>
      <point x="402" y="455" type="curve" smooth="yes"/>
      <point x="402" y="550"/>
      <point x="326" y="626"/>
      <point x="232" y="626" type="curve" smooth="yes"/>
      <point x="138" y="626"/>
      <point x="62" y="550"/>
      <point x="62" y="455" type="curve" smooth="yes"/>
      <point x="62" y="45" type="line" smooth="yes"/>
      <point x="62" y="21"/>
      <point x="84" y="-1"/>
      <point x="108" y="-1" type="curve" smooth="yes"/>
      <point x="133" y="-1"/>
      <point x="154" y="21"/>
      <point x="154" y="45" type="curve" smooth="yes"/>
      <point x="154" y="455" type="line" smooth="yes"/>
      <point x="154" y="498"/>
      <point x="190" y="533"/>
      <point x="232" y="533" type="curve" smooth="yes"/>
      <point x="275" y="533"/>
      <point x="310" y="498"/>
      <point x="310" y="455" type="curve" smooth="yes"/>
      <point x="310" y="410"/>
      <point x="291" y="383"/>
      <point x="240" y="378" type="curve" smooth="yes"/>
    </contour>
  </outline>
</glyph>
<glyph name="agrave" format="1">
  <advance width="531"/>
  <unicode hex="00E0"/>
  <outline>
    <contour>
      <point x="447" y="456" type="line"/>
      <point x="429" y="465"/>
      <point x="359" y="502"/>
      <point x="287" y="502" type="curve" smooth="yes"/>
      <point x="112" y="502"/>
      <point x="47" y="319"/>
      <point x="47" y="216" type="curve" smooth="yes"/>
      <point x="47" y="85"/>
      <point x="130" y="-3"/>
      <point x="240" y="-3" type="curve" smooth="yes"/>
      <point x="280" y="-3"/>
      <point x="319" y="10"/>
      <point x="352" y="25" type="curve"/>
      <point x="357" y="5"/>
      <point x="373" y="-10"/>
      <point x="399" y="-10" type="curve" smooth="yes"/>
      <point x="427" y="-10"/>
      <point x="447" y="14"/>
      <point x="447" y="40" type="curve" smooth="yes"/>
    </contour>
    <contour>
      <point x="349" y="134" type="line"/>
      <point x="324" y="118"/>
      <point x="279" y="93"/>
      <point x="239" y="93" type="curve" smooth="yes"/>
      <point x="169" y="93"/>
      <point x="144" y="164"/>
      <point x="144" y="218" type="curve" smooth="yes"/>
      <point x="144" y="285"/>
      <point x="182" y="407"/>
      <point x="289" y="407" type="curve" smooth="yes"/>
      <point x="310" y="407"/>
      <point x="335" y="402"/>
      <point x="352" y="395" type="curve"/>
    </contour>
    <contour>
      <point x="305" y="543" type="line"/>
      <point x="313" y="534"/>
      <point x="324" y="528"/>
      <point x="339" y="528" type="curve" smooth="yes"/>
      <point x="363" y="528"/>
      <point x="387" y="548"/>
      <point x="387" y="575" type="curve" smooth="yes"/>
      <point x="387" y="585"/>
      <point x="384" y="593"/>
      <point x="375" y="605" type="curve" smooth="yes"/>
      <point x="280" y="724" type="line" smooth="yes"/>
      <point x="270" y="736"/>
      <point x="254" y="746"/>
      <point x="236" y="746" type="curve" smooth="yes"/>
      <point x="208" y="746"/>
      <point x="182" y="720"/>
      <point x="182" y="692" type="curve" smooth="yes"/>
      <point x="182" y="676"/>
      <point x="188" y="664"/>
      <point x="198" y="654" type="curve" smooth="yes"/>
    </contour>
  </outline>
</glyph>
<glyph name="acircumflex" format="1">
  <advance width="531"/>
  <unicode hex="00E2"/>
  <outline>
    <contour>
      <point x="447" y="456" type="line"/>
      <point x="429" y="465"/>
      <point x="359" y="502"/>
      <point x="287" y="502" type="curve" smooth="yes"/>
      <point x="112" y="502"/>
      <point x="47" y="319"/>
      <point x="47" y="216" type="curve" smooth="yes"/>
      <point x="47" y="85"/>
      <point x="130" y="-3"/>
      <point x="240" y="-3" type="curve" smooth="yes"/>
      <point x="280" y="-3"/>
      <point x="319" y="10"/>
      <point x="352" y="25" type="curve"/>
      <point x="357" y="5"/>
      <point x="373" y="-10"/>
      <point x="399" y="-10" type="curve" smooth="yes"/>
      <point x="427" y="-10"/>
      <point x="447" y="14"/>
      <point x="447" y="40" type="curve" smooth="yes"/>
    </contour>
    <contour>
      <point x="349" y="134" type="line"/>
      <point x="324" y="118"/>
      <point x="279" y="93"/>
      <point x="239" y="93" type="curve" smooth="yes"/>
      <point x="169" y="93"/>
      <point x="144" y="164"/>
      <point x="144" y="218" type="curve" smooth="yes"/>
      <point x="144" y="285"/>
      <point x="182" y="407"/>
      <point x="289" y="407" type="curve" smooth="yes"/>
      <point x="310" y="407"/>
      <point x="335" y="402"/>
      <point x="352" y="395" type="curve"/>
    </contour>
    <contour>
      <point x="151" y="626" type="line" smooth="yes"/>
      <point x="139" y="616"/>
      <point x="133" y="603"/>
      <point x="133" y="590" type="curve" smooth="yes"/>
      <point x="133" y="563"/>
      <point x="155" y="543"/>
      <point x="180" y="543" type="curve" smooth="yes"/>
      <point x="190" y="543"/>
      <point x="198" y="544"/>
      <point x="209" y="552" type="curve" smooth="yes"/>
      <point x="298" y="621" type="line"/>
      <point x="371" y="555" type="line" smooth="yes"/>
      <point x="382" y="545"/>
      <point x="392" y="543"/>
      <point x="404" y="543" type="curve" smooth="yes"/>
      <point x="429" y="543"/>
      <point x="450" y="565"/>
      <point x="450" y="590" type="curve" smooth="yes"/>
      <point x="450" y="603"/>
      <point x="446" y="614"/>
      <point x="436" y="624" type="curve" smooth="yes"/>
      <point x="340" y="720" type="line" smooth="yes"/>
      <point x="328" y="732"/>
      <point x="314" y="738"/>
      <point x="302" y="738" type="curve" smooth="yes"/>
      <point x="293" y="738"/>
      <point x="281" y="735"/>
      <point x="270" y="726" type="curve" smooth="yes"/>
    </contour>
  </outline>
</glyph>
<glyph name="ae" format="1">
  <advance width="858"/>
  <unicode hex="00E6"/>
  <outline>
    <contour>
      <point x="760" y="82"/>
      <point x="764" y="92"/>
      <point x="764" y="104" type="curve" smooth="yes"/>
      <point x="764" y="131"/>
      <point x="744" y="151"/>
      <point x="718" y="151" type="curve" smooth="yes"/>
      <point x="702" y="151"/>
      <point x="692" y="145"/>
      <point x="683" y="135" type="curve" smooth="yes"/>
      <point x="662" y="112"/>
      <point x="627" y="93"/>
      <point x="594" y="93" type="curve" smooth="yes"/>
      <point x="541" y="93"/>
      <point x="493" y="112"/>
      <point x="464" y="148" type="curve"/>
      <point x="724" y="298" type="line" smooth="yes"/>
      <point x="744" y="310"/>
      <point x="756" y="327"/>
      <point x="756" y="344" type="curve" smooth="yes"/>
      <point x="756" y="391"/>
      <point x="697" y="484"/>
      <point x="573" y="484" type="curve" smooth="yes"/>
      <point x="527" y="484"/>
      <point x="472" y="468"/>
      <point x="432" y="429" type="curve"/>
      <point x="432" y="455" type="line"/>
      <point x="413" y="469"/>
      <point x="345" y="498"/>
      <point x="282" y="498" type="curve" smooth="yes"/>
      <point x="162" y="498"/>
      <point x="55" y="382"/>
      <point x="55" y="217" type="curve" smooth="yes"/>
      <point x="55" y="86"/>
      <point x="136" y="7"/>
      <point x="244" y="7" type="curve" smooth="yes"/>
      <point x="281" y="7"/>
      <point x="319" y="20"/>
      <point x="349" y="34" type="curve"/>
      <point x="354" y="16"/>
      <point x="372" y="0"/>
      <point x="395" y="0" type="curve" smooth="yes"/>
      <point x="419" y="0"/>
      <point x="441" y="23"/>
      <point x="443" y="44" type="curve"/>
      <point x="483" y="15"/>
      <point x="531" y="0"/>
      <point x="588" y="0" type="curve" smooth="yes"/>
      <point x="650" y="0"/>
      <point x="714" y="33"/>
      <point x="752" y="74" type="curve"/>
    </contour>
    <contour>
      <point x="345" y="140" type="line"/>
      <point x="321" y="123"/>
      <point x="276" y="101"/>
      <point x="240" y="101" type="curve" smooth="yes"/>
      <point x="183" y="101"/>
      <point x="149" y="154"/>
      <point x="149" y="220" type="curve" smooth="yes"/>
      <point x="149" y="285"/>
      <point x="186" y="404"/>
      <point x="289" y="404" type="curve" smooth="yes"/>
      <point x="309" y="404"/>
      <point x="334" y="398"/>
      <point x="350" y="392" type="curve"/>
    </contour>
    <contour>
      <point x="433" y="234" type="line"/>
      <point x="437" y="322"/>
      <point x="491" y="392"/>
      <point x="568" y="392" type="curve" smooth="yes"/>
      <point x="614" y="392"/>
      <point x="643" y="381"/>
      <point x="659" y="359" type="curve"/>
    </contour>
  </outline>
</glyph>
<glyph name="ccedilla" format="1">
  <advance width="535"/>
  <unicode hex="00E7"/>
  <outline>
    <contour>
      <point x="257" y="-118"/>
      <point x="250" y="-109"/>
      <point x="233" y="-109" type="curve" smooth="yes"/>
      <point x="210" y="-109"/>
      <point x="197" y="-131"/>
      <point x="197" y="-148" type="curve" smooth="yes"/>
      <point x="197" y="-180"/>
      <point x="238" y="-196"/>
      <point x="276" y="-196" type="curve" smooth="yes"/>
      <point x="334" y="-196"/>
      <point x="381" y="-168"/>
      <point x="381" y="-110" type="curve" smooth="yes"/>
      <point x="381" y="-61"/>
      <point x="350" y="-37"/>
      <point x="290" y="-27" type="curve"/>
      <point x="290" y="-18"/>
      <point x="289" y="-9"/>
      <point x="288" y="0" type="curve"/>
      <point x="357" y="5"/>
      <point x="420" y="50"/>
      <point x="453" y="94" type="curve" smooth="yes"/>
      <point x="459" y="102"/>
      <point x="464" y="112"/>
      <point x="464" y="124" type="curve" smooth="yes"/>
      <point x="464" y="151"/>
      <point x="443" y="172"/>
      <point x="417" y="172" type="curve" smooth="yes"/>
      <point x="394" y="172"/>
      <point x="381" y="156"/>
      <point x="374" y="147" type="curve" smooth="yes"/>
      <point x="352" y="117"/>
      <point x="320" y="93"/>
      <point x="263" y="93" type="curve" smooth="yes"/>
      <point x="229" y="93"/>
      <point x="141" y="122"/>
      <point x="141" y="221" type="curve" smooth="yes"/>
      <point x="141" y="243"/>
      <point x="146" y="272"/>
      <point x="157" y="302" type="curve"/>
      <point x="176" y="346"/>
      <point x="224" y="407"/>
      <point x="274" y="407" type="curve" smooth="yes"/>
      <point x="312" y="407"/>
      <point x="334" y="389"/>
      <point x="358" y="361" type="curve" smooth="yes"/>
      <point x="364" y="354"/>
      <point x="372" y="349"/>
      <point x="389" y="349" type="curve" smooth="yes"/>
      <point x="415" y="349"/>
      <point x="437" y="370"/>
      <point x="437" y="396" type="curve" smooth="yes"/>
      <point x="437" y="408"/>
      <point x="433" y="419"/>
      <point x="424" y="430" type="curve" smooth="yes"/>
      <point x="384" y="476"/>
      <point x="347" y="500"/>
      <point x="272" y="500" type="curve" smooth="yes"/>
      <point x="173" y="500"/>
      <point x="96" y="401"/>
      <point x="71" y="335" type="curve" smooth="yes"/>
      <point x="61" y="310"/>
      <point x="47" y="266"/>
      <point x="47" y="219" type="curve" smooth="yes"/>
      <point x="47" y="106"/>
      <point x="130" y="22"/>
      <point x="232" y="3" type="curve"/>
      <point x="228" y="-7"/>
      <point x="225" y="-20"/>
      <point x="221" y="-35" type="curve" smooth="yes"/>
      <point x="216" y="-53"/>
      <point x="218" y="-69"/>
      <point x="237" y="-73" type="curve" smooth="yes"/>
      <point x="286" y="-83" type="line" smooth="yes"/>
      <point x="302" y="-86"/>
      <point x="310" y="-94"/>
      <point x="310" y="-106" type="curve" smooth="yes"/>
      <point x="310" y="-118"/>
      <point x="303" y="-132"/>
      <point x="287" y="-132" type="curve" smooth="yes"/>
      <point x="278" y="-132"/>
      <point x="272" y="-130"/>
      <point x="267" y="-126" type="curve" smooth="yes"/>
    </contour>
  </outline>
</glyph>
<glyph name="ecircumflex" format="1">
  <advance width="547"/>
  <unicode hex="00EA"/>
  <outline>
    <contour>
      <point x="374" y="112"/>
      <point x="330" y="93"/>
      <point x="297" y="93" type="curve" smooth="yes"/>
      <point x="240" y="93"/>
      <point x="197" y="114"/>
      <point x="168" y="155" type="curve"/>
      <point x="436" y="309" type="line" smooth="yes"/>
      <point x="457" y="321"/>
      <point x="467" y="338"/>
      <point x="467" y="355" type="curve" smooth="yes"/>
      <point x="467" y="402"/>
      <point x="407" y="499"/>
      <point x="275" y="499" type="curve" smooth="yes"/>
      <point x="138" y="499"/>
      <point x="49" y="376"/>
      <point x="49" y="239" type="curve" smooth="yes"/>
      <point x="49" y="114"/>
      <point x="145" y="0"/>
      <point x="297" y="0" type="curve" smooth="yes"/>
      <point x="359" y="0"/>
      <point x="428" y="33"/>
      <point x="464" y="74" type="curve"/>
      <point x="471" y="81"/>
      <point x="476" y="92"/>
      <point x="476" y="104" type="curve" smooth="yes"/>
      <point x="476" y="131"/>
      <point x="456" y="151"/>
      <point x="429" y="151" type="curve" smooth="yes"/>
      <point x="416" y="151"/>
      <point x="405" y="144"/>
      <point x="396" y="135" type="curve" smooth="yes"/>
    </contour>
    <contour>
      <point x="140" y="247" type="line"/>
      <point x="144" y="335"/>
      <point x="198" y="405"/>
      <point x="275" y="405" type="curve" smooth="yes"/>
      <point x="321" y="405"/>
      <point x="350" y="394"/>
      <point x="366" y="372" type="curve"/>
    </contour>
    <contour>
      <point x="151" y="626" type="line" smooth="yes"/>
      <point x="139" y="616"/>
      <point x="133" y="603"/>
      <point x="133" y="590" type="curve" smooth="yes"/>
      <point x="133" y="563"/>
      <point x="155" y="543"/>
      <point x="180" y="543" type="curve" smooth="yes"/>
      <point x="190" y="543"/>
      <point x="198" y="544"/>
      <point x="209" y="552" type="curve" smooth="yes"/>
      <point x="298" y="621" type="line"/>
      <point x="371" y="555" type="line" smooth="yes"/>
      <point x="382" y="545"/>
      <point x="392" y="543"/>
      <point x="404" y="543" type="curve" smooth="yes"/>
      <point x="429" y="543"/>
      <point x="450" y="565"/>
      <point x="450" y="590" type="curve" smooth="yes"/>
      <point x="450" y="603"/>
      <point x="446" y="614"/>
      <point x="436" y="624" type="curve" smooth="yes"/>
      <point x="340" y="720" type="line" smooth="yes"/>
      <point x="328" y="732"/>
      <point x="314" y="738"/>
      <point x="302" y="738" type="curve" smooth="yes"/>
      <point x="293" y="738"/>
      <point x="281" y="735"/>
      <point x="270" y="726" type="curve" smooth="yes"/>
    </contour>
  </outline>
</glyph>
<glyph name="igrave" format="1">
  <advance width="245"/>
  <unicode hex="00EC"/>
  <outline>
    <contour>
      <point x="168" y="447" type="line" smooth="yes"/>
      <point x="168" y="474"/>
      <point x="146" y="496"/>
      <point x="119" y="496" type="curve" smooth="yes"/>
      <point x="91" y="496"/>
      <point x="70" y="474"/>
      <point x="70" y="447" type="curve" smooth="yes"/>
      <point x="64" y="49" type="line" smooth="yes"/>
      <point x="64" y="22"/>
      <point x="86" y="0"/>
      <point x="113" y="0" type="curve" smooth="yes"/>
      <point x="140" y="0"/>
      <point x="162" y="22"/>
      <point x="162" y="49" type="curve" smooth="yes"/>
    </contour>
    <contour>
      <point x="140" y="543" type="line"/>
      <point x="148" y="534"/>
      <point x="159" y="528"/>
      <point x="174" y="528" type="curve" smooth="yes"/>
      <point x="198" y="528"/>
      <point x="222" y="548"/>
      <point x="222" y="575" type="curve" smooth="yes"/>
      <point x="222" y="585"/>
      <point x="219" y="593"/>
      <point x="210" y="605" type="curve" smooth="yes"/>
      <point x="115" y="724" type="line" smooth="yes"/>
      <point x="105" y="736"/>
      <point x="89" y="746"/>
      <point x="71" y="746" type="curve" smooth="yes"/>
      <point x="43" y="746"/>
      <point x="17" y="720"/>
      <point x="17" y="692" type="curve" smooth="yes"/>
      <point x="17" y="676"/>
      <point x="23" y="664"/>
      <point x="33" y="654" type="curve" smooth="yes"/>
    </contour>
  </outline>
</glyph>
<glyph name="icircumflex" format="1">
  <advance width="285"/>
  <unicode hex="00EE"/>
  <outline>
    <contour>
      <point x="190" y="447" type="line" smooth="yes"/>
      <point x="190" y="474"/>
      <point x="169" y="496"/>
      <point x="141" y="496" type="curve" smooth="yes"/>
      <point x="114" y="496"/>
      <point x="92" y="474"/>
      <point x="92" y="447" type="curve" smooth="yes"/>
      <point x="87" y="49" type="line" smooth="yes"/>
      <point x="87" y="22"/>
      <point x="109" y="0"/>
      <point x="136" y="0" type="curve" smooth="yes"/>
      <point x="163" y="0"/>
      <point x="185" y="22"/>
      <point x="185" y="49" type="curve" smooth="yes"/>
    </contour>
    <contour>
      <point x="1" y="626" type="line" smooth="yes"/>
      <point x="-11" y="616"/>
      <point x="-17" y="603"/>
      <point x="-17" y="590" type="curve" smooth="yes"/>
      <point x="-17" y="563"/>
      <point x="5" y="543"/>
      <point x="30" y="543" type="curve" smooth="yes"/>
      <point x="40" y="543"/>
      <point x="48" y="544"/>
      <point x="59" y="552" type="curve" smooth="yes"/>
      <point x="148" y="621" type="line"/>
      <point x="221" y="555" type="line" smooth="yes"/>
      <point x="232" y="545"/>
      <point x="242" y="543"/>
      <point x="254" y="543" type="curve" smooth="yes"/>
      <point x="279" y="543"/>
      <point x="300" y="565"/>
      <point x="300" y="590" type="curve" smooth="yes"/>
      <point x="300" y="603"/>
      <point x="296" y="614"/>
      <point x="286" y="624" type="curve" smooth="yes"/>
      <point x="190" y="720" type="line" smooth="yes"/>
      <point x="178" y="732"/>
      <point x="164" y="738"/>
      <point x="152" y="738" type="curve" smooth="yes"/>
      <point x="143" y="738"/>
      <point x="131" y="735"/>
      <point x="120" y="726" type="curve" smooth="yes"/>
    </contour>
  </outline>
</glyph>
<glyph name="idieresis" format="1">
  <advance width="309"/>
  <unicode hex="00EF"/>
  <outline>
    <contour>
      <point x="195" y="447" type="line" smooth="yes"/>
      <point x="195" y="474"/>
      <point x="173" y="496"/>
      <point x="146" y="496" type="curve" smooth="yes"/>
      <point x="119" y="496"/>
      <point x="97" y="474"/>
      <point x="97" y="447" type="curve" smooth="yes"/>
      <point x="92" y="49" type="line" smooth="yes"/>
      <point x="92" y="22"/>
      <point x="114" y="0"/>
      <point x="141" y="0" type="curve" smooth="yes"/>
      <point x="168" y="0"/>
      <point x="190" y="22"/>
      <point x="190" y="49" type="curve" smooth="yes"/>
    </contour>
    <contour>
      <point x="124" y="639"/>
      <point x="93" y="664"/>
      <point x="60" y="664" type="curve" smooth="yes"/>
      <point x="22" y="664"/>
      <point x="-9" y="634"/>
      <point x="-9" y="601" type="curve" smooth="yes"/>
      <point x="-9" y="567"/>
      <point x="19" y="543"/>
      <point x="54" y="543" type="curve" smooth="yes"/>
      <point x="94" y="543"/>
      <point x="124" y="571"/>
      <point x="124" y="606" type="curve" smooth="yes"/>
    </contour>
    <contour>
      <point x="308" y="639"/>
      <point x="277" y="664"/>
      <point x="244" y="664" type="curve" smooth="yes"/>
      <point x="206" y="664"/>
      <point x="175" y="634"/>
      <point x="175" y="601" type="curve" smooth="yes"/>
      <point x="175" y="567"/>
      <point x="203" y="543"/>
      <point x="239" y="543" type="curve" smooth="yes"/>
      <point x="278" y="543"/>
      <point x="308" y="571"/>
      <point x="308" y="606" type="curve" smooth="yes"/>
    </contour>
  </outline>
</glyph>
<glyph name="eth" format="1">
  <advance width="508"/>
  <unicode hex="00F0"/>
  <outline>
    <contour>
      <point x="202" y="650"/>
      <point x="198" y="651"/>
      <point x="187" y="651" type="curve" smooth="yes"/>
      <point x="163" y="651"/>
      <point x="141" y="630"/>
      <point x="141" y="605" type="curve" smooth="yes"/>
      <point x="141" y="584"/>
      <point x="150" y="575"/>
      <point x="166" y="561" type="curve"/>
      <point x="136" y="544"/>
      <point x="120" y="531"/>
      <point x="106" y="520" type="curve"/>
      <point x="92" y="510"/>
      <point x="85" y="499"/>
      <point x="85" y="482" type="curve" smooth="yes"/>
      <point x="85" y="459"/>
      <point x="102" y="443"/>
      <point x="125" y="443" type="curve" smooth="yes"/>
      <point x="136" y="443"/>
      <point x="145" y="449"/>
      <point x="163" y="461" type="curve" smooth="yes"/>
      <point x="179" y="472"/>
      <point x="196" y="482"/>
      <point x="228" y="501" type="curve"/>
      <point x="244" y="485"/>
      <point x="264" y="459"/>
      <point x="278" y="438" type="curve"/>
      <point x="140" y="419"/>
      <point x="47" y="327"/>
      <point x="47" y="184" type="curve" smooth="yes"/>
      <point x="47" y="74"/>
      <point x="122" y="1"/>
      <point x="219" y="1" type="curve" smooth="yes"/>
      <point x="357" y="1"/>
      <point x="439" y="129"/>
      <point x="439" y="255" type="curve" smooth="yes"/>
      <point x="439" y="364"/>
      <point x="379" y="467"/>
      <point x="309" y="547" type="curve"/>
      <point x="376" y="580" type="line" smooth="yes"/>
      <point x="394" y="589"/>
      <point x="397" y="602"/>
      <point x="397" y="615" type="curve" smooth="yes"/>
      <point x="397" y="640"/>
      <point x="377" y="655"/>
      <point x="357" y="655" type="curve" smooth="yes"/>
      <point x="339" y="655"/>
      <point x="292" y="636"/>
      <point x="250" y="611" type="curve"/>
      <point x="222" y="639"/>
      <point x="216" y="643"/>
      <point x="212" y="645" type="curve" smooth="yes"/>
    </contour>
    <contour>
      <point x="173" y="93"/>
      <point x="138" y="127"/>
      <point x="138" y="184" type="curve" smooth="yes"/>
      <point x="138" y="303"/>
      <point x="224" y="349"/>
      <point x="326" y="351" type="curve"/>
      <point x="339" y="320"/>
      <point x="347" y="289"/>
      <point x="347" y="258" type="curve" smooth="yes"/>
      <point x="347" y="174"/>
      <point x="300" y="93"/>
      <point x="219" y="93" type="curve" smooth="yes"/>
    </contour>
  </outline>
</glyph>
<glyph name="ntilde" format="1">
  <advance width="561"/>
  <unicode hex="00F1"/>
  <outline>
    <contour>
      <point x="158" y="452" type="line" smooth="yes"/>
      <point x="158" y="479"/>
      <point x="137" y="500"/>
      <point x="112" y="500" type="curve" smooth="yes"/>
      <point x="86" y="500"/>
      <point x="62" y="479"/>
      <point x="62" y="452" type="curve" smooth="yes"/>
      <point x="62" y="46" type="line" smooth="yes"/>
      <point x="62" y="22"/>
      <point x="84" y="0"/>
      <point x="110" y="0" type="curve" smooth="yes"/>
      <point x="140" y="0"/>
      <point x="157" y="22"/>
      <point x="157" y="50" type="curve" smooth="yes"/>
      <point x="157" y="134" type="line" smooth="yes"/>
      <point x="157" y="194"/>
      <point x="175" y="254"/>
      <point x="204" y="308" type="curve" smooth="yes"/>
      <point x="247" y="387"/>
      <point x="287" y="404"/>
      <point x="319" y="404" type="curve" smooth="yes"/>
      <point x="351" y="404"/>
      <point x="380" y="398"/>
      <point x="380" y="178" type="curve" smooth="yes"/>
      <point x="380" y="47" type="line" smooth="yes"/>
      <point x="380" y="23"/>
      <point x="402" y="0"/>
      <point x="428" y="0" type="curve" smooth="yes"/>
      <point x="455" y="0"/>
      <point x="474" y="23"/>
      <point x="474" y="48" type="curve" smooth="yes"/>
      <point x="475" y="161" type="line" smooth="yes"/>
      <point x="477" y="392"/>
      <point x="456" y="499"/>
      <point x="323" y="499" type="curve" smooth="yes"/>
      <point x="255" y="499"/>
      <point x="196" y="451"/>
      <point x="158" y="395" type="curve"/>
    </contour>
    <contour>
      <point x="400" y="637"/>
      <point x="374" y="613"/>
      <point x="353" y="613" type="curve" smooth="yes"/>
      <point x="338" y="613"/>
      <point x="327" y="627"/>
      <point x="311" y="649" type="curve" smooth="yes"/>
      <point x="289" y="680"/>
      <point x="263" y="697"/>
      <point x="224" y="697" type="curve" smooth="yes"/>
      <point x="146" y="697"/>
      <point x="107" y="630"/>
      <point x="90" y="573" type="curve" smooth="yes"/>
      <point x="87" y="562"/>
      <point x="87" y="555"/>
      <point x="87" y="551" type="curve" smooth="yes"/>
      <point x="87" y="528"/>
      <point x="107" y="518"/>
      <point x="126" y="518" type="curve" smooth="yes"/>
      <point x="141" y="518"/>
      <point x="150" y="525"/>
      <point x="155" y="540" type="curve" smooth="yes"/>
      <point x="160" y="556"/>
      <point x="177" y="608"/>
      <point x="212" y="608" type="curve" smooth="yes"/>
      <point x="227" y="608"/>
      <point x="238" y="596"/>
      <point x="254" y="573" type="curve" smooth="yes"/>
      <point x="276" y="542"/>
      <point x="303" y="525"/>
      <point x="335" y="525" type="curve" smooth="yes"/>
      <point x="436" y="525"/>
      <point x="471" y="627"/>
      <point x="481" y="658" type="curve"/>
      <point x="484" y="669"/>
      <point x="484" y="676"/>
      <point x="484" y="680" type="curve" smooth="yes"/>
      <point x="484" y="703"/>
      <point x="464" y="713"/>
      <point x="445" y="713" type="curve" smooth="yes"/>
      <point x="430" y="713"/>
      <point x="418" y="706"/>
      <point x="414" y="691" type="curve" smooth="yes"/>
    </contour>
  </outline>
</glyph>
<glyph name="ocircumflex" format="1">
  <advance width="561"/>
  <unicode hex="00F4"/>
  <outline>
    <contour>
      <point x="381" y="0"/>
      <point x="489" y="122"/>
      <point x="489" y="268" type="curve" smooth="yes"/>
      <point x="489" y="392"/>
      <point x="399" y="500"/>
      <point x="282" y="500" type="curve" smooth="yes"/>
      <point x="155" y="500"/>
      <point x="48" y="377"/>
      <point x="48" y="232" type="curve" smooth="yes"/>
      <point x="48" y="104"/>
      <point x="137" y="0"/>
      <point x="254" y="0" type="curve" smooth="yes"/>
    </contour>
    <contour>
      <point x="340" y="411"/>
      <point x="390" y="342"/>
      <point x="390" y="263" type="curve" smooth="yes"/>
      <point x="390" y="170"/>
      <point x="325" y="89"/>
      <point x="254" y="89" type="curve" smooth="yes"/>
      <point x="189" y="89"/>
      <point x="145" y="155"/>
      <point x="145" y="233" type="curve" smooth="yes"/>
      <point x="145" y="328"/>
      <point x="206" y="411"/>
      <point x="278" y="411" type="curve" smooth="yes"/>
    </contour>
    <contour>
      <point x="161" y="626" type="line" smooth="yes"/>
      <point x="149" y="616"/>
      <point x="143" y="603"/>
      <point x="143" y="590" type="curve" smooth="yes"/>
      <point x="143" y="563"/>
      <point x="165" y="543"/>
      <point x="190" y="543" type="curve" smooth="yes"/>
      <point x="200" y="543"/>
      <point x="208" y="544"/>
      <point x="219" y="552" type="curve" smooth="yes"/>
      <point x="308" y="621" type="line"/>
      <point x="381" y="555" type="line" smooth="yes"/>
      <point x="392" y="545"/>
      <point x="402" y="543"/>
      <point x="414" y="543" type="curve" smooth="yes"/>
      <point x="439" y="543"/>
      <point x="460" y="565"/>
      <point x="460" y="590" type="curve" smooth="yes"/>
      <point x="460" y="603"/>
      <point x="456" y="614"/>
      <point x="446" y="624" type="curve" smooth="yes"/>
      <point x="350" y="720" type="line" smooth="yes"/>
      <point x="338" y="732"/>
      <point x="324" y="738"/>
      <point x="312" y="738" type="curve" smooth="yes"/>
      <point x="303" y="738"/>
      <point x="291" y="735"/>
      <point x="280" y="726" type="curve" smooth="yes"/>
    </contour>
  </outline>
</glyph>
<glyph name="oslash" format="1">
  <advance width="561"/>
  <unicode hex="00F8"/>
  <outline>
    <contour>
      <point x="445" y="471" type="line" smooth="yes"/>
      <point x="451" y="481"/>
      <point x="451" y="489"/>
      <point x="451" y="497" type="curve"/>
      <point x="450" y="522"/>
      <point x="428" y="541"/>
      <point x="404" y="541" type="curve" smooth="yes"/>
      <point x="388" y="541"/>
      <point x="374" y="533"/>
      <point x="365" y="518" type="curve" smooth="yes"/>
      <point x="347" y="488" type="line"/>
      <point x="327" y="495"/>
      <point x="304" y="500"/>
      <point x="282" y="500" type="curve" smooth="yes"/>
      <point x="155" y="500"/>
      <point x="48" y="377"/>
      <point x="48" y="232" type="curve" smooth="yes"/>
      <point x="48" y="168"/>
      <point x="68" y="113"/>
      <point x="104" y="71" type="curve"/>
      <point x="89" y="46" type="line" smooth="yes"/>
      <point x="82" y="34"/>
      <point x="79" y="25"/>
      <point x="79" y="18" type="curve"/>
      <point x="77" y="-8"/>
      <point x="99" y="-32"/>
      <point x="124" y="-32" type="curve" smooth="yes"/>
      <point x="140" y="-32"/>
      <point x="154" y="-23"/>
      <point x="163" y="-9" type="curve" smooth="yes"/>
      <point x="178" y="15" type="line"/>
      <point x="201" y="5"/>
      <point x="227" y="0"/>
      <point x="254" y="0" type="curve" smooth="yes"/>
      <point x="381" y="0"/>
      <point x="489" y="122"/>
      <point x="489" y="268" type="curve" smooth="yes"/>
      <point x="489" y="332"/>
      <point x="463" y="394"/>
      <point x="424" y="437" type="curve"/>
    </contour>
    <contour>
      <point x="243" y="89"/>
      <point x="233" y="90"/>
      <point x="224" y="94" type="curve"/>
      <point x="371" y="345" type="line"/>
      <point x="383" y="322"/>
      <point x="390" y="293"/>
      <point x="390" y="263" type="curve" smooth="yes"/>
      <point x="390" y="170"/>
      <point x="325" y="89"/>
      <point x="254" y="89" type="curve" smooth="yes"/>
    </contour>
    <contour>
      <point x="285" y="411"/>
      <point x="295" y="410"/>
      <point x="301" y="408" type="curve"/>
      <point x="159" y="162" type="line"/>
      <point x="150" y="184"/>
      <point x="145" y="207"/>
      <point x="145" y="233" type="curve" smooth="yes"/>
      <point x="145" y="328"/>
      <point x="206" y="411"/>
      <point x="278" y="411" type="curve" smooth="yes"/>
    </contour>
  </outline>
</glyph>
<glyph name="ugrave" format="1">
  <advance width="538"/>
  <unicode hex="00F9"/>
  <outline>
    <contour>
      <point x="453" y="454" type="line" smooth="yes"/>
      <point x="453" y="481"/>
      <point x="430" y="500"/>
      <point x="405" y="500" type="curve" smooth="yes"/>
      <point x="381" y="500"/>
      <point x="358" y="481"/>
      <point x="358" y="454" type="curve" smooth="yes"/>
      <point x="356" y="169" type="line" smooth="yes"/>
      <point x="356" y="158"/>
      <point x="354" y="148"/>
      <point x="350" y="144" type="curve"/>
      <point x="333" y="125"/>
      <point x="276" y="87"/>
      <point x="222" y="87" type="curve" smooth="yes"/>
      <point x="186" y="87"/>
      <point x="156" y="114"/>
      <point x="156" y="288" type="curve" smooth="yes"/>
      <point x="156" y="351"/>
      <point x="163" y="401"/>
      <point x="166" y="431" type="curve" smooth="yes"/>
      <point x="167" y="439"/>
      <point x="168" y="445"/>
      <point x="168" y="453" type="curve" smooth="yes"/>
      <point x="168" y="485"/>
      <point x="145" y="500"/>
      <point x="120" y="500" type="curve" smooth="yes"/>
      <point x="95" y="500"/>
      <point x="79" y="492"/>
      <point x="73" y="449" type="curve" smooth="yes"/>
      <point x="68" y="414"/>
      <point x="61" y="360"/>
      <point x="62" y="287" type="curve" smooth="yes"/>
      <point x="64" y="22"/>
      <point x="123" y="-3"/>
      <point x="222" y="-3" type="curve" smooth="yes"/>
      <point x="273" y="-3"/>
      <point x="320" y="16"/>
      <point x="354" y="40" type="curve"/>
      <point x="359" y="17"/>
      <point x="378" y="0"/>
      <point x="405" y="0" type="curve" smooth="yes"/>
      <point x="431" y="0"/>
      <point x="453" y="23"/>
      <point x="453" y="48" type="curve" smooth="yes"/>
    </contour>
    <contour>
      <point x="290" y="543" type="line"/>
      <point x="298" y="534"/>
      <point x="309" y="528"/>
      <point x="324" y="528" type="curve" smooth="yes"/>
      <point x="348" y="528"/>
      <point x="372" y="548"/>
      <point x="372" y="575" type="curve" smooth="yes"/>
      <point x="372" y="585"/>
      <point x="369" y="593"/>
      <point x="360" y="605" type="curve" smooth="yes"/>
      <point x="265" y="724" type="line" smooth="yes"/>
      <point x="255" y="736"/>
      <point x="239" y="746"/>
      <point x="221" y="746" type="curve" smooth="yes"/>
      <point x="193" y="746"/>
      <point x="167" y="720"/>
      <point x="167" y="692" type="curve" smooth="yes"/>
      <point x="167" y="676"/>
      <point x="173" y="664"/>
      <point x="183" y="654" type="curve" smooth="yes"/>
    </contour>
  </outline>
</glyph>
<glyph name="uacute" format="1">
  <advance width="538"/>
  <unicode hex="00FA"/>
  <outline>
    <contour>
      <point x="453" y="454" type="line" smooth="yes"/>
      <point x="453" y="481"/>
      <point x="430" y="500"/>
      <point x="405" y="500" type="curve" smooth="yes"/>
      <point x="381" y="500"/>
      <point x="358" y="481"/>
      <point x="358" y="454" type="curve" smooth="yes"/>
      <point x="356" y="169" type="line" smooth="yes"/>
      <point x="356" y="158"/>
      <point x="354" y="148"/>
      <point x="350" y="144" type="curve"/>
      <point x="333" y="125"/>
      <point x="276" y="87"/>
      <point x="222" y="87" type="curve" smooth="yes"/>
      <point x="186" y="87"/>
      <point x="156" y="114"/>
      <point x="156" y="288" type="curve" smooth="yes"/>
      <point x="156" y="351"/>
      <point x="163" y="401"/>
      <point x="166" y="431" type="curve" smooth="yes"/>
      <point x="167" y="439"/>
      <point x="168" y="445"/>
      <point x="168" y="453" type="curve" smooth="yes"/>
      <point x="168" y="485"/>
      <point x="145" y="500"/>
      <point x="120" y="500" type="curve" smooth="yes"/>
      <point x="95" y="500"/>
      <point x="79" y="492"/>
      <point x="73" y="449" type="curve" smooth="yes"/>
      <point x="68" y="414"/>
      <point x="61" y="360"/>
      <point x="62" y="287" type="curve" smooth="yes"/>
      <point x="64" y="22"/>
      <point x="123" y="-3"/>
      <point x="222" y="-3" type="curve" smooth="yes"/>
      <point x="273" y="-3"/>
      <point x="320" y="16"/>
      <point x="354" y="40" type="curve"/>
      <point x="359" y="17"/>
      <point x="378" y="0"/>
      <point x="405" y="0" type="curve" smooth="yes"/>
      <point x="431" y="0"/>
      <point x="453" y="23"/>
      <point x="453" y="48" type="curve" smooth="yes"/>
    </contour>
    <contour>
      <point x="198" y="610" type="line" smooth="yes"/>
      <point x="187" y="601"/>
      <point x="185" y="588"/>
      <point x="185" y="577" type="curve" smooth="yes"/>
      <point x="185" y="550"/>
      <point x="207" y="529"/>
      <point x="231" y="529" type="curve" smooth="yes"/>
      <point x="242" y="529"/>
      <point x="254" y="535"/>
      <point x="264" y="542" type="curve" smooth="yes"/>
      <point x="388" y="627" type="line" smooth="yes"/>
      <point x="402" y="637"/>
      <point x="407" y="652"/>
      <point x="407" y="667" type="curve" smooth="yes"/>
      <point x="407" y="698"/>
      <point x="384" y="722"/>
      <point x="354" y="722" type="curve" smooth="yes"/>
      <point x="337" y="722"/>
      <point x="323" y="711"/>
      <point x="313" y="703" type="curve" smooth="yes"/>
    </contour>
  </outline>
</glyph>
<glyph name="ucircumflex" format="1">
  <advance width="538"/>
  <unicode hex="00FB"/>
  <outline>
    <contour>
      <point x="453" y="454" type="line" smooth="yes"/>
      <point x="453" y="481"/>
      <point x="430" y="500"/>
      <point x="405" y="500" type="curve" smooth="yes"/>
      <point x="381" y="500"/>
      <point x="358" y="481"/>
      <point x="358" y="454" type="curve" smooth="yes"/>
      <point x="356" y="169" type="line" smooth="yes"/>
      <point x="356" y="158"/>
      <point x="354" y="148"/>
      <point x="350" y="144" type="curve"/>
      <point x="333" y="125"/>
      <point x="276" y="87"/>
      <point x="222" y="87" type="curve" smooth="yes"/>
      <point x="186" y="87"/>
      <point x="156" y="114"/>
      <point x="156" y="288" type="curve" smooth="yes"/>
      <point x="156" y="351"/>
      <point x="163" y="401"/>
      <point x="166" y="431" type="curve" smooth="yes"/>
      <point x="167" y="439"/>
      <point x="168" y="445"/>
      <point x="168" y="453" type="curve" smooth="yes"/>
      <point x="168" y="485"/>
      <point x="145" y="500"/>
      <point x="120" y="500" type="curve" smooth="yes"/>
      <point x="95" y="500"/>
      <point x="79" y="492"/>
      <point x="73" y="449" type="curve" smooth="yes"/>
      <point x="68" y="414"/>
      <point x="61" y="360"/>
      <point x="62" y="287" type="curve" smooth="yes"/>
      <point x="64" y="22"/>
      <point x="123" y="-3"/>
      <point x="222" y="-3" type="curve" smooth="yes"/>
      <point x="273" y="-3"/>
      <point x="320" y="16"/>
      <point x="354" y="40" type="curve"/>
      <point x="359" y="17"/>
      <point x="378" y="0"/>
      <point x="405" y="0" type="curve" smooth="yes"/>
      <point x="431" y="0"/>
      <point x="453" y="23"/>
      <point x="453" y="48" type="curve" smooth="yes"/>
    </contour>
    <contour>
      <point x="141" y="626" type="line" smooth="yes"/>
      <point x="129" y="616"/>
      <point x="123" y="603"/>
      <point x="123" y="590" type="curve" smooth="yes"/>
      <point x="123" y="563"/>
      <point x="145" y="543"/>
      <point x="170" y="543" type="curve" smooth="yes"/>
      <point x="180" y="543"/>
      <point x="188" y="544"/>
      <point x="199" y="552" type="curve" smooth="yes"/>
      <point x="288" y="621" type="line"/>
      <point x="361" y="555" type="line" smooth="yes"/>
      <point x="372" y="545"/>
      <point x="382" y="543"/>
      <point x="394" y="543" type="curve" smooth="yes"/>
      <point x="419" y="543"/>
      <point x="440" y="565"/>
      <point x="440" y="590" type="curve" smooth="yes"/>
      <point x="440" y="603"/>
      <point x="436" y="614"/>
      <point x="426" y="624" type="curve" smooth="yes"/>
      <point x="330" y="720" type="line" smooth="yes"/>
      <point x="318" y="732"/>
      <point x="304" y="738"/>
      <point x="292" y="738" type="curve" smooth="yes"/>
      <point x="283" y="738"/>
      <point x="271" y="735"/>
      <point x="260" y="726" type="curve" smooth="yes"/>
    </contour>
  </outline>
</glyph>
<glyph name="udieresis" format="1">
  <advance width="538"/>
  <unicode hex="00FC"/>
  <outline>
    <contour>
      <point x="246" y="639"/>
      <point x="215" y="664"/>
      <point x="183" y="664" type="curve" smooth="yes"/>
      <point x="145" y="664"/>
      <point x="114" y="634"/>
      <point x="114" y="601" type="curve" smooth="yes"/>
      <point x="114" y="567"/>
      <point x="142" y="543"/>
      <point x="177" y="543" type="curve" smooth="yes"/>
      <point x="216" y="543"/>
      <point x="246" y="571"/>
      <point x="246" y="606" type="curve" smooth="yes"/>
    </contour>
    <contour>
      <point x="431" y="639"/>
      <point x="400" y="664"/>
      <point x="367" y="664" type="curve" smooth="yes"/>
      <point x="329" y="664"/>
      <point x="298" y="634"/>
      <point x="298" y="601" type="curve" smooth="yes"/>
      <point x="298" y="567"/>
      <point x="326" y="543"/>
      <point x="362" y="543" type="curve" smooth="yes"/>
      <point x="401" y="543"/>
      <point x="431" y="571"/>
      <point x="431" y="606" type="curve" smooth="yes"/>
    </contour>
    <contour>
      <point x="453" y="454" type="line" smooth="yes"/>
      <point x="453" y="481"/>
      <point x="430" y="500"/>
      <point x="405" y="500" type="curve" smooth="yes"/>
      <point x="381" y="500"/>
      <point x="358" y="481"/>
      <point x="358" y="454" type="curve" smooth="yes"/>
      <point x="356" y="169" type="line" smooth="yes"/>
      <point x="356" y="158"/>
      <point x="354" y="148"/>
      <point x="350" y="144" type="curve"/>
      <point x="333" y="125"/>
      <point x="276" y="87"/>
      <point x="222" y="87" type="curve" smooth="yes"/>
      <point x="186" y="87"/>
      <point x="156" y="114"/>
      <point x="156" y="288" type="curve" smooth="yes"/>
      <point x="156" y="351"/>
      <point x="163" y="401"/>
      <point x="166" y="431" type="curve" smooth="yes"/>
      <point x="167" y="439"/>
      <point x="168" y="445"/>
      <point x="168" y="453" type="curve" smooth="yes"/>
      <point x="168" y="485"/>
      <point x="145" y="500"/>
      <point x="120" y="500" type="curve" smooth="yes"/>
      <point x="95" y="500"/>
      <point x="79" y="492"/>
      <point x="73" y="449" type="curve" smooth="yes"/>
      <point x="68" y="414"/>
      <point x="61" y="360"/>
      <point x="62" y="287" type="curve" smooth="yes"/>
      <point x="64" y="22"/>
      <point x="123" y="-3"/>
      <point x="222" y="-3" type="curve" smooth="yes"/>
      <point x="273" y="-3"/>
      <point x="320" y="16"/>
      <point x="354" y="40" type="curve"/>
      <point x="359" y="17"/>
      <point x="378" y="0"/>
      <point x="405" y="0" type="curve" smooth="yes"/>
      <point x="431" y="0"/>
      <point x="453" y="23"/>
      <point x="453" y="48" type="curve" smooth="yes"/>
    </contour>
  </outline>
</glyph>
<glyph name="yacute" format="1">
  <advance width="515"/>
  <unicode hex="00FD"/>
  <outline>
    <contour>
      <point x="469" y="432" type="line" smooth="yes"/>
      <point x="472" y="439"/>
      <point x="473" y="446"/>
      <point x="473" y="452" type="curve" smooth="yes"/>
      <point x="473" y="480"/>
      <point x="450" y="501"/>
      <point x="425" y="501" type="curve" smooth="yes"/>
      <point x="404" y="501"/>
      <point x="387" y="487"/>
      <point x="379" y="470" type="curve" smooth="yes"/>
      <point x="251" y="191" type="line"/>
      <point x="112" y="470" type="line" smooth="yes"/>
      <point x="104" y="485"/>
      <point x="89" y="500"/>
      <point x="68" y="500" type="curve" smooth="yes"/>
      <point x="41" y="500"/>
      <point x="20" y="478"/>
      <point x="20" y="451" type="curve" smooth="yes"/>
      <point x="20" y="442"/>
      <point x="23" y="433"/>
      <point x="26" y="427" type="curve" smooth="yes"/>
      <point x="199" y="78" type="line"/>
      <point x="114" y="-109" type="line" smooth="yes"/>
      <point x="111" y="-116"/>
      <point x="109" y="-124"/>
      <point x="109" y="-130" type="curve" smooth="yes"/>
      <point x="109" y="-157"/>
      <point x="131" y="-179"/>
      <point x="157" y="-179" type="curve" smooth="yes"/>
      <point x="178" y="-179"/>
      <point x="194" y="-165"/>
      <point x="202" y="-148" type="curve" smooth="yes"/>
    </contour>
    <contour>
      <point x="168" y="610" type="line" smooth="yes"/>
      <point x="157" y="601"/>
      <point x="155" y="588"/>
      <point x="155" y="577" type="curve" smooth="yes"/>
      <point x="155" y="550"/>
      <point x="177" y="529"/>
      <point x="201" y="529" type="curve" smooth="yes"/>
      <point x="212" y="529"/>
      <point x="224" y="535"/>
      <point x="234" y="542" type="curve" smooth="yes"/>
      <point x="358" y="627" type="line" smooth="yes"/>
      <point x="372" y="637"/>
      <point x="377" y="652"/>
      <point x="377" y="667" type="curve" smooth="yes"/>
      <point x="377" y="698"/>
      <point x="354" y="722"/>
      <point x="324" y="722" type="curve" smooth="yes"/>
      <point x="307" y="722"/>
      <point x="293" y="711"/>
      <point x="283" y="703" type="curve" smooth="yes"/>
    </contour>
  </outline>
</glyph>
<glyph name="Abreve" format="1">
  <advance width="650"/>
  <unicode hex="0102"/>
  <outline>
    <contour>
      <point x="375" y="655" type="line" smooth="yes"/>
      <point x="367" y="679"/>
      <point x="349" y="688"/>
      <point x="329" y="688" type="curve" smooth="yes"/>
      <point x="309" y="688"/>
      <point x="290" y="677"/>
      <point x="282" y="657" type="curve" smooth="yes"/>
      <point x="134" y="281" type="line"/>
      <point x="97" y="273" type="line" smooth="yes"/>
      <point x="75" y="268"/>
      <point x="59" y="249"/>
      <point x="59" y="225" type="curve" smooth="yes"/>
      <point x="59" y="201"/>
      <point x="73" y="184"/>
      <point x="94" y="177" type="curve"/>
      <point x="50" y="67" type="line" smooth="yes"/>
      <point x="48" y="62"/>
      <point x="47" y="56"/>
      <point x="47" y="49" type="curve" smooth="yes"/>
      <point x="47" y="25"/>
      <point x="67" y="0"/>
      <point x="97" y="0" type="curve" smooth="yes"/>
      <point x="121" y="0"/>
      <point x="136" y="15"/>
      <point x="143" y="32" type="curve" smooth="yes"/>
      <point x="208" y="196" type="line"/>
      <point x="412" y="241" type="line"/>
      <point x="484" y="33" type="line" smooth="yes"/>
      <point x="493" y="8"/>
      <point x="507" y="-1"/>
      <point x="531" y="-1" type="curve" smooth="yes"/>
      <point x="561" y="-1"/>
      <point x="581" y="22"/>
      <point x="581" y="48" type="curve" smooth="yes"/>
      <point x="581" y="53"/>
      <point x="580" y="61"/>
      <point x="578" y="67" type="curve" smooth="yes"/>
    </contour>
    <contour>
      <point x="250" y="306" type="line"/>
      <point x="325" y="495" type="line"/>
      <point x="379" y="334" type="line"/>
    </contour>
    <contour>
      <point x="156" y="810"/>
      <point x="198" y="709"/>
      <point x="322" y="709" type="curve" smooth="yes"/>
      <point x="423" y="709"/>
      <point x="479" y="791"/>
      <point x="479" y="840" type="curve" smooth="yes"/>
      <point x="479" y="860"/>
      <point x="461" y="878"/>
      <point x="441" y="878" type="curve" smooth="yes"/>
      <point x="415" y="878"/>
      <point x="407" y="863"/>
      <point x="399" y="844" type="curve" smooth="yes"/>
      <point x="385" y="810"/>
      <point x="360" y="796"/>
      <point x="324" y="796" type="curve" smooth="yes"/>
      <point x="296" y="796"/>
      <point x="252" y="808"/>
      <point x="235" y="844" type="curve" smooth="yes"/>
      <point x="229" y="856"/>
      <point x="216" y="873"/>
      <point x="195" y="873" type="curve" smooth="yes"/>
      <point x="158" y="873"/>
      <point x="156" y="851"/>
      <point x="156" y="836" type="curve" smooth="yes"/>
    </contour>
  </outline>
</glyph>
<glyph name="Aogonek" format="1">
  <advance width="650"/>
  <unicode hex="0104"/>
  <outline>
    <contour>
      <point x="563" y="-196"/>
      <point x="637" y="-168"/>
      <point x="637" y="-126" type="curve" smooth="yes"/>
      <point x="637" y="-102"/>
      <point x="614" y="-80"/>
      <point x="593" y="-80" type="curve" smooth="yes"/>
      <point x="583" y="-80"/>
      <point x="575" y="-82"/>
      <point x="564" y="-90" type="curve"/>
      <point x="552" y="-100"/>
      <point x="537" y="-104"/>
      <point x="524" y="-104" type="curve" smooth="yes"/>
      <point x="509" y="-104"/>
      <point x="496" y="-95"/>
      <point x="496" y="-80" type="curve" smooth="yes"/>
      <point x="496" y="-54"/>
      <point x="522" y="-35"/>
      <point x="541" y="-21" type="curve" smooth="yes"/>
      <point x="568" y="-1"/>
      <point x="593" y="22"/>
      <point x="578" y="67" type="curve" smooth="yes"/>
      <point x="375" y="655" type="line" smooth="yes"/>
      <point x="367" y="679"/>
      <point x="349" y="688"/>
      <point x="329" y="688" type="curve" smooth="yes"/>
      <point x="309" y="688"/>
      <point x="290" y="677"/>
      <point x="282" y="657" type="curve" smooth="yes"/>
      <point x="134" y="281" type="line"/>
      <point x="97" y="273" type="line" smooth="yes"/>
      <point x="75" y="268"/>
      <point x="59" y="249"/>
      <point x="59" y="225" type="curve" smooth="yes"/>
      <point x="59" y="201"/>
      <point x="73" y="184"/>
      <point x="94" y="177" type="curve"/>
      <point x="50" y="67" type="line" smooth="yes"/>
      <point x="48" y="62"/>
      <point x="47" y="56"/>
      <point x="47" y="49" type="curve" smooth="yes"/>
      <point x="47" y="25"/>
      <point x="67" y="0"/>
      <point x="97" y="0" type="curve" smooth="yes"/>
      <point x="121" y="0"/>
      <point x="136" y="15"/>
      <point x="143" y="32" type="curve" smooth="yes"/>
      <point x="208" y="196" type="line"/>
      <point x="412" y="241" type="line"/>
      <point x="479" y="46" type="line"/>
      <point x="440" y="18"/>
      <point x="405" y="-26"/>
      <point x="405" y="-79" type="curve" smooth="yes"/>
      <point x="405" y="-147"/>
      <point x="456" y="-196"/>
      <point x="524" y="-196" type="curve" smooth="yes"/>
    </contour>
    <contour>
      <point x="250" y="306" type="line"/>
      <point x="325" y="495" type="line"/>
      <point x="379" y="334" type="line"/>
    </contour>
  </outline>
</glyph>
<glyph name="dcaron" format="1">
  <advance width="571"/>
  <unicode hex="010F"/>
  <outline>
    <contour>
      <point x="465" y="628" type="line" smooth="yes"/>
      <point x="466" y="655"/>
      <point x="442" y="679"/>
      <point x="417" y="679" type="curve" smooth="yes"/>
      <point x="390" y="679"/>
      <point x="369" y="657"/>
      <point x="368" y="630" type="curve" smooth="yes"/>
      <point x="363" y="481" type="line"/>
      <point x="335" y="490"/>
      <point x="299" y="498"/>
      <point x="261" y="498" type="curve" smooth="yes"/>
      <point x="103" y="498"/>
      <point x="43" y="369"/>
      <point x="43" y="228" type="curve" smooth="yes"/>
      <point x="43" y="117"/>
      <point x="100" y="4"/>
      <point x="222" y="4" type="curve" smooth="yes"/>
      <point x="277" y="4"/>
      <point x="321" y="23"/>
      <point x="354" y="45" type="curve"/>
      <point x="356" y="22"/>
      <point x="373" y="0"/>
      <point x="402" y="0" type="curve" smooth="yes"/>
      <point x="429" y="0"/>
      <point x="450" y="20"/>
      <point x="451" y="46" type="curve" smooth="yes"/>
    </contour>
    <contour>
      <point x="139" y="301"/>
      <point x="158" y="403"/>
      <point x="262" y="403" type="curve" smooth="yes"/>
      <point x="299" y="403"/>
      <point x="340" y="387"/>
      <point x="362" y="377" type="curve"/>
      <point x="358" y="170" type="line" smooth="yes"/>
      <point x="358" y="148"/>
      <point x="303" y="94"/>
      <point x="222" y="94" type="curve" smooth="yes"/>
      <point x="157" y="94"/>
      <point x="139" y="174"/>
      <point x="139" y="231" type="curve" smooth="yes"/>
    </contour>
    <contour>
      <point x="610" y="699"/>
      <point x="587" y="722"/>
      <point x="558" y="722" type="curve" smooth="yes"/>
      <point x="527" y="722"/>
      <point x="499" y="692"/>
      <point x="499" y="659" type="curve" smooth="yes"/>
      <point x="499" y="647"/>
      <point x="502" y="637"/>
      <point x="507" y="628" type="curve"/>
      <point x="489" y="581" type="line" smooth="yes"/>
      <point x="487" y="576"/>
      <point x="486" y="572"/>
      <point x="486" y="565" type="curve" smooth="yes"/>
      <point x="486" y="542"/>
      <point x="505" y="523"/>
      <point x="530" y="523" type="curve" smooth="yes"/>
      <point x="556" y="523"/>
      <point x="567" y="541"/>
      <point x="576" y="562" type="curve" smooth="yes"/>
      <point x="592" y="600"/>
      <point x="610" y="650"/>
      <point x="610" y="671" type="curve" smooth="yes"/>
    </contour>
  </outline>
</glyph>
<glyph name="Dcroat" format="1">
  <advance width="681"/>
  <unicode hex="0110"/>
  <outline>
    <contour>
      <point x="469" y="-19"/>
      <point x="626" y="79"/>
      <point x="626" y="303" type="curve" smooth="yes"/>
      <point x="626" y="626"/>
      <point x="328" y="681"/>
      <point x="168" y="681" type="curve" smooth="yes"/>
      <point x="140" y="681"/>
      <point x="118" y="660"/>
      <point x="118" y="632" type="curve" smooth="yes"/>
      <point x="118" y="361" type="line"/>
      <point x="83" y="361" type="line" smooth="yes"/>
      <point x="57" y="361"/>
      <point x="33" y="339"/>
      <point x="33" y="311" type="curve" smooth="yes"/>
      <point x="33" y="285"/>
      <point x="57" y="262"/>
      <point x="83" y="262" type="curve" smooth="yes"/>
      <point x="118" y="262" type="line"/>
      <point x="118" y="47" type="line" smooth="yes"/>
      <point x="118" y="25"/>
      <point x="135" y="4"/>
      <point x="156" y="-2" type="curve"/>
      <point x="165" y="-5"/>
      <point x="221" y="-19"/>
      <point x="276" y="-19" type="curve" smooth="yes"/>
    </contour>
    <contour>
      <point x="218" y="579" type="line"/>
      <point x="385" y="566"/>
      <point x="526" y="494"/>
      <point x="526" y="303" type="curve" smooth="yes"/>
      <point x="526" y="154"/>
      <point x="428" y="81"/>
      <point x="276" y="81" type="curve" smooth="yes"/>
      <point x="256" y="81"/>
      <point x="235" y="84"/>
      <point x="218" y="87" type="curve"/>
      <point x="218" y="262" type="line"/>
      <point x="288" y="262" type="line" smooth="yes"/>
      <point x="315" y="262"/>
      <point x="338" y="285"/>
      <point x="338" y="311" type="curve" smooth="yes"/>
      <point x="338" y="339"/>
      <point x="315" y="361"/>
      <point x="288" y="361" type="curve" smooth="yes"/>
      <point x="218" y="361" type="line"/>
    </contour>
  </outline>
</glyph>
<glyph name="Ecaron" format="1">
  <advance width="636"/>
  <unicode hex="011A"/>
  <outline>
    <contour>
      <point x="455" y="821" type="line" smooth="yes"/>
      <point x="467" y="831"/>
      <point x="473" y="844"/>
      <point x="473" y="857" type="curve" smooth="yes"/>
      <point x="473" y="884"/>
      <point x="451" y="904"/>
      <point x="426" y="904" type="curve" smooth="yes"/>
      <point x="416" y="904"/>
      <point x="408" y="903"/>
      <point x="397" y="895" type="curve" smooth="yes"/>
      <point x="308" y="826" type="line"/>
      <point x="235" y="892" type="line" smooth="yes"/>
      <point x="224" y="902"/>
      <point x="214" y="904"/>
      <point x="202" y="904" type="curve" smooth="yes"/>
      <point x="177" y="904"/>
      <point x="156" y="882"/>
      <point x="156" y="857" type="curve" smooth="yes"/>
      <point x="156" y="844"/>
      <point x="160" y="833"/>
      <point x="170" y="823" type="curve" smooth="yes"/>
      <point x="266" y="727" type="line" smooth="yes"/>
      <point x="278" y="715"/>
      <point x="292" y="709"/>
      <point x="304" y="709" type="curve" smooth="yes"/>
      <point x="313" y="709"/>
      <point x="325" y="712"/>
      <point x="336" y="721" type="curve" smooth="yes"/>
    </contour>
    <contour>
      <point x="160" y="100" type="line"/>
      <point x="160" y="302" type="line"/>
      <point x="464" y="302" type="line" smooth="yes"/>
      <point x="492" y="302"/>
      <point x="513" y="324"/>
      <point x="513" y="352" type="curve" smooth="yes"/>
      <point x="513" y="380"/>
      <point x="492" y="401"/>
      <point x="464" y="401" type="curve" smooth="yes"/>
      <point x="160" y="401" type="line"/>
      <point x="160" y="582" type="line"/>
      <point x="510" y="582" type="line" smooth="yes"/>
      <point x="538" y="582"/>
      <point x="559" y="605"/>
      <point x="559" y="632" type="curve" smooth="yes"/>
      <point x="559" y="660"/>
      <point x="538" y="682"/>
      <point x="510" y="682" type="curve" smooth="yes"/>
      <point x="111" y="682" type="line" smooth="yes"/>
      <point x="83" y="682"/>
      <point x="61" y="660"/>
      <point x="61" y="632" type="curve" smooth="yes"/>
      <point x="61" y="50" type="line" smooth="yes"/>
      <point x="61" y="22"/>
      <point x="83" y="0"/>
      <point x="111" y="0" type="curve" smooth="yes"/>
      <point x="508" y="0" type="line" smooth="yes"/>
      <point x="536" y="0"/>
      <point x="557" y="22"/>
      <point x="557" y="50" type="curve" smooth="yes"/>
      <point x="557" y="78"/>
      <point x="536" y="100"/>
      <point x="508" y="100" type="curve" smooth="yes"/>
    </contour>
  </outline>
</glyph>
<glyph name="Lslash" format="1">
  <advance width="554"/>
  <unicode hex="0141"/>
  <outline>
    <contour>
      <point x="37" y="329" type="line" smooth="yes"/>
      <point x="22" y="319"/>
      <point x="15" y="304"/>
      <point x="15" y="286" type="curve" smooth="yes"/>
      <point x="15" y="253"/>
      <point x="41" y="238"/>
      <point x="64" y="238" type="curve" smooth="yes"/>
      <point x="74" y="238"/>
      <point x="83" y="240"/>
      <point x="91" y="245" type="curve" smooth="yes"/>
      <point x="107" y="255" type="line"/>
      <point x="107" y="49" type="line" smooth="yes"/>
      <point x="107" y="22"/>
      <point x="132" y="-2"/>
      <point x="159" y="0" type="curve" smooth="yes"/>
      <point x="482" y="22" type="line" smooth="yes"/>
      <point x="507" y="24"/>
      <point x="527" y="48"/>
      <point x="527" y="72" type="curve" smooth="yes"/>
      <point x="527" y="103"/>
      <point x="504" y="123"/>
      <point x="474" y="121" type="curve" smooth="yes"/>
      <point x="206" y="102" type="line"/>
      <point x="206" y="317" type="line"/>
      <point x="276" y="362" type="line" smooth="yes"/>
      <point x="293" y="373"/>
      <point x="299" y="387"/>
      <point x="299" y="402" type="curve" smooth="yes"/>
      <point x="299" y="432"/>
      <point x="275" y="453"/>
      <point x="248" y="453" type="curve" smooth="yes"/>
      <point x="240" y="453"/>
      <point x="232" y="452"/>
      <point x="221" y="445" type="curve" smooth="yes"/>
      <point x="206" y="435" type="line"/>
      <point x="206" y="632" type="line" smooth="yes"/>
      <point x="206" y="658"/>
      <point x="183" y="681"/>
      <point x="157" y="681" type="curve" smooth="yes"/>
      <point x="129" y="681"/>
      <point x="107" y="658"/>
      <point x="107" y="632" type="curve" smooth="yes"/>
      <point x="107" y="373" type="line"/>
    </contour>
  </outline>
</glyph>
<glyph name="Nacute" format="1">
  <advance width="645"/>
  <unicode hex="0143"/>
  <outline>
    <contour>
      <point x="473" y="22" type="line" smooth="yes"/>
      <point x="483" y="8"/>
      <point x="499" y="0"/>
      <point x="514" y="0" type="curve" smooth="yes"/>
      <point x="541" y="0"/>
      <point x="563" y="20"/>
      <point x="563" y="49" type="curve" smooth="yes"/>
      <point x="563" y="632" type="line" smooth="yes"/>
      <point x="563" y="659"/>
      <point x="540" y="682"/>
      <point x="514" y="682" type="curve" smooth="yes"/>
      <point x="486" y="682"/>
      <point x="464" y="659"/>
      <point x="464" y="632" type="curve" smooth="yes"/>
      <point x="464" y="207" type="line"/>
      <point x="151" y="660" type="line" smooth="yes"/>
      <point x="142" y="673"/>
      <point x="125" y="681"/>
      <point x="110" y="681" type="curve" smooth="yes"/>
      <point x="81" y="681"/>
      <point x="62" y="658"/>
      <point x="62" y="632" type="curve" smooth="yes"/>
      <point x="61" y="49" type="line" smooth="yes"/>
      <point x="61" y="23"/>
      <point x="84" y="0"/>
      <point x="110" y="0" type="curve" smooth="yes"/>
      <point x="138" y="0"/>
      <point x="160" y="21"/>
      <point x="160" y="49" type="curve" smooth="yes"/>
      <point x="161" y="473" type="line"/>
    </contour>
    <contour>
      <point x="233" y="790" type="line" smooth="yes"/>
      <point x="222" y="781"/>
      <point x="220" y="768"/>
      <point x="220" y="757" type="curve" smooth="yes"/>
      <point x="220" y="730"/>
      <point x="242" y="709"/>
      <point x="266" y="709" type="curve" smooth="yes"/>
      <point x="277" y="709"/>
      <point x="289" y="715"/>
      <point x="299" y="722" type="curve" smooth="yes"/>
      <point x="423" y="807" type="line" smooth="yes"/>
      <point x="437" y="817"/>
      <point x="442" y="832"/>
      <point x="442" y="847" type="curve" smooth="yes"/>
      <point x="442" y="878"/>
      <point x="419" y="902"/>
      <point x="389" y="902" type="curve" smooth="yes"/>
      <point x="372" y="902"/>
      <point x="358" y="891"/>
      <point x="348" y="883" type="curve" smooth="yes"/>
    </contour>
  </outline>
</glyph>
<glyph name="oe" format="1">
  <advance width="903"/>
  <unicode hex="0153"/>
  <outline>
    <contour>
      <point x="387" y="178"/>
      <point x="332" y="87"/>
      <point x="257" y="87" type="curve" smooth="yes"/>
      <point x="198" y="87"/>
      <point x="152" y="145"/>
      <point x="152" y="226" type="curve" smooth="yes"/>
      <point x="152" y="315"/>
      <point x="210" y="397"/>
      <point x="279" y="397" type="curve" smooth="yes"/>
      <point x="338" y="397"/>
      <point x="387" y="337"/>
      <point x="387" y="244" type="curve" smooth="yes"/>
    </contour>
    <contour>
      <point x="708" y="112"/>
      <point x="672" y="93"/>
      <point x="639" y="93" type="curve" smooth="yes"/>
      <point x="585" y="93"/>
      <point x="538" y="112"/>
      <point x="509" y="148" type="curve"/>
      <point x="602" y="201"/>
      <point x="677" y="245"/>
      <point x="769" y="298" type="curve"/>
      <point x="789" y="311"/>
      <point x="801" y="327"/>
      <point x="801" y="344" type="curve" smooth="yes"/>
      <point x="801" y="391"/>
      <point x="742" y="484"/>
      <point x="617" y="484" type="curve" smooth="yes"/>
      <point x="556" y="484"/>
      <point x="489" y="457"/>
      <point x="445" y="396" type="curve"/>
      <point x="408" y="451"/>
      <point x="347" y="485"/>
      <point x="284" y="485" type="curve" smooth="yes"/>
      <point x="148" y="485"/>
      <point x="56" y="349"/>
      <point x="56" y="223" type="curve" smooth="yes"/>
      <point x="56" y="102"/>
      <point x="142" y="0"/>
      <point x="257" y="0" type="curve" smooth="yes"/>
      <point x="329" y="0"/>
      <point x="392" y="33"/>
      <point x="435" y="100" type="curve"/>
      <point x="481" y="32"/>
      <point x="547" y="0"/>
      <point x="633" y="0" type="curve" smooth="yes"/>
      <point x="694" y="0"/>
      <point x="762" y="33"/>
      <point x="797" y="74" type="curve"/>
      <point x="804" y="81"/>
      <point x="809" y="92"/>
      <point x="809" y="104" type="curve" smooth="yes"/>
      <point x="809" y="131"/>
      <point x="789" y="151"/>
      <point x="762" y="151" type="curve" smooth="yes"/>
      <point x="749" y="151"/>
      <point x="738" y="144"/>
      <point x="729" y="135" type="curve"/>
    </contour>
    <contour>
      <point x="480" y="237" type="line"/>
      <point x="484" y="325"/>
      <point x="538" y="395"/>
      <point x="615" y="395" type="curve" smooth="yes"/>
      <point x="661" y="395"/>
      <point x="690" y="384"/>
      <point x="706" y="362" type="curve"/>
    </contour>
  </outline>
</glyph>
<glyph name="Racute" format="1">
  <advance width="623"/>
  <unicode hex="0154"/>
  <outline>
    <contour>
      <point x="499" y="171"/>
      <point x="431" y="238"/>
      <point x="384" y="275" type="curve"/>
      <point x="463" y="310"/>
      <point x="532" y="368"/>
      <point x="532" y="469" type="curve" smooth="yes"/>
      <point x="532" y="607"/>
      <point x="406" y="687"/>
      <point x="182" y="687" type="curve" smooth="yes"/>
      <point x="79" y="687"/>
      <point x="61" y="689"/>
      <point x="61" y="627" type="curve" smooth="yes"/>
      <point x="61" y="49" type="line" smooth="yes"/>
      <point x="61" y="21"/>
      <point x="82" y="0"/>
      <point x="110" y="0" type="curve" smooth="yes"/>
      <point x="136" y="0"/>
      <point x="159" y="21"/>
      <point x="159" y="49" type="curve" smooth="yes"/>
      <point x="159" y="227" type="line"/>
      <point x="183" y="231"/>
      <point x="207" y="233"/>
      <point x="226" y="233" type="curve" smooth="yes"/>
      <point x="261" y="233"/>
      <point x="345" y="225"/>
      <point x="462" y="26" type="curve" smooth="yes"/>
      <point x="472" y="10"/>
      <point x="487" y="0"/>
      <point x="506" y="0" type="curve" smooth="yes"/>
      <point x="536" y="0"/>
      <point x="555" y="24"/>
      <point x="555" y="49" type="curve" smooth="yes"/>
      <point x="555" y="56"/>
      <point x="554" y="64"/>
      <point x="550" y="72" type="curve" smooth="yes"/>
    </contour>
    <contour>
      <point x="159" y="589" type="line"/>
      <point x="179" y="589" type="line" smooth="yes"/>
      <point x="339" y="589"/>
      <point x="433" y="548"/>
      <point x="433" y="469" type="curve" smooth="yes"/>
      <point x="433" y="374"/>
      <point x="281" y="332"/>
      <point x="159" y="324" type="curve"/>
    </contour>
    <contour>
      <point x="218" y="790" type="line" smooth="yes"/>
      <point x="207" y="781"/>
      <point x="205" y="768"/>
      <point x="205" y="757" type="curve" smooth="yes"/>
      <point x="205" y="730"/>
      <point x="227" y="709"/>
      <point x="251" y="709" type="curve" smooth="yes"/>
      <point x="262" y="709"/>
      <point x="274" y="715"/>
      <point x="284" y="722" type="curve" smooth="yes"/>
      <point x="408" y="807" type="line" smooth="yes"/>
      <point x="422" y="817"/>
      <point x="427" y="832"/>
      <point x="427" y="847" type="curve" smooth="yes"/>
      <point x="427" y="878"/>
      <point x="404" y="902"/>
      <point x="374" y="902" type="curve" smooth="yes"/>
      <point x="357" y="902"/>
      <point x="343" y="891"/>
      <point x="333" y="883" type="curve" smooth="yes"/>
    </contour>
  </outline>
</glyph>
<glyph name="rcaron" format="1">
  <advance width="422"/>
  <unicode hex="0159"/>
  <outline>
    <contour>
      <point x="387" y="406" type="line" smooth="yes"/>
      <point x="387" y="449"/>
      <point x="366" y="501"/>
      <point x="291" y="501" type="curve" smooth="yes"/>
      <point x="232" y="501"/>
      <point x="188" y="472"/>
      <point x="157" y="437" type="curve"/>
      <point x="157" y="451" type="line" smooth="yes"/>
      <point x="157" y="478"/>
      <point x="135" y="499"/>
      <point x="108" y="499" type="curve" smooth="yes"/>
      <point x="82" y="499"/>
      <point x="59" y="478"/>
      <point x="59" y="451" type="curve" smooth="yes"/>
      <point x="59" y="46" type="line" smooth="yes"/>
      <point x="59" y="22"/>
      <point x="83" y="0"/>
      <point x="108" y="0" type="curve" smooth="yes"/>
      <point x="133" y="0"/>
      <point x="156" y="22"/>
      <point x="156" y="46" type="curve" smooth="yes"/>
      <point x="157" y="250" type="line" smooth="yes"/>
      <point x="157" y="281"/>
      <point x="168" y="314"/>
      <point x="183" y="333" type="curve" smooth="yes"/>
      <point x="213" y="373"/>
      <point x="247" y="406"/>
      <point x="279" y="406" type="curve" smooth="yes"/>
      <point x="291" y="406"/>
      <point x="293" y="400"/>
      <point x="293" y="390" type="curve" smooth="yes"/>
      <point x="293" y="377" type="line" smooth="yes"/>
      <point x="293" y="354"/>
      <point x="305" y="329"/>
      <point x="340" y="329" type="curve" smooth="yes"/>
      <point x="367" y="329"/>
      <point x="387" y="350"/>
      <point x="387" y="376" type="curve" smooth="yes"/>
    </contour>
    <contour>
      <point x="385" y="640" type="line" smooth="yes"/>
      <point x="397" y="650"/>
      <point x="403" y="663"/>
      <point x="403" y="676" type="curve" smooth="yes"/>
      <point x="403" y="703"/>
      <point x="381" y="723"/>
      <point x="356" y="723" type="curve" smooth="yes"/>
      <point x="346" y="723"/>
      <point x="338" y="722"/>
      <point x="327" y="714" type="curve" smooth="yes"/>
      <point x="238" y="645" type="line"/>
      <point x="165" y="711" type="line" smooth="yes"/>
      <point x="154" y="721"/>
      <point x="144" y="723"/>
      <point x="132" y="723" type="curve" smooth="yes"/>
      <point x="107" y="723"/>
      <point x="86" y="701"/>
      <point x="86" y="676" type="curve" smooth="yes"/>
      <point x="86" y="663"/>
      <point x="90" y="652"/>
      <point x="100" y="642" type="curve" smooth="yes"/>
      <point x="196" y="546" type="line" smooth="yes"/>
      <point x="208" y="534"/>
      <point x="222" y="528"/>
      <point x="234" y="528" type="curve" smooth="yes"/>
      <point x="243" y="528"/>
      <point x="255" y="531"/>
      <point x="266" y="540" type="curve" smooth="yes"/>
    </contour>
  </outline>
</glyph>
<glyph name="sacute" format="1">
  <advance width="484"/>
  <unicode hex="015B"/>
  <outline>
    <contour>
      <point x="133" y="172"/>
      <point x="117" y="186"/>
      <point x="94" y="186" type="curve" smooth="yes"/>
      <point x="68" y="186"/>
      <point x="47" y="165"/>
      <point x="47" y="139" type="curve" smooth="yes"/>
      <point x="47" y="102"/>
      <point x="108" y="-2"/>
      <point x="235" y="-2" type="curve" smooth="yes"/>
      <point x="344" y="-2"/>
      <point x="413" y="77"/>
      <point x="413" y="149" type="curve" smooth="yes"/>
      <point x="413" y="256"/>
      <point x="340" y="279"/>
      <point x="247" y="309" type="curve" smooth="yes"/>
      <point x="217" y="318"/>
      <point x="166" y="332"/>
      <point x="166" y="367" type="curve" smooth="yes"/>
      <point x="166" y="393"/>
      <point x="202" y="410"/>
      <point x="253" y="410" type="curve" smooth="yes"/>
      <point x="301" y="410"/>
      <point x="320" y="395"/>
      <point x="320" y="375" type="curve" smooth="yes"/>
      <point x="320" y="367"/>
      <point x="319" y="362"/>
      <point x="319" y="357" type="curve" smooth="yes"/>
      <point x="319" y="332"/>
      <point x="334" y="310"/>
      <point x="366" y="310" type="curve" smooth="yes"/>
      <point x="400" y="310"/>
      <point x="414" y="332"/>
      <point x="414" y="374" type="curve" smooth="yes"/>
      <point x="414" y="450"/>
      <point x="357" y="499"/>
      <point x="251" y="499" type="curve" smooth="yes"/>
      <point x="177" y="499"/>
      <point x="73" y="472"/>
      <point x="73" y="368" type="curve" smooth="yes"/>
      <point x="73" y="292"/>
      <point x="121" y="251"/>
      <point x="229" y="218" type="curve" smooth="yes"/>
      <point x="304" y="195"/>
      <point x="320" y="179"/>
      <point x="320" y="150" type="curve" smooth="yes"/>
      <point x="320" y="131"/>
      <point x="299" y="90"/>
      <point x="235" y="90" type="curve" smooth="yes"/>
      <point x="187" y="90"/>
      <point x="152" y="114"/>
      <point x="139" y="153" type="curve" smooth="yes"/>
    </contour>
    <contour>
      <point x="163" y="610" type="line" smooth="yes"/>
      <point x="152" y="601"/>
      <point x="150" y="588"/>
      <point x="150" y="577" type="curve" smooth="yes"/>
      <point x="150" y="550"/>
      <point x="172" y="529"/>
      <point x="196" y="529" type="curve" smooth="yes"/>
      <point x="207" y="529"/>
      <point x="219" y="535"/>
      <point x="229" y="542" type="curve" smooth="yes"/>
      <point x="353" y="627" type="line" smooth="yes"/>
      <point x="367" y="637"/>
      <point x="372" y="652"/>
      <point x="372" y="667" type="curve" smooth="yes"/>
      <point x="372" y="698"/>
      <point x="349" y="722"/>
      <point x="319" y="722" type="curve" smooth="yes"/>
      <point x="302" y="722"/>
      <point x="288" y="711"/>
      <point x="278" y="703" type="curve" smooth="yes"/>
    </contour>
  </outline>
</glyph>
<glyph name="Scedilla" format="1">
  <advance width="624"/>
  <unicode hex="015E"/>
  <outline>
    <contour>
      <point x="287" y="-118"/>
      <point x="280" y="-109"/>
      <point x="263" y="-109" type="curve" smooth="yes"/>
      <point x="240" y="-109"/>
      <point x="227" y="-131"/>
      <point x="227" y="-148" type="curve" smooth="yes"/>
      <point x="227" y="-180"/>
      <point x="268" y="-196"/>
      <point x="306" y="-196" type="curve" smooth="yes"/>
      <point x="364" y="-196"/>
      <point x="411" y="-168"/>
      <point x="411" y="-110" type="curve" smooth="yes"/>
      <point x="411" y="-61"/>
      <point x="380" y="-37"/>
      <point x="320" y="-27" type="curve"/>
      <point x="320" y="-20"/>
      <point x="319" y="-9"/>
      <point x="318" y="0" type="curve"/>
      <point x="423" y="5"/>
      <point x="547" y="68"/>
      <point x="547" y="201" type="curve" smooth="yes"/>
      <point x="547" y="299"/>
      <point x="474" y="366"/>
      <point x="326" y="407" type="curve" smooth="yes"/>
      <point x="239" y="431"/>
      <point x="195" y="460"/>
      <point x="195" y="504" type="curve" smooth="yes"/>
      <point x="195" y="566"/>
      <point x="256" y="589"/>
      <point x="325" y="589" type="curve" smooth="yes"/>
      <point x="380" y="589"/>
      <point x="440" y="567"/>
      <point x="447" y="525" type="curve" smooth="yes"/>
      <point x="451" y="502"/>
      <point x="470" y="483"/>
      <point x="495" y="483" type="curve" smooth="yes"/>
      <point x="523" y="483"/>
      <point x="544" y="505"/>
      <point x="544" y="535" type="curve" smooth="yes"/>
      <point x="544" y="655"/>
      <point x="405" y="682"/>
      <point x="328" y="682" type="curve" smooth="yes"/>
      <point x="210" y="682"/>
      <point x="88" y="640"/>
      <point x="88" y="500" type="curve" smooth="yes"/>
      <point x="88" y="387"/>
      <point x="202" y="335"/>
      <point x="301" y="309" type="curve" smooth="yes"/>
      <point x="432" y="274"/>
      <point x="441" y="229"/>
      <point x="441" y="196" type="curve" smooth="yes"/>
      <point x="441" y="127"/>
      <point x="365" y="96"/>
      <point x="305" y="96" type="curve" smooth="yes"/>
      <point x="248" y="96"/>
      <point x="178" y="123"/>
      <point x="157" y="183" type="curve" smooth="yes"/>
      <point x="149" y="205"/>
      <point x="132" y="220"/>
      <point x="107" y="220" type="curve" smooth="yes"/>
      <point x="78" y="220"/>
      <point x="56" y="197"/>
      <point x="56" y="170" type="curve" smooth="yes"/>
      <point x="56" y="162"/>
      <point x="58" y="152"/>
      <point x="61" y="145" type="curve" smooth="yes"/>
      <point x="92" y="73"/>
      <point x="169" y="17"/>
      <point x="262" y="3" type="curve"/>
      <point x="258" y="-7"/>
      <point x="255" y="-20"/>
      <point x="251" y="-35" type="curve" smooth="yes"/>
      <point x="246" y="-53"/>
      <point x="248" y="-69"/>
      <point x="267" y="-73" type="curve" smooth="yes"/>
      <point x="316" y="-83" type="line" smooth="yes"/>
      <point x="332" y="-86"/>
      <point x="340" y="-94"/>
      <point x="340" y="-106" type="curve" smooth="yes"/>
      <point x="340" y="-118"/>
      <point x="333" y="-132"/>
      <point x="317" y="-132" type="curve" smooth="yes"/>
      <point x="308" y="-132"/>
      <point x="302" y="-130"/>
      <point x="297" y="-126" type="curve" smooth="yes"/>
    </contour>
  </outline>
</glyph>
<glyph name="Scaron" format="1">
  <advance width="624"/>
  <unicode hex="0160"/>
  <outline>
    <contour>
      <point x="432" y="274"/>
      <point x="441" y="229"/>
      <point x="441" y="196" type="curve" smooth="yes"/>
      <point x="441" y="127"/>
      <point x="365" y="96"/>
      <point x="305" y="96" type="curve" smooth="yes"/>
      <point x="248" y="96"/>
      <point x="178" y="123"/>
      <point x="157" y="183" type="curve" smooth="yes"/>
      <point x="149" y="205"/>
      <point x="132" y="220"/>
      <point x="107" y="220" type="curve" smooth="yes"/>
      <point x="78" y="220"/>
      <point x="56" y="197"/>
      <point x="56" y="170" type="curve" smooth="yes"/>
      <point x="56" y="162"/>
      <point x="58" y="152"/>
      <point x="61" y="145" type="curve" smooth="yes"/>
      <point x="97" y="62"/>
      <point x="194" y="0"/>
      <point x="306" y="0" type="curve" smooth="yes"/>
      <point x="413" y="0"/>
      <point x="547" y="63"/>
      <point x="547" y="201" type="curve" smooth="yes"/>
      <point x="547" y="299"/>
      <point x="474" y="366"/>
      <point x="326" y="407" type="curve" smooth="yes"/>
      <point x="239" y="431"/>
      <point x="195" y="460"/>
      <point x="195" y="504" type="curve" smooth="yes"/>
      <point x="195" y="566"/>
      <point x="256" y="589"/>
      <point x="325" y="589" type="curve" smooth="yes"/>
      <point x="380" y="589"/>
      <point x="440" y="567"/>
      <point x="447" y="525" type="curve" smooth="yes"/>
      <point x="451" y="502"/>
      <point x="470" y="483"/>
      <point x="495" y="483" type="curve" smooth="yes"/>
      <point x="523" y="483"/>
      <point x="544" y="505"/>
      <point x="544" y="535" type="curve" smooth="yes"/>
      <point x="544" y="655"/>
      <point x="405" y="682"/>
      <point x="328" y="682" type="curve" smooth="yes"/>
      <point x="210" y="682"/>
      <point x="88" y="640"/>
      <point x="88" y="500" type="curve" smooth="yes"/>
      <point x="88" y="387"/>
      <point x="202" y="335"/>
      <point x="301" y="309" type="curve" smooth="yes"/>
    </contour>
    <contour>
      <point x="474" y="821" type="line" smooth="yes"/>
      <point x="486" y="831"/>
      <point x="492" y="844"/>
      <point x="492" y="857" type="curve" smooth="yes"/>
      <point x="492" y="884"/>
      <point x="470" y="904"/>
      <point x="445" y="904" type="curve" smooth="yes"/>
      <point x="435" y="904"/>
      <point x="427" y="903"/>
      <point x="416" y="895" type="curve" smooth="yes"/>
      <point x="327" y="826" type="line"/>
      <point x="254" y="892" type="line" smooth="yes"/>
      <point x="243" y="902"/>
      <point x="233" y="904"/>
      <point x="221" y="904" type="curve" smooth="yes"/>
      <point x="196" y="904"/>
      <point x="175" y="882"/>
      <point x="175" y="857" type="curve" smooth="yes"/>
      <point x="175" y="844"/>
      <point x="179" y="833"/>
      <point x="189" y="823" type="curve" smooth="yes"/>
      <point x="285" y="727" type="line" smooth="yes"/>
      <point x="297" y="715"/>
      <point x="311" y="709"/>
      <point x="323" y="709" type="curve" smooth="yes"/>
      <point x="332" y="709"/>
      <point x="344" y="712"/>
      <point x="355" y="721" type="curve" smooth="yes"/>
    </contour>
  </outline>
</glyph>
<glyph name="scaron" format="1">
  <advance width="484"/>
  <unicode hex="0161"/>
  <outline>
    <contour>
      <point x="133" y="172"/>
      <point x="117" y="186"/>
      <point x="94" y="186" type="curve" smooth="yes"/>
      <point x="68" y="186"/>
      <point x="47" y="165"/>
      <point x="47" y="139" type="curve" smooth="yes"/>
      <point x="47" y="102"/>
      <point x="108" y="-2"/>
      <point x="235" y="-2" type="curve" smooth="yes"/>
      <point x="344" y="-2"/>
      <point x="413" y="77"/>
      <point x="413" y="149" type="curve" smooth="yes"/>
      <point x="413" y="256"/>
      <point x="340" y="279"/>
      <point x="247" y="309" type="curve" smooth="yes"/>
      <point x="217" y="318"/>
      <point x="166" y="332"/>
      <point x="166" y="367" type="curve" smooth="yes"/>
      <point x="166" y="393"/>
      <point x="202" y="410"/>
      <point x="253" y="410" type="curve" smooth="yes"/>
      <point x="301" y="410"/>
      <point x="320" y="395"/>
      <point x="320" y="375" type="curve" smooth="yes"/>
      <point x="320" y="367"/>
      <point x="319" y="362"/>
      <point x="319" y="357" type="curve" smooth="yes"/>
      <point x="319" y="332"/>
      <point x="334" y="310"/>
      <point x="366" y="310" type="curve" smooth="yes"/>
      <point x="400" y="310"/>
      <point x="414" y="332"/>
      <point x="414" y="374" type="curve" smooth="yes"/>
      <point x="414" y="450"/>
      <point x="357" y="499"/>
      <point x="251" y="499" type="curve" smooth="yes"/>
      <point x="177" y="499"/>
      <point x="73" y="472"/>
      <point x="73" y="368" type="curve" smooth="yes"/>
      <point x="73" y="292"/>
      <point x="121" y="251"/>
      <point x="229" y="218" type="curve" smooth="yes"/>
      <point x="304" y="195"/>
      <point x="320" y="179"/>
      <point x="320" y="150" type="curve" smooth="yes"/>
      <point x="320" y="131"/>
      <point x="299" y="90"/>
      <point x="235" y="90" type="curve" smooth="yes"/>
      <point x="187" y="90"/>
      <point x="152" y="114"/>
      <point x="139" y="153" type="curve" smooth="yes"/>
    </contour>
    <contour>
      <point x="413" y="640" type="line" smooth="yes"/>
      <point x="425" y="650"/>
      <point x="431" y="663"/>
      <point x="431" y="676" type="curve" smooth="yes"/>
      <point x="431" y="703"/>
      <point x="409" y="723"/>
      <point x="384" y="723" type="curve" smooth="yes"/>
      <point x="374" y="723"/>
      <point x="366" y="722"/>
      <point x="355" y="714" type="curve" smooth="yes"/>
      <point x="266" y="645" type="line"/>
      <point x="193" y="711" type="line" smooth="yes"/>
      <point x="182" y="721"/>
      <point x="172" y="723"/>
      <point x="160" y="723" type="curve" smooth="yes"/>
      <point x="135" y="723"/>
      <point x="114" y="701"/>
      <point x="114" y="676" type="curve" smooth="yes"/>
      <point x="114" y="663"/>
      <point x="118" y="652"/>
      <point x="128" y="642" type="curve" smooth="yes"/>
      <point x="224" y="546" type="line" smooth="yes"/>
      <point x="236" y="534"/>
      <point x="250" y="528"/>
      <point x="262" y="528" type="curve" smooth="yes"/>
      <point x="271" y="528"/>
      <point x="283" y="531"/>
      <point x="294" y="540" type="curve" smooth="yes"/>
    </contour>
  </outline>
</glyph>
<glyph name="uni0163" format="1">
  <advance width="413"/>
  <unicode hex="0163"/>
  <outline>
    <contour>
      <point x="245" y="500" type="line"/>
      <point x="245" y="607" type="line" smooth="yes"/>
      <point x="245" y="632"/>
      <point x="226" y="656"/>
      <point x="197" y="656" type="curve" smooth="yes"/>
      <point x="170" y="656"/>
      <point x="149" y="632"/>
      <point x="149" y="607" type="curve" smooth="yes"/>
      <point x="149" y="500" type="line"/>
      <point x="67" y="500" type="line" smooth="yes"/>
      <point x="41" y="500"/>
      <point x="17" y="481"/>
      <point x="17" y="451" type="curve" smooth="yes"/>
      <point x="17" y="426"/>
      <point x="38" y="403"/>
      <point x="65" y="403" type="curve" smooth="yes"/>
      <point x="149" y="403" type="line"/>
      <point x="149" y="46" type="line" smooth="yes"/>
      <point x="149" y="20"/>
      <point x="172" y="-1"/>
      <point x="197" y="-1" type="curve" smooth="yes"/>
      <point x="223" y="-1"/>
      <point x="245" y="20"/>
      <point x="245" y="46" type="curve" smooth="yes"/>
      <point x="245" y="403" type="line"/>
      <point x="330" y="403" type="line" smooth="yes"/>
      <point x="357" y="403"/>
      <point x="378" y="426"/>
      <point x="378" y="451" type="curve" smooth="yes"/>
      <point x="378" y="479"/>
      <point x="357" y="500"/>
      <point x="330" y="500" type="curve" smooth="yes"/>
    </contour>
    <contour>
      <point x="260" y="-53"/>
      <point x="237" y="-30"/>
      <point x="208" y="-30" type="curve" smooth="yes"/>
      <point x="177" y="-30"/>
      <point x="149" y="-60"/>
      <point x="149" y="-93" type="curve" smooth="yes"/>
      <point x="149" y="-105"/>
      <point x="152" y="-115"/>
      <point x="157" y="-124" type="curve"/>
      <point x="139" y="-171" type="line" smooth="yes"/>
      <point x="137" y="-176"/>
      <point x="136" y="-180"/>
      <point x="136" y="-187" type="curve" smooth="yes"/>
      <point x="136" y="-210"/>
      <point x="155" y="-229"/>
      <point x="180" y="-229" type="curve" smooth="yes"/>
      <point x="206" y="-229"/>
      <point x="217" y="-211"/>
      <point x="226" y="-190" type="curve" smooth="yes"/>
      <point x="242" y="-152"/>
      <point x="260" y="-102"/>
      <point x="260" y="-81" type="curve" smooth="yes"/>
    </contour>
  </outline>
</glyph>
